<?xml version="1.0" encoding="utf-8"?>
<!-- Generator: Adobe Illustrator 16.0.4, SVG Export Plug-In . SVG Version: 6.00 Build 0)  -->
<!DOCTYPE svg PUBLIC "-//W3C//DTD SVG 1.1//EN" "http://www.w3.org/Graphics/SVG/1.1/DTD/svg11.dtd">
<svg version="1.1" id="Layer_1" xmlns="http://www.w3.org/2000/svg" xmlns:xlink="http://www.w3.org/1999/xlink" x="0px" y="0px"
	 width="884px" height="442px" viewBox="517.5 317.5 884 442" enable-background="new 517.5 317.5 884 442" xml:space="preserve">
<g>
	<defs>
		<rect id="SVGID_1_" x="517.5" y="317.5" width="884" height="442"/>
	</defs>
	<clipPath id="SVGID_2_">
		<use xlink:href="#SVGID_1_"  overflow="visible"/>
	</clipPath>
	<rect x="517.5" y="317.5" opacity="0" clip-path="url(#SVGID_2_)" fill="#FFFFFF" width="884" height="442"/>
	<rect x="518.5" y="317.5" clip-path="url(#SVGID_2_)" fill="#70AD47" width="882" height="441"/>
</g>
<g>
	<defs>
		<rect id="SVGID_3_" x="517.5" y="317.5" width="883" height="441"/>
	</defs>
	<clipPath id="SVGID_4_">
		<use xlink:href="#SVGID_3_"  overflow="visible"/>
	</clipPath>
	<path clip-path="url(#SVGID_4_)" fill="none" stroke="#D9D9D9" stroke-linejoin="round" stroke-miterlimit="10" d="M1383,358v377
		 M1273,358v377 M1163,358v377 M1053,358v377 M943,358v377 M833,358v377 M724,358v377"/>
</g>
<g>
	<defs>
		<rect id="SVGID_5_" x="613.5" y="357.5" width="769" height="378"/>
	</defs>
	<clipPath id="SVGID_6_">
		<use xlink:href="#SVGID_5_"  overflow="visible"/>
	</clipPath>
	<path clip-path="url(#SVGID_6_)" fill="#5B9BD5" d="M892.5,409.5h-279v-27h279V409.5z M876.5,484.5h-263v-27h263V484.5z
		 M1094.5,560.5h-481v-27h481V560.5z M1122.5,635.5h-509v-27h509V635.5z M1295.5,711.5h-682v-27h682V711.5z"/>
</g>
<g>
	<defs>
		<rect id="SVGID_7_" x="517.5" y="317.5" width="883" height="441"/>
	</defs>
	<clipPath id="SVGID_8_">
		<use xlink:href="#SVGID_7_"  overflow="visible"/>
	</clipPath>
	
		<line clip-path="url(#SVGID_8_)" fill="none" stroke="#D9D9D9" stroke-linejoin="round" stroke-miterlimit="10" x1="614" y1="735" x2="614" y2="358"/>
</g>
<g>
	<defs>
		<rect id="SVGID_9_" x="517.5" y="317.5" width="883" height="441"/>
	</defs>
	<clipPath id="SVGID_10_">
		<use xlink:href="#SVGID_9_"  overflow="visible"/>
	</clipPath>
	<g clip-path="url(#SVGID_10_)">
		<text transform="matrix(1 0 0 1 1246.3105 701.3232)"><tspan x="0" y="0" fill="#404040" font-family="'HelveticaNeue'" font-size="9">64</tspan><tspan x="10.008" y="0" fill="#404040" font-family="'HelveticaNeue'" font-size="9">.</tspan><tspan x="13.004" y="0" fill="#404040" font-family="'HelveticaNeue'" font-size="9">209375</tspan></text>
	</g>
</g>
<g>
	<defs>
		<rect id="SVGID_11_" x="517.5" y="317.5" width="883" height="441"/>
	</defs>
	<clipPath id="SVGID_12_">
		<use xlink:href="#SVGID_11_"  overflow="visible"/>
	</clipPath>
	<g clip-path="url(#SVGID_12_)">
		<text transform="matrix(1 0 0 1 1062.4814 625.8809)"><tspan x="0" y="0" fill="#404040" font-family="'HelveticaNeue'" font-size="9">62</tspan><tspan x="10.008" y="0" fill="#404040" font-family="'HelveticaNeue'" font-size="9">.</tspan><tspan x="13.005" y="0" fill="#404040" font-family="'HelveticaNeue'" font-size="9">62727273</tspan></text>
	</g>
</g>
<g>
	<defs>
		<rect id="SVGID_13_" x="517.5" y="317.5" width="883" height="441"/>
	</defs>
	<clipPath id="SVGID_14_">
		<use xlink:href="#SVGID_13_"  overflow="visible"/>
	</clipPath>
	<g clip-path="url(#SVGID_14_)">
		<text transform="matrix(1 0 0 1 1035.4189 550.4385)"><tspan x="0" y="0" fill="#404040" font-family="'HelveticaNeue'" font-size="9">62</tspan><tspan x="10.008" y="0" fill="#404040" font-family="'HelveticaNeue'" font-size="9">.</tspan><tspan x="13.005" y="0" fill="#404040" font-family="'HelveticaNeue'" font-size="9">38095238</tspan></text>
	</g>
</g>
<g>
	<defs>
		<rect id="SVGID_15_" x="517.5" y="317.5" width="883" height="441"/>
	</defs>
	<clipPath id="SVGID_16_">
		<use xlink:href="#SVGID_15_"  overflow="visible"/>
	</clipPath>
	<g clip-path="url(#SVGID_16_)">
		<text transform="matrix(1 0 0 1 816.5254 474.9961)"><tspan x="0" y="0" fill="#404040" font-family="'HelveticaNeue'" font-size="9">60</tspan><tspan x="10.008" y="0" fill="#404040" font-family="'HelveticaNeue'" font-size="9">.</tspan><tspan x="13.005" y="0" fill="#404040" font-family="'HelveticaNeue'" font-size="9">38863636</tspan></text>
	</g>
</g>
<g>
	<defs>
		<rect id="SVGID_17_" x="517.5" y="317.5" width="883" height="441"/>
	</defs>
	<clipPath id="SVGID_18_">
		<use xlink:href="#SVGID_17_"  overflow="visible"/>
	</clipPath>
	<g clip-path="url(#SVGID_18_)">
		<text transform="matrix(1 0 0 1 833.2686 399.5537)"><tspan x="0" y="0" fill="#404040" font-family="'HelveticaNeue'" font-size="9">60</tspan><tspan x="10.008" y="0" fill="#404040" font-family="'HelveticaNeue'" font-size="9">.</tspan><tspan x="13.005" y="0" fill="#404040" font-family="'HelveticaNeue'" font-size="9">54102564</tspan></text>
	</g>
</g>
<g>
	<defs>
		<rect id="SVGID_19_" x="517.5" y="317.5" width="883" height="441"/>
	</defs>
	<clipPath id="SVGID_20_">
		<use xlink:href="#SVGID_19_"  overflow="visible"/>
	</clipPath>
	<g clip-path="url(#SVGID_20_)">
		<text transform="matrix(1 0 0 1 608.2744 750.125)" fill="#FFFFFF" font-family="'HelveticaNeue'" font-size="9">58</text>
	</g>
</g>
<g>
	<defs>
		<rect id="SVGID_21_" x="517.5" y="317.5" width="883" height="441"/>
	</defs>
	<clipPath id="SVGID_22_">
		<use xlink:href="#SVGID_21_"  overflow="visible"/>
	</clipPath>
	<g clip-path="url(#SVGID_22_)">
		<text transform="matrix(1 0 0 1 718.1431 750.125)" fill="#FFFFFF" font-family="'HelveticaNeue'" font-size="9">59</text>
	</g>
</g>
<g>
	<defs>
		<rect id="SVGID_23_" x="517.5" y="317.5" width="883" height="441"/>
	</defs>
	<clipPath id="SVGID_24_">
		<use xlink:href="#SVGID_23_"  overflow="visible"/>
	</clipPath>
	<g clip-path="url(#SVGID_24_)">
		<text transform="matrix(1 0 0 1 828.0117 750.125)" fill="#FFFFFF" font-family="'HelveticaNeue'" font-size="9">60</text>
	</g>
</g>
<g>
	<defs>
		<rect id="SVGID_25_" x="517.5" y="317.5" width="883" height="441"/>
	</defs>
	<clipPath id="SVGID_26_">
		<use xlink:href="#SVGID_25_"  overflow="visible"/>
	</clipPath>
	<g clip-path="url(#SVGID_26_)">
		<text transform="matrix(1 0 0 1 937.8804 750.125)" fill="#FFFFFF" font-family="'HelveticaNeue'" font-size="9">61</text>
	</g>
</g>
<g>
	<defs>
		<rect id="SVGID_27_" x="517.5" y="317.5" width="883" height="441"/>
	</defs>
	<clipPath id="SVGID_28_">
		<use xlink:href="#SVGID_27_"  overflow="visible"/>
	</clipPath>
	<g clip-path="url(#SVGID_28_)">
		<text transform="matrix(1 0 0 1 1047.749 750.125)" fill="#FFFFFF" font-family="'HelveticaNeue'" font-size="9">62</text>
	</g>
</g>
<g>
	<defs>
		<rect id="SVGID_29_" x="517.5" y="317.5" width="883" height="441"/>
	</defs>
	<clipPath id="SVGID_30_">
		<use xlink:href="#SVGID_29_"  overflow="visible"/>
	</clipPath>
	<g clip-path="url(#SVGID_30_)">
		<text transform="matrix(1 0 0 1 1157.6172 750.125)" fill="#FFFFFF" font-family="'HelveticaNeue'" font-size="9">63</text>
	</g>
</g>
<g>
	<defs>
		<rect id="SVGID_31_" x="517.5" y="317.5" width="883" height="441"/>
	</defs>
	<clipPath id="SVGID_32_">
		<use xlink:href="#SVGID_31_"  overflow="visible"/>
	</clipPath>
	<g clip-path="url(#SVGID_32_)">
		<text transform="matrix(1 0 0 1 1267.4863 750.125)" fill="#FFFFFF" font-family="'HelveticaNeue'" font-size="9">64</text>
	</g>
</g>
<g>
	<defs>
		<rect id="SVGID_33_" x="517.5" y="317.5" width="883" height="441"/>
	</defs>
	<clipPath id="SVGID_34_">
		<use xlink:href="#SVGID_33_"  overflow="visible"/>
	</clipPath>
	<g clip-path="url(#SVGID_34_)">
		<text transform="matrix(1 0 0 1 1377.3555 750.125)" fill="#FFFFFF" font-family="'HelveticaNeue'" font-size="9">65</text>
	</g>
</g>
<g>
	<defs>
		<rect id="SVGID_35_" x="517.5" y="317.5" width="883" height="441"/>
	</defs>
	<clipPath id="SVGID_36_">
		<use xlink:href="#SVGID_35_"  overflow="visible"/>
	</clipPath>
	<g clip-path="url(#SVGID_36_)">
		<text transform="matrix(1 0 0 1 524.5898 701.3232)"><tspan x="0" y="0" fill="#FFFFFF" font-family="'HelveticaNeue'" font-size="9">2016</tspan><tspan x="20.016" y="0" fill="#FFFFFF" font-family="'HelveticaNeue'" font-size="9"> </tspan><tspan x="23.013" y="0" fill="#FFFFFF" font-family="'HelveticaNeue'" font-size="9">C</tspan><tspan x="29.016" y="0" fill="#FFFFFF" font-family="'HelveticaNeue'" font-size="9">o</tspan><tspan x="34.02" y="0" fill="#FFFFFF" font-family="'HelveticaNeue'" font-size="9">m</tspan><tspan x="42.012" y="0" fill="#FFFFFF" font-family="'HelveticaNeue'" font-size="9">p</tspan><tspan x="47.016" y="0" fill="#FFFFFF" font-family="'HelveticaNeue'" font-size="9">l</tspan><tspan x="49.014" y="0" fill="#FFFFFF" font-family="'HelveticaNeue'" font-size="9">et</tspan><tspan x="57.005" y="0" fill="#FFFFFF" font-family="'HelveticaNeue'" font-size="9">i</tspan><tspan x="59.003" y="0" fill="#FFFFFF" font-family="'HelveticaNeue'" font-size="9">o</tspan><tspan x="64.007" y="0" fill="#FFFFFF" font-family="'HelveticaNeue'" font-size="9">n</tspan><tspan x="69.011" y="0" fill="#FFFFFF" font-family="'HelveticaNeue'" font-size="9"> </tspan><tspan x="72.008" y="0" fill="#FFFFFF" font-family="'HelveticaNeue'" font-size="9">%</tspan></text>
	</g>
</g>
<g>
	<defs>
		<rect id="SVGID_37_" x="517.5" y="317.5" width="883" height="441"/>
	</defs>
	<clipPath id="SVGID_38_">
		<use xlink:href="#SVGID_37_"  overflow="visible"/>
	</clipPath>
	<g clip-path="url(#SVGID_38_)">
		<text transform="matrix(1 0 0 1 524.5898 625.8809)"><tspan x="0" y="0" fill="#FFFFFF" font-family="'HelveticaNeue'" font-size="9">2015</tspan><tspan x="20.016" y="0" fill="#FFFFFF" font-family="'HelveticaNeue'" font-size="9"> </tspan><tspan x="23.013" y="0" fill="#FFFFFF" font-family="'HelveticaNeue'" font-size="9">C</tspan><tspan x="29.016" y="0" fill="#FFFFFF" font-family="'HelveticaNeue'" font-size="9">o</tspan><tspan x="34.02" y="0" fill="#FFFFFF" font-family="'HelveticaNeue'" font-size="9">m</tspan><tspan x="42.012" y="0" fill="#FFFFFF" font-family="'HelveticaNeue'" font-size="9">p</tspan><tspan x="47.016" y="0" fill="#FFFFFF" font-family="'HelveticaNeue'" font-size="9">l</tspan><tspan x="49.014" y="0" fill="#FFFFFF" font-family="'HelveticaNeue'" font-size="9">et</tspan><tspan x="57.005" y="0" fill="#FFFFFF" font-family="'HelveticaNeue'" font-size="9">i</tspan><tspan x="59.003" y="0" fill="#FFFFFF" font-family="'HelveticaNeue'" font-size="9">o</tspan><tspan x="64.007" y="0" fill="#FFFFFF" font-family="'HelveticaNeue'" font-size="9">n</tspan><tspan x="69.011" y="0" fill="#FFFFFF" font-family="'HelveticaNeue'" font-size="9"> </tspan><tspan x="72.008" y="0" fill="#FFFFFF" font-family="'HelveticaNeue'" font-size="9">%</tspan></text>
	</g>
</g>
<g>
	<defs>
		<rect id="SVGID_39_" x="517.5" y="317.5" width="883" height="441"/>
	</defs>
	<clipPath id="SVGID_40_">
		<use xlink:href="#SVGID_39_"  overflow="visible"/>
	</clipPath>
	<g clip-path="url(#SVGID_40_)">
		<text transform="matrix(1 0 0 1 524.5898 550.4385)"><tspan x="0" y="0" fill="#FFFFFF" font-family="'HelveticaNeue'" font-size="9">2014</tspan><tspan x="20.016" y="0" fill="#FFFFFF" font-family="'HelveticaNeue'" font-size="9"> </tspan><tspan x="23.013" y="0" fill="#FFFFFF" font-family="'HelveticaNeue'" font-size="9">C</tspan><tspan x="29.016" y="0" fill="#FFFFFF" font-family="'HelveticaNeue'" font-size="9">o</tspan><tspan x="34.02" y="0" fill="#FFFFFF" font-family="'HelveticaNeue'" font-size="9">m</tspan><tspan x="42.012" y="0" fill="#FFFFFF" font-family="'HelveticaNeue'" font-size="9">p</tspan><tspan x="47.016" y="0" fill="#FFFFFF" font-family="'HelveticaNeue'" font-size="9">l</tspan><tspan x="49.014" y="0" fill="#FFFFFF" font-family="'HelveticaNeue'" font-size="9">et</tspan><tspan x="57.005" y="0" fill="#FFFFFF" font-family="'HelveticaNeue'" font-size="9">i</tspan><tspan x="59.003" y="0" fill="#FFFFFF" font-family="'HelveticaNeue'" font-size="9">o</tspan><tspan x="64.007" y="0" fill="#FFFFFF" font-family="'HelveticaNeue'" font-size="9">n</tspan><tspan x="69.011" y="0" fill="#FFFFFF" font-family="'HelveticaNeue'" font-size="9"> </tspan><tspan x="72.008" y="0" fill="#FFFFFF" font-family="'HelveticaNeue'" font-size="9">%</tspan></text>
	</g>
</g>
<g>
	<defs>
		<rect id="SVGID_41_" x="517.5" y="317.5" width="883" height="441"/>
	</defs>
	<clipPath id="SVGID_42_">
		<use xlink:href="#SVGID_41_"  overflow="visible"/>
	</clipPath>
	<g clip-path="url(#SVGID_42_)">
		<text transform="matrix(1 0 0 1 524.5898 474.9961)"><tspan x="0" y="0" fill="#FFFFFF" font-family="'HelveticaNeue'" font-size="9">2013</tspan><tspan x="20.016" y="0" fill="#FFFFFF" font-family="'HelveticaNeue'" font-size="9"> </tspan><tspan x="23.013" y="0" fill="#FFFFFF" font-family="'HelveticaNeue'" font-size="9">C</tspan><tspan x="29.016" y="0" fill="#FFFFFF" font-family="'HelveticaNeue'" font-size="9">o</tspan><tspan x="34.02" y="0" fill="#FFFFFF" font-family="'HelveticaNeue'" font-size="9">m</tspan><tspan x="42.012" y="0" fill="#FFFFFF" font-family="'HelveticaNeue'" font-size="9">p</tspan><tspan x="47.016" y="0" fill="#FFFFFF" font-family="'HelveticaNeue'" font-size="9">l</tspan><tspan x="49.014" y="0" fill="#FFFFFF" font-family="'HelveticaNeue'" font-size="9">et</tspan><tspan x="57.005" y="0" fill="#FFFFFF" font-family="'HelveticaNeue'" font-size="9">i</tspan><tspan x="59.003" y="0" fill="#FFFFFF" font-family="'HelveticaNeue'" font-size="9">o</tspan><tspan x="64.007" y="0" fill="#FFFFFF" font-family="'HelveticaNeue'" font-size="9">n</tspan><tspan x="69.011" y="0" fill="#FFFFFF" font-family="'HelveticaNeue'" font-size="9"> </tspan><tspan x="72.008" y="0" fill="#FFFFFF" font-family="'HelveticaNeue'" font-size="9">%</tspan></text>
	</g>
</g>
<g>
	<defs>
		<rect id="SVGID_43_" x="517.5" y="317.5" width="883" height="441"/>
	</defs>
	<clipPath id="SVGID_44_">
		<use xlink:href="#SVGID_43_"  overflow="visible"/>
	</clipPath>
	<g clip-path="url(#SVGID_44_)">
		<text transform="matrix(1 0 0 1 524.5898 399.5537)"><tspan x="0" y="0" fill="#FFFFFF" font-family="'HelveticaNeue'" font-size="9">2012</tspan><tspan x="20.016" y="0" fill="#FFFFFF" font-family="'HelveticaNeue'" font-size="9"> </tspan><tspan x="23.013" y="0" fill="#FFFFFF" font-family="'HelveticaNeue'" font-size="9">C</tspan><tspan x="29.016" y="0" fill="#FFFFFF" font-family="'HelveticaNeue'" font-size="9">o</tspan><tspan x="34.02" y="0" fill="#FFFFFF" font-family="'HelveticaNeue'" font-size="9">m</tspan><tspan x="42.012" y="0" fill="#FFFFFF" font-family="'HelveticaNeue'" font-size="9">p</tspan><tspan x="47.016" y="0" fill="#FFFFFF" font-family="'HelveticaNeue'" font-size="9">l</tspan><tspan x="49.014" y="0" fill="#FFFFFF" font-family="'HelveticaNeue'" font-size="9">et</tspan><tspan x="57.005" y="0" fill="#FFFFFF" font-family="'HelveticaNeue'" font-size="9">i</tspan><tspan x="59.003" y="0" fill="#FFFFFF" font-family="'HelveticaNeue'" font-size="9">o</tspan><tspan x="64.007" y="0" fill="#FFFFFF" font-family="'HelveticaNeue'" font-size="9">n</tspan><tspan x="69.011" y="0" fill="#FFFFFF" font-family="'HelveticaNeue'" font-size="9"> </tspan><tspan x="72.008" y="0" fill="#FFFFFF" font-family="'HelveticaNeue'" font-size="9">%</tspan></text>
	</g>
</g>
<g>
	<defs>
		<rect id="SVGID_45_" x="517.5" y="317.5" width="883" height="441"/>
	</defs>
	<clipPath id="SVGID_46_">
		<use xlink:href="#SVGID_45_"  overflow="visible"/>
	</clipPath>
	<g clip-path="url(#SVGID_46_)">
		<text transform="matrix(1 0 0 1 856.2749 341)"><tspan x="0" y="0" fill="#FFFFFF" font-family="'HelveticaNeue'" font-size="14">A</tspan><tspan x="9.002" y="0" fill="#FFFFFF" font-family="'HelveticaNeue'" font-size="14">v</tspan><tspan x="16.002" y="0" fill="#FFFFFF" font-family="'HelveticaNeue'" font-size="14">e</tspan><tspan x="23.996" y="0" fill="#FFFFFF" font-family="'HelveticaNeue'" font-size="14">r</tspan><tspan x="28.994" y="0" fill="#FFFFFF" font-family="'HelveticaNeue'" font-size="14">a</tspan><tspan x="36.987" y="0" fill="#FFFFFF" font-family="'HelveticaNeue'" font-size="14">g</tspan><tspan x="44.995" y="0" fill="#FFFFFF" font-family="'HelveticaNeue'" font-size="14">e</tspan><tspan x="52.989" y="0" fill="#FFFFFF" font-family="'HelveticaNeue'" font-size="14"> </tspan><tspan x="55.999" y="0" fill="#FFFFFF" font-family="'HelveticaNeue'" font-size="14">C</tspan><tspan x="66.009" y="0" fill="#FFFFFF" font-family="'HelveticaNeue'" font-size="14">o</tspan><tspan x="74.017" y="0" fill="#FFFFFF" font-family="'HelveticaNeue'" font-size="14">m</tspan><tspan x="86.015" y="0" fill="#FFFFFF" font-family="'HelveticaNeue'" font-size="14">p</tspan><tspan x="94.022" y="0" fill="#FFFFFF" font-family="'HelveticaNeue'" font-size="14">l</tspan><tspan x="97.032" y="0" fill="#FFFFFF" font-family="'HelveticaNeue'" font-size="14">e</tspan><tspan x="105.026" y="0" fill="#FFFFFF" font-family="'HelveticaNeue'" font-size="14">t</tspan><tspan x="109.03" y="0" fill="#FFFFFF" font-family="'HelveticaNeue'" font-size="14">i</tspan><tspan x="112.04" y="0" fill="#FFFFFF" font-family="'HelveticaNeue'" font-size="14">o</tspan><tspan x="120.047" y="0" fill="#FFFFFF" font-family="'HelveticaNeue'" font-size="14">n</tspan><tspan x="128.042" y="0" fill="#FFFFFF" font-family="'HelveticaNeue'" font-size="14"> </tspan><tspan x="131.051" y="0" fill="#FFFFFF" font-family="'HelveticaNeue'" font-size="14">P</tspan><tspan x="140.053" y="0" fill="#FFFFFF" font-family="'HelveticaNeue'" font-size="14">e</tspan><tspan x="148.047" y="0" fill="#FFFFFF" font-family="'HelveticaNeue'" font-size="14">r</tspan><tspan x="153.045" y="0" fill="#FFFFFF" font-family="'HelveticaNeue'" font-size="14">ce</tspan><tspan x="169.033" y="0" fill="#FFFFFF" font-family="'HelveticaNeue'" font-size="14">n</tspan><tspan x="177.027" y="0" fill="#FFFFFF" font-family="'HelveticaNeue'" font-size="14">t</tspan><tspan x="181.031" y="0" fill="#FFFFFF" font-family="'HelveticaNeue'" font-size="14">a</tspan><tspan x="189.024" y="0" fill="#FFFFFF" font-family="'HelveticaNeue'" font-size="14">g</tspan><tspan x="197.032" y="0" fill="#FFFFFF" font-family="'HelveticaNeue'" font-size="14">e</tspan></text>
	</g>
</g>
<g>
	<defs>
		<rect id="SVGID_47_" x="517.5" y="317.5" width="884" height="442"/>
	</defs>
	<clipPath id="SVGID_48_">
		<use xlink:href="#SVGID_47_"  overflow="visible"/>
	</clipPath>
	
		<rect x="518" y="318" clip-path="url(#SVGID_48_)" fill="none" stroke="#D9D9D9" stroke-linejoin="round" stroke-miterlimit="10" width="883" height="441"/>
</g>
</svg>
