<?xml version="1.0" encoding="utf-8"?>
<!-- Generator: Adobe Illustrator 16.0.4, SVG Export Plug-In . SVG Version: 6.00 Build 0)  -->
<!DOCTYPE svg PUBLIC "-//W3C//DTD SVG 1.1//EN" "http://www.w3.org/Graphics/SVG/1.1/DTD/svg11.dtd">
<svg version="1.1" id="Layer_1" xmlns="http://www.w3.org/2000/svg" xmlns:xlink="http://www.w3.org/1999/xlink" x="0px" y="0px"
	 width="882.5px" height="440.5px" viewBox="519.5 319.5 882.5 440.5" enable-background="new 519.5 319.5 882.5 440.5"
	 xml:space="preserve">
<g>
	<defs>
		<rect id="SVGID_1_" x="519" y="319" width="884" height="442"/>
	</defs>
	<clipPath id="SVGID_2_">
		<use xlink:href="#SVGID_1_"  overflow="visible"/>
	</clipPath>
	<rect x="519" y="319" opacity="0" clip-path="url(#SVGID_2_)" fill="#FFFFFF" width="884" height="442"/>
	<rect x="520" y="319" clip-path="url(#SVGID_2_)" fill="#70AD47" width="882" height="441"/>
</g>
<g>
	<defs>
		<rect id="SVGID_3_" x="519" y="319" width="883" height="441"/>
	</defs>
	<clipPath id="SVGID_4_">
		<use xlink:href="#SVGID_3_"  overflow="visible"/>
	</clipPath>
	<path clip-path="url(#SVGID_4_)" fill="none" stroke="#D9D9D9" stroke-linejoin="round" stroke-miterlimit="10" d="M1379.5,359.5
		v377 M1270.5,359.5v377 M1160.5,359.5v377 M1051.5,359.5v377 M942.5,359.5v377 M833.5,359.5v377 M724.5,359.5v377"/>
</g>
<g>
	<defs>
		<rect id="SVGID_5_" x="614" y="359" width="765" height="378"/>
	</defs>
	<clipPath id="SVGID_6_">
		<use xlink:href="#SVGID_5_"  overflow="visible"/>
	</clipPath>
	<path clip-path="url(#SVGID_6_)" fill="#5B9BD5" d="M1298,411H615v-27h683V411z M1235,486H615v-27h620V486z M1254,562H615v-27h639
		V562z M1246,637H615v-27h631V637z M966,713H615v-27h351V713z"/>
</g>
<g>
	<defs>
		<rect id="SVGID_7_" x="519" y="319" width="883" height="441"/>
	</defs>
	<clipPath id="SVGID_8_">
		<use xlink:href="#SVGID_7_"  overflow="visible"/>
	</clipPath>
	
		<line clip-path="url(#SVGID_8_)" fill="none" stroke="#D9D9D9" stroke-linejoin="round" stroke-miterlimit="10" x1="614.5" y1="736.5" x2="614.5" y2="359.5"/>
</g>
<g>
	<defs>
		<rect id="SVGID_9_" x="519" y="319" width="883" height="441"/>
	</defs>
	<clipPath id="SVGID_10_">
		<use xlink:href="#SVGID_9_"  overflow="visible"/>
	</clipPath>
	<g clip-path="url(#SVGID_10_)">
		<text transform="matrix(1 0 0 1 911.4028 702.8232)"><tspan x="0" y="0" fill="#404040" font-family="'HelveticaNeue'" font-size="9">1609</tspan><tspan x="20.016" y="0" fill="#404040" font-family="'HelveticaNeue'" font-size="9">.</tspan><tspan x="23.013" y="0" fill="#404040" font-family="'HelveticaNeue'" font-size="9">71875</tspan></text>
	</g>
</g>
<g>
	<defs>
		<rect id="SVGID_11_" x="519" y="319" width="883" height="441"/>
	</defs>
	<clipPath id="SVGID_12_">
		<use xlink:href="#SVGID_11_"  overflow="visible"/>
	</clipPath>
	<g clip-path="url(#SVGID_12_)">
		<text transform="matrix(1 0 0 1 1186.2324 627.3809)"><tspan x="0" y="0" fill="#404040" font-family="'HelveticaNeue'" font-size="9">2888</tspan><tspan x="20.016" y="0" fill="#404040" font-family="'HelveticaNeue'" font-size="9">.</tspan><tspan x="23.013" y="0" fill="#404040" font-family="'HelveticaNeue'" font-size="9">931818</tspan></text>
	</g>
</g>
<g>
	<defs>
		<rect id="SVGID_13_" x="519" y="319" width="883" height="441"/>
	</defs>
	<clipPath id="SVGID_14_">
		<use xlink:href="#SVGID_13_"  overflow="visible"/>
	</clipPath>
	<g clip-path="url(#SVGID_14_)">
		<text transform="matrix(1 0 0 1 1194.8516 551.9385)"><tspan x="0" y="0" fill="#404040" font-family="'HelveticaNeue'" font-size="9">2928</tspan><tspan x="20.016" y="0" fill="#404040" font-family="'HelveticaNeue'" font-size="9">.</tspan><tspan x="23.014" y="0" fill="#404040" font-family="'HelveticaNeue'" font-size="9">404762</tspan></text>
	</g>
</g>
<g>
	<defs>
		<rect id="SVGID_15_" x="519" y="319" width="883" height="441"/>
	</defs>
	<clipPath id="SVGID_16_">
		<use xlink:href="#SVGID_15_"  overflow="visible"/>
	</clipPath>
	<g clip-path="url(#SVGID_16_)">
		<text transform="matrix(1 0 0 1 1175.4434 476.4961)"><tspan x="0" y="0" fill="#404040" font-family="'HelveticaNeue'" font-size="9">2839</tspan><tspan x="20.016" y="0" fill="#404040" font-family="'HelveticaNeue'" font-size="9">.</tspan><tspan x="23.014" y="0" fill="#404040" font-family="'HelveticaNeue'" font-size="9">522727</tspan></text>
	</g>
</g>
<g>
	<defs>
		<rect id="SVGID_17_" x="519" y="319" width="883" height="441"/>
	</defs>
	<clipPath id="SVGID_18_">
		<use xlink:href="#SVGID_17_"  overflow="visible"/>
	</clipPath>
	<g clip-path="url(#SVGID_18_)">
		<text transform="matrix(1 0 0 1 1238.6309 401.0537)"><tspan x="0" y="0" fill="#404040" font-family="'HelveticaNeue'" font-size="9">3128</tspan><tspan x="20.016" y="0" fill="#404040" font-family="'HelveticaNeue'" font-size="9">.</tspan><tspan x="23.014" y="0" fill="#404040" font-family="'HelveticaNeue'" font-size="9">897436</tspan></text>
	</g>
</g>
<g>
	<defs>
		<rect id="SVGID_19_" x="519" y="319" width="883" height="441"/>
	</defs>
	<clipPath id="SVGID_20_">
		<use xlink:href="#SVGID_19_"  overflow="visible"/>
	</clipPath>
	<g clip-path="url(#SVGID_20_)">
		<text transform="matrix(1 0 0 1 612.5918 751.625)" fill="#FFFFFF" font-family="'HelveticaNeue'" font-size="9">0</text>
	</g>
</g>
<g>
	<defs>
		<rect id="SVGID_21_" x="519" y="319" width="883" height="441"/>
	</defs>
	<clipPath id="SVGID_22_">
		<use xlink:href="#SVGID_21_"  overflow="visible"/>
	</clipPath>
	<g clip-path="url(#SVGID_22_)">
		<text transform="matrix(1 0 0 1 716.772 751.625)" fill="#FFFFFF" font-family="'HelveticaNeue'" font-size="9">500</text>
	</g>
</g>
<g>
	<defs>
		<rect id="SVGID_23_" x="519" y="319" width="883" height="441"/>
	</defs>
	<clipPath id="SVGID_24_">
		<use xlink:href="#SVGID_23_"  overflow="visible"/>
	</clipPath>
	<g clip-path="url(#SVGID_24_)">
		<text transform="matrix(1 0 0 1 822.9492 751.625)" fill="#FFFFFF" font-family="'HelveticaNeue'" font-size="9">1000</text>
	</g>
</g>
<g>
	<defs>
		<rect id="SVGID_25_" x="519" y="319" width="883" height="441"/>
	</defs>
	<clipPath id="SVGID_26_">
		<use xlink:href="#SVGID_25_"  overflow="visible"/>
	</clipPath>
	<g clip-path="url(#SVGID_26_)">
		<text transform="matrix(1 0 0 1 932.1294 751.625)" fill="#FFFFFF" font-family="'HelveticaNeue'" font-size="9">1500</text>
	</g>
</g>
<g>
	<defs>
		<rect id="SVGID_27_" x="519" y="319" width="883" height="441"/>
	</defs>
	<clipPath id="SVGID_28_">
		<use xlink:href="#SVGID_27_"  overflow="visible"/>
	</clipPath>
	<g clip-path="url(#SVGID_28_)">
		<text transform="matrix(1 0 0 1 1041.3096 751.625)" fill="#FFFFFF" font-family="'HelveticaNeue'" font-size="9">2000</text>
	</g>
</g>
<g>
	<defs>
		<rect id="SVGID_29_" x="519" y="319" width="883" height="441"/>
	</defs>
	<clipPath id="SVGID_30_">
		<use xlink:href="#SVGID_29_"  overflow="visible"/>
	</clipPath>
	<g clip-path="url(#SVGID_30_)">
		<text transform="matrix(1 0 0 1 1150.4902 751.625)" fill="#FFFFFF" font-family="'HelveticaNeue'" font-size="9">2500</text>
	</g>
</g>
<g>
	<defs>
		<rect id="SVGID_31_" x="519" y="319" width="883" height="441"/>
	</defs>
	<clipPath id="SVGID_32_">
		<use xlink:href="#SVGID_31_"  overflow="visible"/>
	</clipPath>
	<g clip-path="url(#SVGID_32_)">
		<text transform="matrix(1 0 0 1 1259.6699 751.625)" fill="#FFFFFF" font-family="'HelveticaNeue'" font-size="9">3000</text>
	</g>
</g>
<g>
	<defs>
		<rect id="SVGID_33_" x="519" y="319" width="883" height="441"/>
	</defs>
	<clipPath id="SVGID_34_">
		<use xlink:href="#SVGID_33_"  overflow="visible"/>
	</clipPath>
	<g clip-path="url(#SVGID_34_)">
		<text transform="matrix(1 0 0 1 1368.8496 751.625)" fill="#FFFFFF" font-family="'HelveticaNeue'" font-size="9">3500</text>
	</g>
</g>
<g>
	<defs>
		<rect id="SVGID_35_" x="519" y="319" width="883" height="441"/>
	</defs>
	<clipPath id="SVGID_36_">
		<use xlink:href="#SVGID_35_"  overflow="visible"/>
	</clipPath>
	<g clip-path="url(#SVGID_36_)">
		<text transform="matrix(1 0 0 1 525.625 702.8232)"><tspan x="0" y="0" fill="#FFFFFF" font-family="'HelveticaNeue'" font-size="9">2016</tspan><tspan x="20.016" y="0" fill="#FFFFFF" font-family="'HelveticaNeue'" font-size="9"> </tspan><tspan x="23.013" y="0" fill="#FFFFFF" font-family="'HelveticaNeue'" font-size="9">Pa</tspan><tspan x="34.002" y="0" fill="#FFFFFF" font-family="'HelveticaNeue'" font-size="9">ss</tspan><tspan x="43.992" y="0" fill="#FFFFFF" font-family="'HelveticaNeue'" font-size="9">in</tspan><tspan x="50.994" y="0" fill="#FFFFFF" font-family="'HelveticaNeue'" font-size="9">g</tspan><tspan x="55.998" y="0" fill="#FFFFFF" font-family="'HelveticaNeue'" font-size="9"> </tspan><tspan x="58.004" y="0" fill="#FFFFFF" font-family="'HelveticaNeue'" font-size="9">Ya</tspan><tspan x="68.994" y="0" fill="#FFFFFF" font-family="'HelveticaNeue'" font-size="9">r</tspan><tspan x="71.99" y="0" fill="#FFFFFF" font-family="'HelveticaNeue'" font-size="9">d</tspan><tspan x="76.994" y="0" fill="#FFFFFF" font-family="'HelveticaNeue'" font-size="9">s</tspan></text>
	</g>
</g>
<g>
	<defs>
		<rect id="SVGID_37_" x="519" y="319" width="883" height="441"/>
	</defs>
	<clipPath id="SVGID_38_">
		<use xlink:href="#SVGID_37_"  overflow="visible"/>
	</clipPath>
	<g clip-path="url(#SVGID_38_)">
		<text transform="matrix(1 0 0 1 525.625 627.3809)"><tspan x="0" y="0" fill="#FFFFFF" font-family="'HelveticaNeue'" font-size="9">2015</tspan><tspan x="20.016" y="0" fill="#FFFFFF" font-family="'HelveticaNeue'" font-size="9"> </tspan><tspan x="23.013" y="0" fill="#FFFFFF" font-family="'HelveticaNeue'" font-size="9">Pa</tspan><tspan x="34.002" y="0" fill="#FFFFFF" font-family="'HelveticaNeue'" font-size="9">ss</tspan><tspan x="43.992" y="0" fill="#FFFFFF" font-family="'HelveticaNeue'" font-size="9">in</tspan><tspan x="50.994" y="0" fill="#FFFFFF" font-family="'HelveticaNeue'" font-size="9">g</tspan><tspan x="55.998" y="0" fill="#FFFFFF" font-family="'HelveticaNeue'" font-size="9"> </tspan><tspan x="58.004" y="0" fill="#FFFFFF" font-family="'HelveticaNeue'" font-size="9">Ya</tspan><tspan x="68.994" y="0" fill="#FFFFFF" font-family="'HelveticaNeue'" font-size="9">r</tspan><tspan x="71.99" y="0" fill="#FFFFFF" font-family="'HelveticaNeue'" font-size="9">d</tspan><tspan x="76.994" y="0" fill="#FFFFFF" font-family="'HelveticaNeue'" font-size="9">s</tspan></text>
	</g>
</g>
<g>
	<defs>
		<rect id="SVGID_39_" x="519" y="319" width="883" height="441"/>
	</defs>
	<clipPath id="SVGID_40_">
		<use xlink:href="#SVGID_39_"  overflow="visible"/>
	</clipPath>
	<g clip-path="url(#SVGID_40_)">
		<text transform="matrix(1 0 0 1 525.625 551.9385)"><tspan x="0" y="0" fill="#FFFFFF" font-family="'HelveticaNeue'" font-size="9">2014</tspan><tspan x="20.016" y="0" fill="#FFFFFF" font-family="'HelveticaNeue'" font-size="9"> </tspan><tspan x="23.013" y="0" fill="#FFFFFF" font-family="'HelveticaNeue'" font-size="9">Pa</tspan><tspan x="34.002" y="0" fill="#FFFFFF" font-family="'HelveticaNeue'" font-size="9">ss</tspan><tspan x="43.992" y="0" fill="#FFFFFF" font-family="'HelveticaNeue'" font-size="9">in</tspan><tspan x="50.994" y="0" fill="#FFFFFF" font-family="'HelveticaNeue'" font-size="9">g</tspan><tspan x="55.998" y="0" fill="#FFFFFF" font-family="'HelveticaNeue'" font-size="9"> </tspan><tspan x="58.004" y="0" fill="#FFFFFF" font-family="'HelveticaNeue'" font-size="9">Ya</tspan><tspan x="68.994" y="0" fill="#FFFFFF" font-family="'HelveticaNeue'" font-size="9">r</tspan><tspan x="71.99" y="0" fill="#FFFFFF" font-family="'HelveticaNeue'" font-size="9">d</tspan><tspan x="76.994" y="0" fill="#FFFFFF" font-family="'HelveticaNeue'" font-size="9">s</tspan></text>
	</g>
</g>
<g>
	<defs>
		<rect id="SVGID_41_" x="519" y="319" width="883" height="441"/>
	</defs>
	<clipPath id="SVGID_42_">
		<use xlink:href="#SVGID_41_"  overflow="visible"/>
	</clipPath>
	<g clip-path="url(#SVGID_42_)">
		<text transform="matrix(1 0 0 1 525.625 476.4961)"><tspan x="0" y="0" fill="#FFFFFF" font-family="'HelveticaNeue'" font-size="9">2013</tspan><tspan x="20.016" y="0" fill="#FFFFFF" font-family="'HelveticaNeue'" font-size="9"> </tspan><tspan x="23.013" y="0" fill="#FFFFFF" font-family="'HelveticaNeue'" font-size="9">Pa</tspan><tspan x="34.002" y="0" fill="#FFFFFF" font-family="'HelveticaNeue'" font-size="9">ss</tspan><tspan x="43.992" y="0" fill="#FFFFFF" font-family="'HelveticaNeue'" font-size="9">in</tspan><tspan x="50.994" y="0" fill="#FFFFFF" font-family="'HelveticaNeue'" font-size="9">g</tspan><tspan x="55.998" y="0" fill="#FFFFFF" font-family="'HelveticaNeue'" font-size="9"> </tspan><tspan x="58.004" y="0" fill="#FFFFFF" font-family="'HelveticaNeue'" font-size="9">Ya</tspan><tspan x="68.994" y="0" fill="#FFFFFF" font-family="'HelveticaNeue'" font-size="9">r</tspan><tspan x="71.99" y="0" fill="#FFFFFF" font-family="'HelveticaNeue'" font-size="9">d</tspan><tspan x="76.994" y="0" fill="#FFFFFF" font-family="'HelveticaNeue'" font-size="9">s</tspan></text>
	</g>
</g>
<g>
	<defs>
		<rect id="SVGID_43_" x="519" y="319" width="883" height="441"/>
	</defs>
	<clipPath id="SVGID_44_">
		<use xlink:href="#SVGID_43_"  overflow="visible"/>
	</clipPath>
	<g clip-path="url(#SVGID_44_)">
		<text transform="matrix(1 0 0 1 525.625 401.0537)"><tspan x="0" y="0" fill="#FFFFFF" font-family="'HelveticaNeue'" font-size="9">2012</tspan><tspan x="20.016" y="0" fill="#FFFFFF" font-family="'HelveticaNeue'" font-size="9"> </tspan><tspan x="23.013" y="0" fill="#FFFFFF" font-family="'HelveticaNeue'" font-size="9">Pa</tspan><tspan x="34.002" y="0" fill="#FFFFFF" font-family="'HelveticaNeue'" font-size="9">ss</tspan><tspan x="43.992" y="0" fill="#FFFFFF" font-family="'HelveticaNeue'" font-size="9">in</tspan><tspan x="50.994" y="0" fill="#FFFFFF" font-family="'HelveticaNeue'" font-size="9">g</tspan><tspan x="55.998" y="0" fill="#FFFFFF" font-family="'HelveticaNeue'" font-size="9"> </tspan><tspan x="58.004" y="0" fill="#FFFFFF" font-family="'HelveticaNeue'" font-size="9">Ya</tspan><tspan x="68.994" y="0" fill="#FFFFFF" font-family="'HelveticaNeue'" font-size="9">r</tspan><tspan x="71.99" y="0" fill="#FFFFFF" font-family="'HelveticaNeue'" font-size="9">d</tspan><tspan x="76.994" y="0" fill="#FFFFFF" font-family="'HelveticaNeue'" font-size="9">s</tspan></text>
	</g>
</g>
<g>
	<defs>
		<rect id="SVGID_45_" x="519" y="319" width="883" height="441"/>
	</defs>
	<clipPath id="SVGID_46_">
		<use xlink:href="#SVGID_45_"  overflow="visible"/>
	</clipPath>
	<g clip-path="url(#SVGID_46_)">
		<text transform="matrix(1 0 0 1 911.4673 348.0195)"><tspan x="0" y="0" fill="#FFFFFF" font-family="'HelveticaNeue'" font-size="14">A</tspan><tspan x="9.002" y="0" fill="#FFFFFF" font-family="'HelveticaNeue'" font-size="14">v</tspan><tspan x="16.002" y="0" fill="#FFFFFF" font-family="'HelveticaNeue'" font-size="14">e</tspan><tspan x="23.996" y="0" fill="#FFFFFF" font-family="'HelveticaNeue'" font-size="14">r</tspan><tspan x="28.994" y="0" fill="#FFFFFF" font-family="'HelveticaNeue'" font-size="14">a</tspan><tspan x="36.987" y="0" fill="#FFFFFF" font-family="'HelveticaNeue'" font-size="14">g</tspan><tspan x="44.995" y="0" fill="#FFFFFF" font-family="'HelveticaNeue'" font-size="14">e</tspan><tspan x="52.99" y="0" fill="#FFFFFF" font-family="'HelveticaNeue'" font-size="14"> </tspan><tspan x="56" y="0" fill="#FFFFFF" font-family="'HelveticaNeue'" font-size="14">P</tspan><tspan x="65.001" y="0" fill="#FFFFFF" font-family="'HelveticaNeue'" font-size="14">a</tspan><tspan x="72.996" y="0" fill="#FFFFFF" font-family="'HelveticaNeue'" font-size="14">ss</tspan><tspan x="86.996" y="0" fill="#FFFFFF" font-family="'HelveticaNeue'" font-size="14">i</tspan><tspan x="90.005" y="0" fill="#FFFFFF" font-family="'HelveticaNeue'" font-size="14">n</tspan><tspan x="97.999" y="0" fill="#FFFFFF" font-family="'HelveticaNeue'" font-size="14">g</tspan><tspan x="106.006" y="0" fill="#FFFFFF" font-family="'HelveticaNeue'" font-size="14"> </tspan><tspan x="109.017" y="0" fill="#FFFFFF" font-family="'HelveticaNeue'" font-size="14" letter-spacing="-1">Y</tspan><tspan x="117.025" y="0" fill="#FFFFFF" font-family="'HelveticaNeue'" font-size="14">a</tspan><tspan x="125.018" y="0" fill="#FFFFFF" font-family="'HelveticaNeue'" font-size="14">r</tspan><tspan x="130.016" y="0" fill="#FFFFFF" font-family="'HelveticaNeue'" font-size="14">d</tspan><tspan x="138.024" y="0" fill="#FFFFFF" font-family="'HelveticaNeue'" font-size="14">s</tspan></text>
	</g>
</g>
<g>
	<defs>
		<rect id="SVGID_47_" x="519" y="319" width="884" height="442"/>
	</defs>
	<clipPath id="SVGID_48_">
		<use xlink:href="#SVGID_47_"  overflow="visible"/>
	</clipPath>
	
		<rect x="519.5" y="319.5" clip-path="url(#SVGID_48_)" fill="none" stroke="#D9D9D9" stroke-linejoin="round" stroke-miterlimit="10" width="883" height="441"/>
</g>
</svg>
