<?xml version="1.0" encoding="utf-8"?>
<!-- Generator: Adobe Illustrator 16.0.4, SVG Export Plug-In . SVG Version: 6.00 Build 0)  -->
<!DOCTYPE svg PUBLIC "-//W3C//DTD SVG 1.1//EN" "http://www.w3.org/Graphics/SVG/1.1/DTD/svg11.dtd">
<svg version="1.1" id="Layer_1" xmlns="http://www.w3.org/2000/svg" xmlns:xlink="http://www.w3.org/1999/xlink" x="0px" y="0px"
	 width="883px" height="441px" viewBox="519.5 319.5 883 441" enable-background="new 519.5 319.5 883 441" xml:space="preserve">
<g>
	<defs>
		<rect id="SVGID_1_" x="519" y="319" width="884" height="442"/>
	</defs>
	<clipPath id="SVGID_2_">
		<use xlink:href="#SVGID_1_"  overflow="visible"/>
	</clipPath>
	<rect x="519" y="319" opacity="0" clip-path="url(#SVGID_2_)" fill="#FFFFFF" width="884" height="442"/>
	<rect x="520" y="319" clip-path="url(#SVGID_2_)" fill="#70AD47" width="882" height="441"/>
</g>
<g>
	<defs>
		<rect id="SVGID_3_" x="519" y="319" width="883" height="441"/>
	</defs>
	<clipPath id="SVGID_4_">
		<use xlink:href="#SVGID_3_"  overflow="visible"/>
	</clipPath>
	<path clip-path="url(#SVGID_4_)" fill="none" stroke="#D9D9D9" stroke-linejoin="round" stroke-miterlimit="10" d="M1384.5,359.5
		v377 M1294.5,359.5v377 M1205.5,359.5v377 M1116.5,359.5v377 M1027.5,359.5v377 M937.5,359.5v377 M848.5,359.5v377 M759.5,359.5
		v377"/>
</g>
<g>
	<defs>
		<rect id="SVGID_5_" x="669" y="359" width="715" height="378"/>
	</defs>
	<clipPath id="SVGID_6_">
		<use xlink:href="#SVGID_5_"  overflow="visible"/>
	</clipPath>
	<path clip-path="url(#SVGID_6_)" fill="#5B9BD5" d="M1271,411H670v-27h601V411z M1209,486H670v-27h539V486z M1220,562H670v-27h550
		V562z M1201,637H670v-27h531V637z M949,713H670v-27h279V713z"/>
</g>
<g>
	<defs>
		<rect id="SVGID_7_" x="519" y="319" width="883" height="441"/>
	</defs>
	<clipPath id="SVGID_8_">
		<use xlink:href="#SVGID_7_"  overflow="visible"/>
	</clipPath>
	
		<line clip-path="url(#SVGID_8_)" fill="none" stroke="#D9D9D9" stroke-linejoin="round" stroke-miterlimit="10" x1="669.5" y1="736.5" x2="669.5" y2="359.5"/>
</g>
<g>
	<defs>
		<rect id="SVGID_9_" x="519" y="319" width="883" height="441"/>
	</defs>
	<clipPath id="SVGID_10_">
		<use xlink:href="#SVGID_9_"  overflow="visible"/>
	</clipPath>
	<g clip-path="url(#SVGID_10_)">
		<text transform="matrix(1 0 0 1 923.835 702.8232)"><tspan x="0" y="0" fill="#404040" font-family="'HelveticaNeue'" font-size="9">6</tspan><tspan x="5.004" y="0" fill="#404040" font-family="'HelveticaNeue'" font-size="9">.</tspan><tspan x="8.001" y="0" fill="#404040" font-family="'HelveticaNeue'" font-size="9">25</tspan></text>
	</g>
</g>
<g>
	<defs>
		<rect id="SVGID_11_" x="519" y="319" width="883" height="441"/>
	</defs>
	<clipPath id="SVGID_12_">
		<use xlink:href="#SVGID_11_"  overflow="visible"/>
	</clipPath>
	<g clip-path="url(#SVGID_12_)">
		<text transform="matrix(1 0 0 1 1140.9902 627.3809)"><tspan x="0" y="0" fill="#404040" font-family="'HelveticaNeue'" font-size="9">11</tspan><tspan x="10.008" y="0" fill="#404040" font-family="'HelveticaNeue'" font-size="9">.</tspan><tspan x="13.006" y="0" fill="#404040" font-family="'HelveticaNeue'" font-size="9">88636364</tspan></text>
	</g>
</g>
<g>
	<defs>
		<rect id="SVGID_13_" x="519" y="319" width="883" height="441"/>
	</defs>
	<clipPath id="SVGID_14_">
		<use xlink:href="#SVGID_13_"  overflow="visible"/>
	</clipPath>
	<g clip-path="url(#SVGID_14_)">
		<text transform="matrix(1 0 0 1 1160.9482 551.9385)"><tspan x="0" y="0" fill="#404040" font-family="'HelveticaNeue'" font-size="9">12</tspan><tspan x="10.008" y="0" fill="#404040" font-family="'HelveticaNeue'" font-size="9">.</tspan><tspan x="13.005" y="0" fill="#404040" font-family="'HelveticaNeue'" font-size="9">33333333</tspan></text>
	</g>
</g>
<g>
	<defs>
		<rect id="SVGID_15_" x="519" y="319" width="883" height="441"/>
	</defs>
	<clipPath id="SVGID_16_">
		<use xlink:href="#SVGID_15_"  overflow="visible"/>
	</clipPath>
	<g clip-path="url(#SVGID_16_)">
		<text transform="matrix(1 0 0 1 1149.1094 476.4961)"><tspan x="0" y="0" fill="#404040" font-family="'HelveticaNeue'" font-size="9">12</tspan><tspan x="10.008" y="0" fill="#404040" font-family="'HelveticaNeue'" font-size="9">.</tspan><tspan x="13.005" y="0" fill="#404040" font-family="'HelveticaNeue'" font-size="9">06818182</tspan></text>
	</g>
</g>
<g>
	<defs>
		<rect id="SVGID_17_" x="519" y="319" width="883" height="441"/>
	</defs>
	<clipPath id="SVGID_18_">
		<use xlink:href="#SVGID_17_"  overflow="visible"/>
	</clipPath>
	<g clip-path="url(#SVGID_18_)">
		<text transform="matrix(1 0 0 1 1211.3242 401.0537)"><tspan x="0" y="0" fill="#404040" font-family="'HelveticaNeue'" font-size="9">13</tspan><tspan x="10.008" y="0" fill="#404040" font-family="'HelveticaNeue'" font-size="9">.</tspan><tspan x="13.005" y="0" fill="#404040" font-family="'HelveticaNeue'" font-size="9">46153846</tspan></text>
	</g>
</g>
<g>
	<defs>
		<rect id="SVGID_19_" x="519" y="319" width="883" height="441"/>
	</defs>
	<clipPath id="SVGID_20_">
		<use xlink:href="#SVGID_19_"  overflow="visible"/>
	</clipPath>
	<g clip-path="url(#SVGID_20_)">
		<text transform="matrix(1 0 0 1 667.4365 751.625)" fill="#FFFFFF" font-family="'HelveticaNeue'" font-size="9">0</text>
	</g>
</g>
<g>
	<defs>
		<rect id="SVGID_21_" x="519" y="319" width="883" height="441"/>
	</defs>
	<clipPath id="SVGID_22_">
		<use xlink:href="#SVGID_21_"  overflow="visible"/>
	</clipPath>
	<g clip-path="url(#SVGID_22_)">
		<text transform="matrix(1 0 0 1 756.7393 751.625)" fill="#FFFFFF" font-family="'HelveticaNeue'" font-size="9">2</text>
	</g>
</g>
<g>
	<defs>
		<rect id="SVGID_23_" x="519" y="319" width="883" height="441"/>
	</defs>
	<clipPath id="SVGID_24_">
		<use xlink:href="#SVGID_23_"  overflow="visible"/>
	</clipPath>
	<g clip-path="url(#SVGID_24_)">
		<text transform="matrix(1 0 0 1 846.042 751.625)" fill="#FFFFFF" font-family="'HelveticaNeue'" font-size="9">4</text>
	</g>
</g>
<g>
	<defs>
		<rect id="SVGID_25_" x="519" y="319" width="883" height="441"/>
	</defs>
	<clipPath id="SVGID_26_">
		<use xlink:href="#SVGID_25_"  overflow="visible"/>
	</clipPath>
	<g clip-path="url(#SVGID_26_)">
		<text transform="matrix(1 0 0 1 935.3447 751.625)" fill="#FFFFFF" font-family="'HelveticaNeue'" font-size="9">6</text>
	</g>
</g>
<g>
	<defs>
		<rect id="SVGID_27_" x="519" y="319" width="883" height="441"/>
	</defs>
	<clipPath id="SVGID_28_">
		<use xlink:href="#SVGID_27_"  overflow="visible"/>
	</clipPath>
	<g clip-path="url(#SVGID_28_)">
		<text transform="matrix(1 0 0 1 1024.6465 751.625)" fill="#FFFFFF" font-family="'HelveticaNeue'" font-size="9">8</text>
	</g>
</g>
<g>
	<defs>
		<rect id="SVGID_29_" x="519" y="319" width="883" height="441"/>
	</defs>
	<clipPath id="SVGID_30_">
		<use xlink:href="#SVGID_29_"  overflow="visible"/>
	</clipPath>
	<g clip-path="url(#SVGID_30_)">
		<text transform="matrix(1 0 0 1 1110.9473 751.625)" fill="#FFFFFF" font-family="'HelveticaNeue'" font-size="9">10</text>
	</g>
</g>
<g>
	<defs>
		<rect id="SVGID_31_" x="519" y="319" width="883" height="441"/>
	</defs>
	<clipPath id="SVGID_32_">
		<use xlink:href="#SVGID_31_"  overflow="visible"/>
	</clipPath>
	<g clip-path="url(#SVGID_32_)">
		<text transform="matrix(1 0 0 1 1200.25 751.625)" fill="#FFFFFF" font-family="'HelveticaNeue'" font-size="9">12</text>
	</g>
</g>
<g>
	<defs>
		<rect id="SVGID_33_" x="519" y="319" width="883" height="441"/>
	</defs>
	<clipPath id="SVGID_34_">
		<use xlink:href="#SVGID_33_"  overflow="visible"/>
	</clipPath>
	<g clip-path="url(#SVGID_34_)">
		<text transform="matrix(1 0 0 1 1289.5527 751.625)" fill="#FFFFFF" font-family="'HelveticaNeue'" font-size="9">14</text>
	</g>
</g>
<g>
	<defs>
		<rect id="SVGID_35_" x="519" y="319" width="883" height="441"/>
	</defs>
	<clipPath id="SVGID_36_">
		<use xlink:href="#SVGID_35_"  overflow="visible"/>
	</clipPath>
	<g clip-path="url(#SVGID_36_)">
		<text transform="matrix(1 0 0 1 1378.8555 751.625)" fill="#FFFFFF" font-family="'HelveticaNeue'" font-size="9">16</text>
	</g>
</g>
<g>
	<defs>
		<rect id="SVGID_37_" x="519" y="319" width="883" height="441"/>
	</defs>
	<clipPath id="SVGID_38_">
		<use xlink:href="#SVGID_37_"  overflow="visible"/>
	</clipPath>
	<g clip-path="url(#SVGID_38_)">
		<text transform="matrix(1 0 0 1 525.7949 702.8232)"><tspan x="0" y="0" fill="#FFFFFF" font-family="'HelveticaNeue'" font-size="9">2016</tspan><tspan x="20.016" y="0" fill="#FFFFFF" font-family="'HelveticaNeue'" font-size="9"> </tspan><tspan x="23.013" y="0" fill="#FFFFFF" font-family="'HelveticaNeue'" font-size="9">Ga</tspan><tspan x="35.001" y="0" fill="#FFFFFF" font-family="'HelveticaNeue'" font-size="9">m</tspan><tspan x="42.993" y="0" fill="#FFFFFF" font-family="'HelveticaNeue'" font-size="9">e</tspan><tspan x="47.988" y="0" fill="#FFFFFF" font-family="'HelveticaNeue'" font-size="9">s</tspan><tspan x="52.982" y="0" fill="#FFFFFF" font-family="'HelveticaNeue'" font-size="9"> </tspan><tspan x="54.99" y="0" fill="#FFFFFF" font-family="'HelveticaNeue'" font-size="9">P</tspan><tspan x="60.983" y="0" fill="#FFFFFF" font-family="'HelveticaNeue'" font-size="9">l</tspan><tspan x="62.981" y="0" fill="#FFFFFF" font-family="'HelveticaNeue'" font-size="9">a</tspan><tspan x="67.977" y="0" fill="#FFFFFF" font-family="'HelveticaNeue'" font-size="9">y</tspan><tspan x="72.971" y="0" fill="#FFFFFF" font-family="'HelveticaNeue'" font-size="9">e</tspan><tspan x="77.966" y="0" fill="#FFFFFF" font-family="'HelveticaNeue'" font-size="9">d</tspan><tspan x="82.97" y="0" fill="#FFFFFF" font-family="'HelveticaNeue'" font-size="9"> </tspan><tspan x="84.977" y="0" fill="#FFFFFF" font-family="'HelveticaNeue'" font-size="9">(</tspan><tspan x="86.984" y="0" fill="#FFFFFF" font-family="'HelveticaNeue'" font-size="9">t</tspan><tspan x="89.981" y="0" fill="#FFFFFF" font-family="'HelveticaNeue'" font-size="9">hru</tspan><tspan x="102.986" y="0" fill="#FFFFFF" font-family="'HelveticaNeue'" font-size="9"> </tspan><tspan x="104.993" y="0" fill="#FFFFFF" font-family="'HelveticaNeue'" font-size="9">w</tspan><tspan x="111.986" y="0" fill="#FFFFFF" font-family="'HelveticaNeue'" font-size="9">ee</tspan><tspan x="121.976" y="0" fill="#FFFFFF" font-family="'HelveticaNeue'" font-size="9">k</tspan><tspan x="126.971" y="0" fill="#FFFFFF" font-family="'HelveticaNeue'" font-size="9"> </tspan><tspan x="128.978" y="0" fill="#FFFFFF" font-family="'HelveticaNeue'" font-size="9">7)</tspan></text>
	</g>
</g>
<g>
	<defs>
		<rect id="SVGID_39_" x="519" y="319" width="883" height="441"/>
	</defs>
	<clipPath id="SVGID_40_">
		<use xlink:href="#SVGID_39_"  overflow="visible"/>
	</clipPath>
	<g clip-path="url(#SVGID_40_)">
		<text transform="matrix(1 0 0 1 579.8799 627.3809)"><tspan x="0" y="0" fill="#FFFFFF" font-family="'HelveticaNeue'" font-size="9">2015</tspan><tspan x="20.016" y="0" fill="#FFFFFF" font-family="'HelveticaNeue'" font-size="9"> </tspan><tspan x="23.013" y="0" fill="#FFFFFF" font-family="'HelveticaNeue'" font-size="9">Ga</tspan><tspan x="35.001" y="0" fill="#FFFFFF" font-family="'HelveticaNeue'" font-size="9">m</tspan><tspan x="42.993" y="0" fill="#FFFFFF" font-family="'HelveticaNeue'" font-size="9">e</tspan><tspan x="47.988" y="0" fill="#FFFFFF" font-family="'HelveticaNeue'" font-size="9">s</tspan><tspan x="52.982" y="0" fill="#FFFFFF" font-family="'HelveticaNeue'" font-size="9"> </tspan><tspan x="54.99" y="0" fill="#FFFFFF" font-family="'HelveticaNeue'" font-size="9">P</tspan><tspan x="60.983" y="0" fill="#FFFFFF" font-family="'HelveticaNeue'" font-size="9">l</tspan><tspan x="62.981" y="0" fill="#FFFFFF" font-family="'HelveticaNeue'" font-size="9">a</tspan><tspan x="67.977" y="0" fill="#FFFFFF" font-family="'HelveticaNeue'" font-size="9">y</tspan><tspan x="72.971" y="0" fill="#FFFFFF" font-family="'HelveticaNeue'" font-size="9">e</tspan><tspan x="77.966" y="0" fill="#FFFFFF" font-family="'HelveticaNeue'" font-size="9">d</tspan></text>
	</g>
</g>
<g>
	<defs>
		<rect id="SVGID_41_" x="519" y="319" width="883" height="441"/>
	</defs>
	<clipPath id="SVGID_42_">
		<use xlink:href="#SVGID_41_"  overflow="visible"/>
	</clipPath>
	<g clip-path="url(#SVGID_42_)">
		<text transform="matrix(1 0 0 1 579.8799 551.9385)"><tspan x="0" y="0" fill="#FFFFFF" font-family="'HelveticaNeue'" font-size="9">2014</tspan><tspan x="20.016" y="0" fill="#FFFFFF" font-family="'HelveticaNeue'" font-size="9"> </tspan><tspan x="23.013" y="0" fill="#FFFFFF" font-family="'HelveticaNeue'" font-size="9">Ga</tspan><tspan x="35.001" y="0" fill="#FFFFFF" font-family="'HelveticaNeue'" font-size="9">m</tspan><tspan x="42.993" y="0" fill="#FFFFFF" font-family="'HelveticaNeue'" font-size="9">e</tspan><tspan x="47.988" y="0" fill="#FFFFFF" font-family="'HelveticaNeue'" font-size="9">s</tspan><tspan x="52.982" y="0" fill="#FFFFFF" font-family="'HelveticaNeue'" font-size="9"> </tspan><tspan x="54.99" y="0" fill="#FFFFFF" font-family="'HelveticaNeue'" font-size="9">P</tspan><tspan x="60.983" y="0" fill="#FFFFFF" font-family="'HelveticaNeue'" font-size="9">l</tspan><tspan x="62.981" y="0" fill="#FFFFFF" font-family="'HelveticaNeue'" font-size="9">a</tspan><tspan x="67.977" y="0" fill="#FFFFFF" font-family="'HelveticaNeue'" font-size="9">y</tspan><tspan x="72.971" y="0" fill="#FFFFFF" font-family="'HelveticaNeue'" font-size="9">e</tspan><tspan x="77.966" y="0" fill="#FFFFFF" font-family="'HelveticaNeue'" font-size="9">d</tspan></text>
	</g>
</g>
<g>
	<defs>
		<rect id="SVGID_43_" x="519" y="319" width="883" height="441"/>
	</defs>
	<clipPath id="SVGID_44_">
		<use xlink:href="#SVGID_43_"  overflow="visible"/>
	</clipPath>
	<g clip-path="url(#SVGID_44_)">
		<text transform="matrix(1 0 0 1 579.8799 476.4961)"><tspan x="0" y="0" fill="#FFFFFF" font-family="'HelveticaNeue'" font-size="9">2013</tspan><tspan x="20.016" y="0" fill="#FFFFFF" font-family="'HelveticaNeue'" font-size="9"> </tspan><tspan x="23.013" y="0" fill="#FFFFFF" font-family="'HelveticaNeue'" font-size="9">Ga</tspan><tspan x="35.001" y="0" fill="#FFFFFF" font-family="'HelveticaNeue'" font-size="9">m</tspan><tspan x="42.993" y="0" fill="#FFFFFF" font-family="'HelveticaNeue'" font-size="9">e</tspan><tspan x="47.988" y="0" fill="#FFFFFF" font-family="'HelveticaNeue'" font-size="9">s</tspan><tspan x="52.982" y="0" fill="#FFFFFF" font-family="'HelveticaNeue'" font-size="9"> </tspan><tspan x="54.99" y="0" fill="#FFFFFF" font-family="'HelveticaNeue'" font-size="9">P</tspan><tspan x="60.983" y="0" fill="#FFFFFF" font-family="'HelveticaNeue'" font-size="9">l</tspan><tspan x="62.981" y="0" fill="#FFFFFF" font-family="'HelveticaNeue'" font-size="9">a</tspan><tspan x="67.977" y="0" fill="#FFFFFF" font-family="'HelveticaNeue'" font-size="9">y</tspan><tspan x="72.971" y="0" fill="#FFFFFF" font-family="'HelveticaNeue'" font-size="9">e</tspan><tspan x="77.966" y="0" fill="#FFFFFF" font-family="'HelveticaNeue'" font-size="9">d</tspan></text>
	</g>
</g>
<g>
	<defs>
		<rect id="SVGID_45_" x="519" y="319" width="883" height="441"/>
	</defs>
	<clipPath id="SVGID_46_">
		<use xlink:href="#SVGID_45_"  overflow="visible"/>
	</clipPath>
	<g clip-path="url(#SVGID_46_)">
		<text transform="matrix(1 0 0 1 579.8799 401.0537)"><tspan x="0" y="0" fill="#FFFFFF" font-family="'HelveticaNeue'" font-size="9">2012</tspan><tspan x="20.016" y="0" fill="#FFFFFF" font-family="'HelveticaNeue'" font-size="9"> </tspan><tspan x="23.013" y="0" fill="#FFFFFF" font-family="'HelveticaNeue'" font-size="9">Ga</tspan><tspan x="35.001" y="0" fill="#FFFFFF" font-family="'HelveticaNeue'" font-size="9">m</tspan><tspan x="42.993" y="0" fill="#FFFFFF" font-family="'HelveticaNeue'" font-size="9">e</tspan><tspan x="47.988" y="0" fill="#FFFFFF" font-family="'HelveticaNeue'" font-size="9">s</tspan><tspan x="52.982" y="0" fill="#FFFFFF" font-family="'HelveticaNeue'" font-size="9"> </tspan><tspan x="54.99" y="0" fill="#FFFFFF" font-family="'HelveticaNeue'" font-size="9">P</tspan><tspan x="60.983" y="0" fill="#FFFFFF" font-family="'HelveticaNeue'" font-size="9">l</tspan><tspan x="62.981" y="0" fill="#FFFFFF" font-family="'HelveticaNeue'" font-size="9">a</tspan><tspan x="67.977" y="0" fill="#FFFFFF" font-family="'HelveticaNeue'" font-size="9">y</tspan><tspan x="72.971" y="0" fill="#FFFFFF" font-family="'HelveticaNeue'" font-size="9">e</tspan><tspan x="77.966" y="0" fill="#FFFFFF" font-family="'HelveticaNeue'" font-size="9">d</tspan></text>
	</g>
</g>
<g>
	<defs>
		<rect id="SVGID_47_" x="519" y="319" width="883" height="441"/>
	</defs>
	<clipPath id="SVGID_48_">
		<use xlink:href="#SVGID_47_"  overflow="visible"/>
	</clipPath>
	<g clip-path="url(#SVGID_48_)">
		<text transform="matrix(1 0 0 1 908.6963 346.9336)"><tspan x="0" y="0" fill="#FFFFFF" font-family="'HelveticaNeue'" font-size="14">A</tspan><tspan x="9.002" y="0" fill="#FFFFFF" font-family="'HelveticaNeue'" font-size="14">v</tspan><tspan x="16.002" y="0" fill="#FFFFFF" font-family="'HelveticaNeue'" font-size="14">e</tspan><tspan x="23.996" y="0" fill="#FFFFFF" font-family="'HelveticaNeue'" font-size="14">r</tspan><tspan x="28.994" y="0" fill="#FFFFFF" font-family="'HelveticaNeue'" font-size="14">a</tspan><tspan x="36.987" y="0" fill="#FFFFFF" font-family="'HelveticaNeue'" font-size="14">g</tspan><tspan x="44.995" y="0" fill="#FFFFFF" font-family="'HelveticaNeue'" font-size="14">e</tspan><tspan x="52.989" y="0" fill="#FFFFFF" font-family="'HelveticaNeue'" font-size="14"> </tspan><tspan x="55.999" y="0" fill="#FFFFFF" font-family="'HelveticaNeue'" font-size="14">G</tspan><tspan x="66.989" y="0" fill="#FFFFFF" font-family="'HelveticaNeue'" font-size="14">a</tspan><tspan x="74.983" y="0" fill="#FFFFFF" font-family="'HelveticaNeue'" font-size="14">m</tspan><tspan x="86.981" y="0" fill="#FFFFFF" font-family="'HelveticaNeue'" font-size="14">e</tspan><tspan x="94.975" y="0" fill="#FFFFFF" font-family="'HelveticaNeue'" font-size="14">s</tspan><tspan x="101.975" y="0" fill="#FFFFFF" font-family="'HelveticaNeue'" font-size="14"> </tspan><tspan x="104.984" y="0" fill="#FFFFFF" font-family="'HelveticaNeue'" font-size="14">P</tspan><tspan x="113.986" y="0" fill="#FFFFFF" font-family="'HelveticaNeue'" font-size="14">l</tspan><tspan x="116.996" y="0" fill="#FFFFFF" font-family="'HelveticaNeue'" font-size="14">a</tspan><tspan x="124.99" y="0" fill="#FFFFFF" font-family="'HelveticaNeue'" font-size="14">y</tspan><tspan x="131.99" y="0" fill="#FFFFFF" font-family="'HelveticaNeue'" font-size="14">e</tspan><tspan x="139.983" y="0" fill="#FFFFFF" font-family="'HelveticaNeue'" font-size="14">d</tspan></text>
	</g>
</g>
<g>
	<defs>
		<rect id="SVGID_49_" x="519" y="319" width="884" height="442"/>
	</defs>
	<clipPath id="SVGID_50_">
		<use xlink:href="#SVGID_49_"  overflow="visible"/>
	</clipPath>
	
		<rect x="519.5" y="319.5" clip-path="url(#SVGID_50_)" fill="none" stroke="#D9D9D9" stroke-linejoin="round" stroke-miterlimit="10" width="883" height="441"/>
</g>
</svg>
