<?xml version="1.0" encoding="utf-8"?>
<!-- Generator: Adobe Illustrator 16.0.4, SVG Export Plug-In . SVG Version: 6.00 Build 0)  -->
<!DOCTYPE svg PUBLIC "-//W3C//DTD SVG 1.1//EN" "http://www.w3.org/Graphics/SVG/1.1/DTD/svg11.dtd">
<svg version="1.1" id="Layer_1" xmlns="http://www.w3.org/2000/svg" xmlns:xlink="http://www.w3.org/1999/xlink" x="0px" y="0px"
	 width="882px" height="454px" viewBox="519.5 313.5 882 454" enable-background="new 519.5 313.5 882 454" xml:space="preserve">
<g>
	<defs>
		<rect id="SVGID_1_" x="519" y="313" width="883" height="455"/>
	</defs>
	<clipPath id="SVGID_2_">
		<use xlink:href="#SVGID_1_"  overflow="visible"/>
	</clipPath>
	<rect x="519" y="313" opacity="0" clip-path="url(#SVGID_2_)" fill="#FFFFFF" width="883" height="455"/>
	<rect x="520" y="314" clip-path="url(#SVGID_2_)" fill="#70AD47" width="882" height="454"/>
	<path clip-path="url(#SVGID_2_)" fill="none" stroke="#D9D9D9" stroke-linejoin="round" stroke-miterlimit="10" d="M544.5,354.5
		h845 M544.5,419.5h845 M544.5,484.5h845 M544.5,549.5h845 M544.5,614.5h845 M544.5,679.5h845"/>
</g>
<g>
	<defs>
		<rect id="SVGID_3_" x="544" y="354" width="845" height="391"/>
	</defs>
	<clipPath id="SVGID_4_">
		<use xlink:href="#SVGID_3_"  overflow="visible"/>
	</clipPath>
	<path clip-path="url(#SVGID_4_)" fill="#5B9BD5" d="M1204,403h88v342h-88V403z M923,495h88v250h-88V495z M641,611h88v134h-88V611z"
		/>
</g>
<g>
	<defs>
		<rect id="SVGID_5_" x="519" y="313" width="883" height="455"/>
	</defs>
	<clipPath id="SVGID_6_">
		<use xlink:href="#SVGID_5_"  overflow="visible"/>
	</clipPath>
	
		<line clip-path="url(#SVGID_6_)" fill="none" stroke="#D9D9D9" stroke-linejoin="round" stroke-miterlimit="10" x1="544.5" y1="744.5" x2="1389.5" y2="744.5"/>
	<g clip-path="url(#SVGID_6_)">
		<text transform="matrix(1 0 0 1 659.0908 603.7549)"><tspan x="0" y="0" fill="#FFFFFF" font-family="'HelveticaNeue'" font-size="9">71</tspan><tspan x="10.008" y="0" fill="#FFFFFF" font-family="'HelveticaNeue'" font-size="9">.</tspan><tspan x="13.005" y="0" fill="#FFFFFF" font-family="'HelveticaNeue'" font-size="9">05294118</tspan></text>
	</g>
	<g clip-path="url(#SVGID_6_)">
		<text transform="matrix(1 0 0 1 940.5547 487.9258)"><tspan x="0" y="0" fill="#FFFFFF" font-family="'HelveticaNeue'" font-size="9">72</tspan><tspan x="10.008" y="0" fill="#FFFFFF" font-family="'HelveticaNeue'" font-size="9">.</tspan><tspan x="13.005" y="0" fill="#FFFFFF" font-family="'HelveticaNeue'" font-size="9">83333333</tspan></text>
	</g>
	<g clip-path="url(#SVGID_6_)">
		<text transform="matrix(1 0 0 1 1222.0176 395.9756)"><tspan x="0" y="0" fill="#FFFFFF" font-family="'HelveticaNeue'" font-size="9">74</tspan><tspan x="10.008" y="0" fill="#FFFFFF" font-family="'HelveticaNeue'" font-size="9">.</tspan><tspan x="13.006" y="0" fill="#FFFFFF" font-family="'HelveticaNeue'" font-size="9">24666667</tspan></text>
	</g>
	<g clip-path="url(#SVGID_6_)">
		<text transform="matrix(1 0 0 1 526.2549 748.1846)" fill="#FFFFFF" font-family="'HelveticaNeue'" font-size="9">69</text>
	</g>
	<g clip-path="url(#SVGID_6_)">
		<text transform="matrix(1 0 0 1 526.2549 683.126)" fill="#FFFFFF" font-family="'HelveticaNeue'" font-size="9">70</text>
	</g>
	<g clip-path="url(#SVGID_6_)">
		<text transform="matrix(1 0 0 1 526.2549 618.0674)" fill="#FFFFFF" font-family="'HelveticaNeue'" font-size="9">71</text>
	</g>
	<g clip-path="url(#SVGID_6_)">
		<text transform="matrix(1 0 0 1 526.2549 553.0088)" fill="#FFFFFF" font-family="'HelveticaNeue'" font-size="9">72</text>
	</g>
	<g clip-path="url(#SVGID_6_)">
		<text transform="matrix(1 0 0 1 526.2549 487.9502)" fill="#FFFFFF" font-family="'HelveticaNeue'" font-size="9">73</text>
	</g>
	<g clip-path="url(#SVGID_6_)">
		<text transform="matrix(1 0 0 1 526.2549 422.8906)" fill="#FFFFFF" font-family="'HelveticaNeue'" font-size="9">74</text>
	</g>
	<g clip-path="url(#SVGID_6_)">
		<text transform="matrix(1 0 0 1 526.2549 357.833)" fill="#FFFFFF" font-family="'HelveticaNeue'" font-size="9">75</text>
	</g>
	<g clip-path="url(#SVGID_6_)">
		<text transform="matrix(1 0 0 1 611.6084 759.2646)"><tspan x="0" y="0" fill="#FFFFFF" font-family="'HelveticaNeue'" font-size="9">2016</tspan><tspan x="20.016" y="0" fill="#FFFFFF" font-family="'HelveticaNeue'" font-size="9"> </tspan><tspan x="23.013" y="0" fill="#FFFFFF" font-family="'HelveticaNeue'" font-size="9">O</tspan><tspan x="30.006" y="0" fill="#FFFFFF" font-family="'HelveticaNeue'" font-size="9">v</tspan><tspan x="35.001" y="0" fill="#FFFFFF" font-family="'HelveticaNeue'" font-size="9">e</tspan><tspan x="39.996" y="0" fill="#FFFFFF" font-family="'HelveticaNeue'" font-size="9">r</tspan><tspan x="42.993" y="0" fill="#FFFFFF" font-family="'HelveticaNeue'" font-size="9">a</tspan><tspan x="47.988" y="0" fill="#FFFFFF" font-family="'HelveticaNeue'" font-size="9">ll</tspan><tspan x="51.983" y="0" fill="#FFFFFF" font-family="'HelveticaNeue'" font-size="9"> </tspan><tspan x="53.99" y="0" fill="#FFFFFF" font-family="'HelveticaNeue'" font-size="9">G</tspan><tspan x="60.983" y="0" fill="#FFFFFF" font-family="'HelveticaNeue'" font-size="9">r</tspan><tspan x="63.98" y="0" fill="#FFFFFF" font-family="'HelveticaNeue'" font-size="9">a</tspan><tspan x="68.975" y="0" fill="#FFFFFF" font-family="'HelveticaNeue'" font-size="9">d</tspan><tspan x="73.979" y="0" fill="#FFFFFF" font-family="'HelveticaNeue'" font-size="9">e</tspan><tspan x="78.974" y="0" fill="#FFFFFF" font-family="'HelveticaNeue'" font-size="9"> </tspan><tspan x="80.981" y="0" fill="#FFFFFF" font-family="'HelveticaNeue'" font-size="9">(</tspan><tspan x="82.988" y="0" fill="#FFFFFF" font-family="'HelveticaNeue'" font-size="9">t</tspan><tspan x="85.984" y="0" fill="#FFFFFF" font-family="'HelveticaNeue'" font-size="9">hr</tspan><tspan x="93.985" y="0" fill="#FFFFFF" font-family="'HelveticaNeue'" font-size="9">o</tspan><tspan x="98.989" y="0" fill="#FFFFFF" font-family="'HelveticaNeue'" font-size="9">u</tspan><tspan x="103.994" y="0" fill="#FFFFFF" font-family="'HelveticaNeue'" font-size="9">g</tspan><tspan x="108.998" y="0" fill="#FFFFFF" font-family="'HelveticaNeue'" font-size="9">h</tspan><tspan x="114.001" y="0" fill="#FFFFFF" font-family="'HelveticaNeue'" font-size="9"> </tspan><tspan x="116.008" y="0" fill="#FFFFFF" font-family="'HelveticaNeue'" font-size="9">w</tspan><tspan x="123.001" y="0" fill="#FFFFFF" font-family="'HelveticaNeue'" font-size="9">ee</tspan><tspan x="132.991" y="0" fill="#FFFFFF" font-family="'HelveticaNeue'" font-size="9">k</tspan><tspan x="137.986" y="0" fill="#FFFFFF" font-family="'HelveticaNeue'" font-size="9"> </tspan><tspan x="139.993" y="0" fill="#FFFFFF" font-family="'HelveticaNeue'" font-size="9">7)</tspan></text>
	</g>
	<g clip-path="url(#SVGID_6_)">
		<text transform="matrix(1 0 0 1 927.0723 759.2646)"><tspan x="0" y="0" fill="#FFFFFF" font-family="'HelveticaNeue'" font-size="9">2015</tspan><tspan x="20.016" y="0" fill="#FFFFFF" font-family="'HelveticaNeue'" font-size="9"> </tspan><tspan x="23.013" y="0" fill="#FFFFFF" font-family="'HelveticaNeue'" font-size="9">O</tspan><tspan x="30.006" y="0" fill="#FFFFFF" font-family="'HelveticaNeue'" font-size="9">v</tspan><tspan x="35.001" y="0" fill="#FFFFFF" font-family="'HelveticaNeue'" font-size="9">e</tspan><tspan x="39.996" y="0" fill="#FFFFFF" font-family="'HelveticaNeue'" font-size="9">r</tspan><tspan x="42.992" y="0" fill="#FFFFFF" font-family="'HelveticaNeue'" font-size="9">a</tspan><tspan x="47.988" y="0" fill="#FFFFFF" font-family="'HelveticaNeue'" font-size="9">ll</tspan><tspan x="51.983" y="0" fill="#FFFFFF" font-family="'HelveticaNeue'" font-size="9"> </tspan><tspan x="53.99" y="0" fill="#FFFFFF" font-family="'HelveticaNeue'" font-size="9">G</tspan><tspan x="60.983" y="0" fill="#FFFFFF" font-family="'HelveticaNeue'" font-size="9">r</tspan><tspan x="63.98" y="0" fill="#FFFFFF" font-family="'HelveticaNeue'" font-size="9">a</tspan><tspan x="68.975" y="0" fill="#FFFFFF" font-family="'HelveticaNeue'" font-size="9">d</tspan><tspan x="73.979" y="0" fill="#FFFFFF" font-family="'HelveticaNeue'" font-size="9">e</tspan></text>
	</g>
	<g clip-path="url(#SVGID_6_)">
		<text transform="matrix(1 0 0 1 1208.5352 759.2646)"><tspan x="0" y="0" fill="#FFFFFF" font-family="'HelveticaNeue'" font-size="9">2014</tspan><tspan x="20.017" y="0" fill="#FFFFFF" font-family="'HelveticaNeue'" font-size="9"> </tspan><tspan x="23.014" y="0" fill="#FFFFFF" font-family="'HelveticaNeue'" font-size="9">O</tspan><tspan x="30.006" y="0" fill="#FFFFFF" font-family="'HelveticaNeue'" font-size="9">v</tspan><tspan x="35.002" y="0" fill="#FFFFFF" font-family="'HelveticaNeue'" font-size="9">e</tspan><tspan x="39.996" y="0" fill="#FFFFFF" font-family="'HelveticaNeue'" font-size="9">r</tspan><tspan x="42.993" y="0" fill="#FFFFFF" font-family="'HelveticaNeue'" font-size="9">a</tspan><tspan x="47.988" y="0" fill="#FFFFFF" font-family="'HelveticaNeue'" font-size="9">ll</tspan><tspan x="51.984" y="0" fill="#FFFFFF" font-family="'HelveticaNeue'" font-size="9"> </tspan><tspan x="53.99" y="0" fill="#FFFFFF" font-family="'HelveticaNeue'" font-size="9">G</tspan><tspan x="60.984" y="0" fill="#FFFFFF" font-family="'HelveticaNeue'" font-size="9">r</tspan><tspan x="63.98" y="0" fill="#FFFFFF" font-family="'HelveticaNeue'" font-size="9">a</tspan><tspan x="68.976" y="0" fill="#FFFFFF" font-family="'HelveticaNeue'" font-size="9">d</tspan><tspan x="73.979" y="0" fill="#FFFFFF" font-family="'HelveticaNeue'" font-size="9">e</tspan></text>
	</g>
	<g clip-path="url(#SVGID_6_)">
		<text transform="matrix(1 0 0 1 894.75 337)"><tspan x="0" y="0" fill="#FFFFFF" font-family="'HelveticaNeue'" font-size="14">A</tspan><tspan x="9.002" y="0" fill="#FFFFFF" font-family="'HelveticaNeue'" font-size="14">v</tspan><tspan x="16.002" y="0" fill="#FFFFFF" font-family="'HelveticaNeue'" font-size="14">e</tspan><tspan x="23.996" y="0" fill="#FFFFFF" font-family="'HelveticaNeue'" font-size="14">r</tspan><tspan x="28.994" y="0" fill="#FFFFFF" font-family="'HelveticaNeue'" font-size="14">a</tspan><tspan x="36.987" y="0" fill="#FFFFFF" font-family="'HelveticaNeue'" font-size="14">g</tspan><tspan x="44.995" y="0" fill="#FFFFFF" font-family="'HelveticaNeue'" font-size="14">e</tspan><tspan x="52.989" y="0" fill="#FFFFFF" font-family="'HelveticaNeue'" font-size="14"> </tspan><tspan x="55.999" y="0" fill="#FFFFFF" font-family="'HelveticaNeue'" font-size="14">P</tspan><tspan x="65.001" y="0" fill="#FFFFFF" font-family="'HelveticaNeue'" font-size="14">FF</tspan><tspan x="81.017" y="0" fill="#FFFFFF" font-family="'HelveticaNeue'" font-size="14"> </tspan><tspan x="84.027" y="0" fill="#FFFFFF" font-family="'HelveticaNeue'" font-size="14">G</tspan><tspan x="95.017" y="0" fill="#FFFFFF" font-family="'HelveticaNeue'" font-size="14">r</tspan><tspan x="100.015" y="0" fill="#FFFFFF" font-family="'HelveticaNeue'" font-size="14">a</tspan><tspan x="108.008" y="0" fill="#FFFFFF" font-family="'HelveticaNeue'" font-size="14">d</tspan><tspan x="116.016" y="0" fill="#FFFFFF" font-family="'HelveticaNeue'" font-size="14">e</tspan><tspan x="124.01" y="0" fill="#FFFFFF" font-family="'HelveticaNeue'" font-size="14">s</tspan></text>
	</g>
	
		<rect x="519.5" y="313.5" clip-path="url(#SVGID_6_)" fill="none" stroke="#D9D9D9" stroke-linejoin="round" stroke-miterlimit="10" width="882" height="454"/>
</g>
</svg>
