<?xml version="1.0" encoding="utf-8"?>
<!-- Generator: Adobe Illustrator 16.0.4, SVG Export Plug-In . SVG Version: 6.00 Build 0)  -->
<!DOCTYPE svg PUBLIC "-//W3C//DTD SVG 1.1//EN" "http://www.w3.org/Graphics/SVG/1.1/DTD/svg11.dtd">
<svg version="1.1" id="Layer_1" xmlns="http://www.w3.org/2000/svg" xmlns:xlink="http://www.w3.org/1999/xlink" x="0px" y="0px"
	 width="883.5px" height="441.5px" viewBox="519.5 319.5 883.5 441.5" enable-background="new 519.5 319.5 883.5 441.5"
	 xml:space="preserve">
<g>
	<defs>
		<rect id="SVGID_1_" x="519" y="319" width="884" height="442"/>
	</defs>
	<clipPath id="SVGID_2_">
		<use xlink:href="#SVGID_1_"  overflow="visible"/>
	</clipPath>
	<rect x="519" y="319" opacity="0" clip-path="url(#SVGID_2_)" fill="#FFFFFF" width="884" height="442"/>
	<rect x="520" y="320" clip-path="url(#SVGID_2_)" fill="#70AD47" width="882" height="441"/>
</g>
<g>
	<defs>
		<rect id="SVGID_3_" x="519" y="319" width="883" height="441"/>
	</defs>
	<clipPath id="SVGID_4_">
		<use xlink:href="#SVGID_3_"  overflow="visible"/>
	</clipPath>
	<path clip-path="url(#SVGID_4_)" fill="none" stroke="#D9D9D9" stroke-linejoin="round" stroke-miterlimit="10" d="M1389.5,363.5
		v376 M1217.5,363.5v376 M1046.5,363.5v376 M875.5,363.5v376 M703.5,363.5v376 M532.5,363.5v376"/>
</g>
<g>
	<defs>
		<rect id="SVGID_5_" x="532" y="363" width="857" height="376"/>
	</defs>
	<clipPath id="SVGID_6_">
		<use xlink:href="#SVGID_5_"  overflow="visible"/>
	</clipPath>
	<path clip-path="url(#SVGID_6_)" fill="#5B9BD5" d="M1288,384h31v355h-31V384z M1116,403h32v336h-32V403z M945,393h32v346h-32V393z
		 M774,393h31v346h-31V393z M602,563h32v176h-32V563z"/>
</g>
<g>
	<defs>
		<rect id="SVGID_7_" x="519" y="319" width="883" height="441"/>
	</defs>
	<clipPath id="SVGID_8_">
		<use xlink:href="#SVGID_7_"  overflow="visible"/>
	</clipPath>
	
		<line clip-path="url(#SVGID_8_)" fill="none" stroke="#D9D9D9" stroke-linejoin="round" stroke-miterlimit="10" x1="532.5" y1="739.5" x2="1389.5" y2="739.5"/>
</g>
<g>
	<defs>
		<rect id="SVGID_9_" x="519" y="319" width="883" height="441"/>
	</defs>
	<clipPath id="SVGID_10_">
		<use xlink:href="#SVGID_9_"  overflow="visible"/>
	</clipPath>
	<rect x="598.5" y="545.5" clip-path="url(#SVGID_10_)" fill="#FFFFFF" width="39" height="14"/>
	
		<rect x="598.5" y="545.5" clip-path="url(#SVGID_10_)" fill="none" stroke="#BFBFBF" stroke-linejoin="round" stroke-miterlimit="10" width="39" height="14"/>
</g>
<g>
	<defs>
		<rect id="SVGID_11_" x="519" y="319" width="883" height="441"/>
	</defs>
	<clipPath id="SVGID_12_">
		<use xlink:href="#SVGID_11_"  overflow="visible"/>
	</clipPath>
	<g clip-path="url(#SVGID_12_)">
		<text transform="matrix(1 0 0 1 601.9019 556.2461)"><tspan x="0" y="0" fill="#595959" font-family="'HelveticaNeue'" font-size="9">9</tspan><tspan x="5.004" y="0" fill="#595959" font-family="'HelveticaNeue'" font-size="9">.</tspan><tspan x="8.001" y="0" fill="#595959" font-family="'HelveticaNeue'" font-size="9">34375</tspan></text>
	</g>
</g>
<g>
	<defs>
		<rect id="SVGID_13_" x="519" y="319" width="883" height="441"/>
	</defs>
	<clipPath id="SVGID_14_">
		<use xlink:href="#SVGID_13_"  overflow="visible"/>
	</clipPath>
	<rect x="760.5" y="375.5" clip-path="url(#SVGID_14_)" fill="#FFFFFF" width="58" height="13"/>
	
		<rect x="760.5" y="375.5" clip-path="url(#SVGID_14_)" fill="none" stroke="#BFBFBF" stroke-linejoin="round" stroke-miterlimit="10" width="58" height="13"/>
</g>
<g>
	<defs>
		<rect id="SVGID_15_" x="519" y="319" width="883" height="441"/>
	</defs>
	<clipPath id="SVGID_16_">
		<use xlink:href="#SVGID_15_"  overflow="visible"/>
	</clipPath>
	<g clip-path="url(#SVGID_16_)">
		<text transform="matrix(1 0 0 1 763.2461 385.7256)"><tspan x="0" y="0" fill="#595959" font-family="'HelveticaNeue'" font-size="9">18</tspan><tspan x="10.008" y="0" fill="#595959" font-family="'HelveticaNeue'" font-size="9">.</tspan><tspan x="13.005" y="0" fill="#595959" font-family="'HelveticaNeue'" font-size="9">40909091</tspan></text>
	</g>
</g>
<g>
	<defs>
		<rect id="SVGID_17_" x="519" y="319" width="883" height="441"/>
	</defs>
	<clipPath id="SVGID_18_">
		<use xlink:href="#SVGID_17_"  overflow="visible"/>
	</clipPath>
	<rect x="931.5" y="374.5" clip-path="url(#SVGID_18_)" fill="#FFFFFF" width="59" height="14"/>
	
		<rect x="931.5" y="374.5" clip-path="url(#SVGID_18_)" fill="none" stroke="#BFBFBF" stroke-linejoin="round" stroke-miterlimit="10" width="59" height="14"/>
</g>
<g>
	<defs>
		<rect id="SVGID_19_" x="519" y="319" width="883" height="441"/>
	</defs>
	<clipPath id="SVGID_20_">
		<use xlink:href="#SVGID_19_"  overflow="visible"/>
	</clipPath>
	<g clip-path="url(#SVGID_20_)">
		<text transform="matrix(1 0 0 1 934.5898 385.3594)"><tspan x="0" y="0" fill="#595959" font-family="'HelveticaNeue'" font-size="9">18</tspan><tspan x="10.008" y="0" fill="#595959" font-family="'HelveticaNeue'" font-size="9">.</tspan><tspan x="13.005" y="0" fill="#595959" font-family="'HelveticaNeue'" font-size="9">42857143</tspan></text>
	</g>
</g>
<g>
	<defs>
		<rect id="SVGID_21_" x="519" y="319" width="883" height="441"/>
	</defs>
	<clipPath id="SVGID_22_">
		<use xlink:href="#SVGID_21_"  overflow="visible"/>
	</clipPath>
	<rect x="1102.5" y="385.5" clip-path="url(#SVGID_22_)" fill="#FFFFFF" width="59" height="14"/>
	
		<rect x="1102.5" y="385.5" clip-path="url(#SVGID_22_)" fill="none" stroke="#BFBFBF" stroke-linejoin="round" stroke-miterlimit="10" width="59" height="14"/>
</g>
<g>
	<defs>
		<rect id="SVGID_23_" x="519" y="319" width="883" height="441"/>
	</defs>
	<clipPath id="SVGID_24_">
		<use xlink:href="#SVGID_23_"  overflow="visible"/>
	</clipPath>
	<g clip-path="url(#SVGID_24_)">
		<text transform="matrix(1 0 0 1 1105.9336 395.9854)"><tspan x="0" y="0" fill="#595959" font-family="'HelveticaNeue'" font-size="9">17</tspan><tspan x="10.008" y="0" fill="#595959" font-family="'HelveticaNeue'" font-size="9">.</tspan><tspan x="13.006" y="0" fill="#595959" font-family="'HelveticaNeue'" font-size="9">86363636</tspan></text>
	</g>
</g>
<g>
	<defs>
		<rect id="SVGID_25_" x="519" y="319" width="883" height="441"/>
	</defs>
	<clipPath id="SVGID_26_">
		<use xlink:href="#SVGID_25_"  overflow="visible"/>
	</clipPath>
	<rect x="1274.5" y="366.5" clip-path="url(#SVGID_26_)" fill="#FFFFFF" width="58" height="14"/>
	
		<rect x="1274.5" y="366.5" clip-path="url(#SVGID_26_)" fill="none" stroke="#BFBFBF" stroke-linejoin="round" stroke-miterlimit="10" width="58" height="14"/>
</g>
<g>
	<defs>
		<rect id="SVGID_27_" x="519" y="319" width="883" height="441"/>
	</defs>
	<clipPath id="SVGID_28_">
		<use xlink:href="#SVGID_27_"  overflow="visible"/>
	</clipPath>
	<g clip-path="url(#SVGID_28_)">
		<text transform="matrix(1 0 0 1 1277.2773 377.0215)"><tspan x="0" y="0" fill="#595959" font-family="'HelveticaNeue'" font-size="9">18</tspan><tspan x="10.008" y="0" fill="#595959" font-family="'HelveticaNeue'" font-size="9">.</tspan><tspan x="13.006" y="0" fill="#595959" font-family="'HelveticaNeue'" font-size="9">87179487</tspan></text>
	</g>
</g>
<g>
	<defs>
		<rect id="SVGID_29_" x="519" y="319" width="883" height="441"/>
	</defs>
	<clipPath id="SVGID_30_">
		<use xlink:href="#SVGID_29_"  overflow="visible"/>
	</clipPath>
	<g clip-path="url(#SVGID_30_)">
		<text transform="matrix(1 0 0 1 595.502 752.3154)"><tspan x="0" y="0" fill="#FFFFFF" font-family="'HelveticaNeue'" font-size="8">2016</tspan><tspan x="20" y="0" fill="#FFFFFF" font-family="'HelveticaNeue'" font-size="8" letter-spacing="3"> </tspan><tspan x="26" y="0" fill="#FFFFFF" font-family="'HelveticaNeue'" font-size="8" letter-spacing="1">T</tspan><tspan x="32" y="0" fill="#FFFFFF" font-family="'HelveticaNeue'" font-size="8" letter-spacing="1">D</tspan><tspan x="39" y="0" fill="#FFFFFF" font-family="'HelveticaNeue'" font-size="8">S</tspan></text>
	</g>
</g>
<g>
	<defs>
		<rect id="SVGID_31_" x="519" y="319" width="883" height="441"/>
	</defs>
	<clipPath id="SVGID_32_">
		<use xlink:href="#SVGID_31_"  overflow="visible"/>
	</clipPath>
	<g clip-path="url(#SVGID_32_)">
		<text transform="matrix(1 0 0 1 766.8462 752.3154)"><tspan x="0" y="0" fill="#FFFFFF" font-family="'HelveticaNeue'" font-size="8">2015</tspan><tspan x="20" y="0" fill="#FFFFFF" font-family="'HelveticaNeue'" font-size="8" letter-spacing="3"> </tspan><tspan x="26" y="0" fill="#FFFFFF" font-family="'HelveticaNeue'" font-size="8" letter-spacing="1">T</tspan><tspan x="32" y="0" fill="#FFFFFF" font-family="'HelveticaNeue'" font-size="8" letter-spacing="1">D</tspan><tspan x="39" y="0" fill="#FFFFFF" font-family="'HelveticaNeue'" font-size="8">S</tspan></text>
	</g>
</g>
<g>
	<defs>
		<rect id="SVGID_33_" x="519" y="319" width="883" height="441"/>
	</defs>
	<clipPath id="SVGID_34_">
		<use xlink:href="#SVGID_33_"  overflow="visible"/>
	</clipPath>
	<g clip-path="url(#SVGID_34_)">
		<text transform="matrix(1 0 0 1 938.1899 752.3154)"><tspan x="0" y="0" fill="#FFFFFF" font-family="'HelveticaNeue'" font-size="8">2014</tspan><tspan x="20" y="0" fill="#FFFFFF" font-family="'HelveticaNeue'" font-size="8" letter-spacing="3"> </tspan><tspan x="26" y="0" fill="#FFFFFF" font-family="'HelveticaNeue'" font-size="8" letter-spacing="1">T</tspan><tspan x="32" y="0" fill="#FFFFFF" font-family="'HelveticaNeue'" font-size="8" letter-spacing="1">D</tspan><tspan x="39" y="0" fill="#FFFFFF" font-family="'HelveticaNeue'" font-size="8">S</tspan></text>
	</g>
</g>
<g>
	<defs>
		<rect id="SVGID_35_" x="519" y="319" width="883" height="441"/>
	</defs>
	<clipPath id="SVGID_36_">
		<use xlink:href="#SVGID_35_"  overflow="visible"/>
	</clipPath>
	<g clip-path="url(#SVGID_36_)">
		<text transform="matrix(1 0 0 1 1109.5342 752.3154)"><tspan x="0" y="0" fill="#FFFFFF" font-family="'HelveticaNeue'" font-size="8">2013</tspan><tspan x="20" y="0" fill="#FFFFFF" font-family="'HelveticaNeue'" font-size="8" letter-spacing="3"> </tspan><tspan x="26" y="0" fill="#FFFFFF" font-family="'HelveticaNeue'" font-size="8" letter-spacing="1">T</tspan><tspan x="32" y="0" fill="#FFFFFF" font-family="'HelveticaNeue'" font-size="8" letter-spacing="1">D</tspan><tspan x="39" y="0" fill="#FFFFFF" font-family="'HelveticaNeue'" font-size="8">S</tspan></text>
	</g>
</g>
<g>
	<defs>
		<rect id="SVGID_37_" x="519" y="319" width="883" height="441"/>
	</defs>
	<clipPath id="SVGID_38_">
		<use xlink:href="#SVGID_37_"  overflow="visible"/>
	</clipPath>
	<g clip-path="url(#SVGID_38_)">
		<text transform="matrix(1 0 0 1 1280.8779 752.3154)"><tspan x="0" y="0" fill="#FFFFFF" font-family="'HelveticaNeue'" font-size="8">2012</tspan><tspan x="20" y="0" fill="#FFFFFF" font-family="'HelveticaNeue'" font-size="8" letter-spacing="3"> </tspan><tspan x="26" y="0" fill="#FFFFFF" font-family="'HelveticaNeue'" font-size="8" letter-spacing="1">T</tspan><tspan x="32" y="0" fill="#FFFFFF" font-family="'HelveticaNeue'" font-size="8" letter-spacing="1">D</tspan><tspan x="39" y="0" fill="#FFFFFF" font-family="'HelveticaNeue'" font-size="8">S</tspan></text>
	</g>
</g>
<g>
	<defs>
		<rect id="SVGID_39_" x="519" y="319" width="883" height="441"/>
	</defs>
	<clipPath id="SVGID_40_">
		<use xlink:href="#SVGID_39_"  overflow="visible"/>
	</clipPath>
	<g clip-path="url(#SVGID_40_)">
		<text transform="matrix(1 0 0 1 850.7749 345)"><tspan x="0" y="0" fill="#FFFFFF" font-family="'HelveticaNeue-Bold'" font-size="16">A</tspan><tspan x="10.992" y="0" fill="#FFFFFF" font-family="'HelveticaNeue-Bold'" font-size="16">V</tspan><tspan x="21.984" y="0" fill="#FFFFFF" font-family="'HelveticaNeue-Bold'" font-size="16">E</tspan><tspan x="32.976" y="0" fill="#FFFFFF" font-family="'HelveticaNeue-Bold'" font-size="16" letter-spacing="1">R</tspan><tspan x="45.967" y="0" fill="#FFFFFF" font-family="'HelveticaNeue-Bold'" font-size="16" letter-spacing="1">A</tspan><tspan x="57.967" y="0" fill="#FFFFFF" font-family="'HelveticaNeue-Bold'" font-size="16">G</tspan><tspan x="70.959" y="0" fill="#FFFFFF" font-family="'HelveticaNeue-Bold'" font-size="16">E</tspan><tspan x="81.951" y="0" fill="#FFFFFF" font-family="'HelveticaNeue-Bold'" font-size="16" letter-spacing="3"> </tspan><tspan x="89.951" y="0" fill="#FFFFFF" font-family="'HelveticaNeue-Bold'" font-size="16" letter-spacing="1">T</tspan><tspan x="100.943" y="0" fill="#FFFFFF" font-family="'HelveticaNeue-Bold'" font-size="16">O</tspan><tspan x="113.935" y="0" fill="#FFFFFF" font-family="'HelveticaNeue-Bold'" font-size="16" letter-spacing="1">UCHD</tspan><tspan x="165.903" y="0" fill="#FFFFFF" font-family="'HelveticaNeue-Bold'" font-size="16">O</tspan><tspan x="178.895" y="0" fill="#FFFFFF" font-family="'HelveticaNeue-Bold'" font-size="16">W</tspan><tspan x="194.895" y="0" fill="#FFFFFF" font-family="'HelveticaNeue-Bold'" font-size="16" letter-spacing="1">N</tspan><tspan x="207.887" y="0" fill="#FFFFFF" font-family="'HelveticaNeue-Bold'" font-size="16">S</tspan></text>
	</g>
</g>
<g>
	<defs>
		<rect id="SVGID_41_" x="519" y="319" width="884" height="442"/>
	</defs>
	<clipPath id="SVGID_42_">
		<use xlink:href="#SVGID_41_"  overflow="visible"/>
	</clipPath>
	
		<rect x="519.5" y="319.5" clip-path="url(#SVGID_42_)" fill="none" stroke="#D9D9D9" stroke-linejoin="round" stroke-miterlimit="10" width="883" height="441"/>
</g>
</svg>
