<svg id="Layer_1" data-name="Layer 1" xmlns="http://www.w3.org/2000/svg" xmlns:xlink="http://www.w3.org/1999/xlink" viewBox="0 0 1677.76 873.3"><defs><style>.cls-1,.cls-6,.cls-8{fill:none;}.cls-2{clip-path:url(#clip-path);}.cls-10,.cls-3,.cls-9{fill:#fff;}.cls-3{fill-opacity:0;}.cls-4{clip-path:url(#clip-path-2);}.cls-5{fill:#5d9bd3;opacity:0.85;}.cls-10,.cls-12,.cls-13,.cls-14,.cls-15,.cls-17,.cls-5,.cls-6,.cls-9{isolation:isolate;}.cls-6{stroke:#fff;opacity:0.5;}.cls-6,.cls-8{stroke-linejoin:round;}.cls-7{clip-path:url(#clip-path-4);}.cls-8{stroke:#414141;stroke-width:2px;}.cls-10,.cls-12,.cls-13,.cls-14,.cls-15,.cls-9{font-size:21.07px;}.cls-10,.cls-9{font-family:Helvetica-Bold, Helvetica;font-weight:700;}.cls-10,.cls-13{letter-spacing:0.05em;}.cls-11{letter-spacing:-0.05em;}.cls-12,.cls-13,.cls-14,.cls-15{fill:#414141;font-family:Helvetica, Helvetica;}.cls-14{letter-spacing:-0.05em;}.cls-15{letter-spacing:-0.07em;}.cls-16{letter-spacing:0em;}</style><clipPath id="clip-path" transform="translate(-142.64 -65)"><rect class="cls-1" x="322.1" y="65" width="1498.3" height="873.3"/></clipPath><clipPath id="clip-path-2" transform="translate(-142.64 -65)"><rect class="cls-1" x="452.4" y="95.4" width="1283.6" height="786.6"/></clipPath><clipPath id="clip-path-4" transform="translate(-142.64 -65)"><rect class="cls-1" x="322.1" y="65" width="1498.3" height="870.9"/></clipPath></defs><title>Monday_Night_Competitor</title><g class="cls-2"><rect class="cls-3" x="179.46" width="1498.3" height="873.3"/></g><g class="cls-4"><path class="cls-5" d="M1165.4,143.4H453.6V108.3h711.8Zm-12.1,60.9H453.6V166.8h699.7Zm152,60.9H453.6V227.7h851.7ZM1261.9,326H453.6V288.5h808.3Zm-36.2,60.9H453.6V349.4h772.1Zm-31.4,58.5H453.6V410.3h740.7Zm55.5,60.9H453.6V471.2h796.2Zm214.8,60.9H453.6V529.7H1464.5l.1,37.5Zm14.5,60.8H453.6V590.5H1479l.1,37.5Zm-7.3,60.9H453.6V651.4H1471.8Zm-4.8,58.5H453.6V712.3H1467Zm113.4,60.9H453.6V773.2H1580.3v35.1Zm-258.2,60.9H453.6V831.7h868.6Z" transform="translate(-142.64 -65)"/></g><g class="cls-4"><path class="cls-6" d="M1165.4,143.4H453.6V108.3h711.8Zm-12.1,60.9H453.6V166.8h699.7Zm152,60.9H453.6V227.7h851.7ZM1261.9,326H453.6V288.5h808.3Zm-36.2,60.9H453.6V349.4h772.1Zm-31.4,58.5H453.6V410.3h740.7Zm55.5,60.9H453.6V471.2h796.2Zm214.8,60.9H453.6V529.7H1464.5l.1,37.5Zm14.5,60.8H453.6V590.5H1479l.1,37.5Zm-7.3,60.9H453.6V651.4H1471.8Zm-4.8,58.5H453.6V712.3H1467Zm113.4,60.9H453.6V773.2H1580.3v35.1Zm-258.2,60.9H453.6V831.7h868.6Z" transform="translate(-142.64 -65)"/></g><g class="cls-7"><line class="cls-8" x1="312.16" y1="817.1" x2="312.16" y2="30.4"/></g><g class="cls-7"><text class="cls-9" transform="translate(1051.67 794.49) scale(1.03 1)">12</text><text class="cls-10" transform="translate(1075.78 794.49) scale(1.03 1)">,</text><text class="cls-9" transform="translate(1083 794.49) scale(1.03 1)">185</text><text class="cls-10" transform="translate(1119.27 794.49) scale(1.03 1)">,</text><text class="cls-9" transform="translate(1126.49 794.49) scale(1.03 1)">000</text></g><g class="cls-7"><text class="cls-9" transform="translate(1309.93 734.03) scale(1.03 1)">15</text><text class="cls-10" transform="translate(1334.05 734.03) scale(1.03 1)">,</text><text class="cls-9" transform="translate(1341.26 734.03) scale(1.03 1)">816</text><text class="cls-10" transform="translate(1377.54 734.03) scale(1.03 1)">,</text><text class="cls-9" transform="translate(1384.75 734.03) scale(1.03 1)">000</text></g><g class="cls-7"><text class="cls-9" transform="translate(1197.98 673.58) scale(1.03 1)">14</text><text class="cls-10" transform="translate(1222.09 673.58) scale(1.03 1)">,</text><text class="cls-9" transform="translate(1229.31 673.58) scale(1.03 1)">242</text><text class="cls-10" transform="translate(1265.58 673.58) scale(1.03 1)">,</text><text class="cls-9" transform="translate(1272.8 673.58) scale(1.03 1)">000</text></g><g class="cls-7"><text class="cls-9" transform="translate(1203.52 613.13) scale(1.03 1)">14</text><text class="cls-10" transform="translate(1227.64 613.13) scale(1.03 1)">,</text><text class="cls-9" transform="translate(1234.85 613.13) scale(1.03 1)">320</text><text class="cls-10" transform="translate(1271.13 613.13) scale(1.03 1)">,</text><text class="cls-9" transform="translate(1278.35 613.13) scale(1.03 1)">000</text></g><g class="cls-7"><text class="cls-9" transform="translate(1209.92 552.68) scale(1.03 1)">14</text><text class="cls-10" transform="translate(1234.04 552.68) scale(1.03 1)">,</text><text class="cls-9" transform="translate(1241.25 552.68) scale(1.03 1)">410</text><text class="cls-10" transform="translate(1277.53 552.68) scale(1.03 1)">,</text><text class="cls-9" transform="translate(1284.75 552.68) scale(1.03 1)">000</text></g><g class="cls-7"><text class="cls-9" transform="translate(1194.99 492.23) scale(1.03 1)">14</text><text class="cls-10" transform="translate(1219.11 492.23) scale(1.03 1)">,</text><text class="cls-9" transform="translate(1226.32 492.23) scale(1.03 1)">200</text><text class="cls-10" transform="translate(1262.6 492.23) scale(1.03 1)">,</text><text class="cls-9" transform="translate(1269.81 492.23) scale(1.03 1)">000</text></g><g class="cls-7"><text class="cls-9" transform="translate(979.47 431.78) scale(1.03 1)"><tspan class="cls-11">1</tspan><tspan x="10.57" y="0">1</tspan></text><text class="cls-10" transform="translate(1003.59 431.78) scale(1.03 1)">,</text><text class="cls-9" transform="translate(1010.8 431.78) scale(1.03 1)">170</text><text class="cls-10" transform="translate(1047.08 431.78) scale(1.03 1)">,</text><text class="cls-9" transform="translate(1054.29 431.78) scale(1.03 1)">000</text></g><g class="cls-7"><text class="cls-9" transform="translate(923.99 371.33) scale(1.03 1)">10</text><text class="cls-10" transform="translate(948.11 371.33) scale(1.03 1)">,</text><text class="cls-9" transform="translate(955.32 371.33) scale(1.03 1)">390</text><text class="cls-10" transform="translate(991.6 371.33) scale(1.03 1)">,</text><text class="cls-9" transform="translate(998.81 371.33) scale(1.03 1)">000</text></g><g class="cls-7"><text class="cls-9" transform="translate(956 310.88) scale(1.03 1)">10</text><text class="cls-10" transform="translate(980.11 310.88) scale(1.03 1)">,</text><text class="cls-9" transform="translate(987.33 310.88) scale(1.03 1)">840</text><text class="cls-10" transform="translate(1023.61 310.88) scale(1.03 1)">,</text><text class="cls-9" transform="translate(1030.82 310.88) scale(1.03 1)">000</text></g><g class="cls-7"><text class="cls-9" transform="translate(991.56 250.43) scale(1.03 1)"><tspan class="cls-11">1</tspan><tspan x="10.57" y="0">1</tspan></text><text class="cls-10" transform="translate(1015.68 250.43) scale(1.03 1)">,</text><text class="cls-9" transform="translate(1022.89 250.43) scale(1.03 1)">340</text><text class="cls-10" transform="translate(1059.17 250.43) scale(1.03 1)">,</text><text class="cls-9" transform="translate(1066.38 250.43) scale(1.03 1)">000</text></g><g class="cls-7"><text class="cls-9" transform="translate(1036.37 189.98) scale(1.03 1)"><tspan class="cls-11">1</tspan><tspan x="10.57" y="0">1</tspan></text><text class="cls-10" transform="translate(1060.49 189.98) scale(1.03 1)">,</text><text class="cls-9" transform="translate(1067.7 189.98) scale(1.03 1)">970</text><text class="cls-10" transform="translate(1103.98 189.98) scale(1.03 1)">,</text><text class="cls-9" transform="translate(1111.19 189.98) scale(1.03 1)">000</text></g><g class="cls-7"><text class="cls-9" transform="translate(893.6 129.53) scale(1.03 1)">9</text><text class="cls-10" transform="translate(905.66 129.53) scale(1.03 1)">,</text><text class="cls-9" transform="translate(912.88 129.53) scale(1.03 1)">810</text><text class="cls-10" transform="translate(949.15 129.53) scale(1.03 1)">,</text><text class="cls-9" transform="translate(956.37 129.53) scale(1.03 1)">000</text></g><g class="cls-7"><text class="cls-9" transform="translate(896.82 69.08) scale(1.03 1)">10</text><text class="cls-10" transform="translate(920.94 69.08) scale(1.03 1)">,</text><text class="cls-9" transform="translate(928.15 69.08) scale(1.03 1)">008</text><text class="cls-10" transform="translate(964.43 69.08) scale(1.03 1)">,</text><text class="cls-9" transform="translate(971.64 69.08) scale(1.03 1)">000</text></g><g class="cls-7"><text class="cls-12" transform="translate(306.38 850.99) scale(1.03 1)">0</text></g><g class="cls-7"><text class="cls-12" transform="translate(405.21 850.99) scale(1.03 1)">2</text><text class="cls-13" transform="translate(417.27 850.99) scale(1.03 1)">,</text><text class="cls-12" transform="translate(424.48 850.99) scale(1.03 1)">000</text><text class="cls-13" transform="translate(460.76 850.99) scale(1.03 1)">,</text><text class="cls-12" transform="translate(467.97 850.99) scale(1.03 1)">000</text></g><g class="cls-7"><text class="cls-12" transform="translate(547.46 850.99) scale(1.03 1)">4</text><text class="cls-13" transform="translate(559.52 850.99) scale(1.03 1)">,</text><text class="cls-12" transform="translate(566.74 850.99) scale(1.03 1)">000</text><text class="cls-13" transform="translate(603.01 850.99) scale(1.03 1)">,</text><text class="cls-12" transform="translate(610.23 850.99) scale(1.03 1)">000</text></g><g class="cls-7"><text class="cls-12" transform="translate(689.72 850.99) scale(1.03 1)">6</text><text class="cls-13" transform="translate(701.78 850.99) scale(1.03 1)">,</text><text class="cls-12" transform="translate(708.99 850.99) scale(1.03 1)">000</text><text class="cls-13" transform="translate(745.27 850.99) scale(1.03 1)">,</text><text class="cls-12" transform="translate(752.49 850.99) scale(1.03 1)">000</text></g><g class="cls-7"><text class="cls-12" transform="translate(831.98 850.99) scale(1.03 1)">8</text><text class="cls-13" transform="translate(844.04 850.99) scale(1.03 1)">,</text><text class="cls-12" transform="translate(851.25 850.99) scale(1.03 1)">000</text><text class="cls-13" transform="translate(887.53 850.99) scale(1.03 1)">,</text><text class="cls-12" transform="translate(894.74 850.99) scale(1.03 1)">000</text></g><g class="cls-7"><text class="cls-12" transform="translate(966.99 850.99) scale(1.03 1)">10</text><text class="cls-13" transform="translate(991.11 850.99) scale(1.03 1)">,</text><text class="cls-12" transform="translate(998.32 850.99) scale(1.03 1)">000</text><text class="cls-13" transform="translate(1034.6 850.99) scale(1.03 1)">,</text><text class="cls-12" transform="translate(1041.81 850.99) scale(1.03 1)">000</text></g><g class="cls-7"><text class="cls-12" transform="translate(1109.25 850.99) scale(1.03 1)">12</text><text class="cls-13" transform="translate(1133.36 850.99) scale(1.03 1)">,</text><text class="cls-12" transform="translate(1140.58 850.99) scale(1.03 1)">000</text><text class="cls-13" transform="translate(1176.86 850.99) scale(1.03 1)">,</text><text class="cls-12" transform="translate(1184.07 850.99) scale(1.03 1)">000</text></g><g class="cls-7"><text class="cls-12" transform="translate(1251.51 850.99) scale(1.03 1)">14</text><text class="cls-13" transform="translate(1275.62 850.99) scale(1.03 1)">,</text><text class="cls-12" transform="translate(1282.84 850.99) scale(1.03 1)">000</text><text class="cls-13" transform="translate(1319.11 850.99) scale(1.03 1)">,</text><text class="cls-12" transform="translate(1326.33 850.99) scale(1.03 1)">000</text></g><g class="cls-7"><text class="cls-12" transform="translate(1393.76 850.99) scale(1.03 1)">16</text><text class="cls-13" transform="translate(1417.88 850.99) scale(1.03 1)">,</text><text class="cls-12" transform="translate(1425.09 850.99) scale(1.03 1)">000</text><text class="cls-13" transform="translate(1461.37 850.99) scale(1.03 1)">,</text><text class="cls-12" transform="translate(1468.58 850.99) scale(1.03 1)">000</text></g><g class="cls-7"><text class="cls-12" transform="translate(1536.02 850.99) scale(1.03 1)">18</text><text class="cls-13" transform="translate(1560.13 850.99) scale(1.03 1)">,</text><text class="cls-12" transform="translate(1567.35 850.99) scale(1.03 1)">000</text><text class="cls-13" transform="translate(1603.62 850.99) scale(1.03 1)">,</text><text class="cls-12" transform="translate(1610.84 850.99) scale(1.03 1)">000</text></g><g class="cls-7"><text class="cls-14" transform="translate(208.81 794.49) scale(1.03 1)">W</text><text class="cls-12" transform="translate(228.08 794.49) scale(1.03 1)">EEK</text><text class="cls-13" transform="translate(271.57 794.49) scale(1.03 1)"> </text><text class="cls-12" transform="translate(278.78 794.49) scale(1.03 1)">1</text></g><g class="cls-7"><text class="cls-14" transform="translate(208.81 734.03) scale(1.03 1)">W</text><text class="cls-12" transform="translate(228.08 734.03) scale(1.03 1)">EEK</text><text class="cls-13" transform="translate(271.57 734.03) scale(1.03 1)"> </text><text class="cls-12" transform="translate(278.78 734.03) scale(1.03 1)">2</text></g><g class="cls-7"><text class="cls-14" transform="translate(208.81 673.58) scale(1.03 1)">W</text><text class="cls-12" transform="translate(228.08 673.58) scale(1.03 1)">EEK</text><text class="cls-13" transform="translate(271.57 673.58) scale(1.03 1)"> </text><text class="cls-12" transform="translate(278.78 673.58) scale(1.03 1)">3</text></g><g class="cls-7"><text class="cls-14" transform="translate(208.81 613.13) scale(1.03 1)">W</text><text class="cls-12" transform="translate(228.08 613.13) scale(1.03 1)">EEK</text><text class="cls-13" transform="translate(271.57 613.13) scale(1.03 1)"> </text><text class="cls-12" transform="translate(278.78 613.13) scale(1.03 1)">4</text></g><g class="cls-7"><text class="cls-14" transform="translate(208.81 552.68) scale(1.03 1)">W</text><text class="cls-12" transform="translate(228.08 552.68) scale(1.03 1)">EEK</text><text class="cls-13" transform="translate(271.57 552.68) scale(1.03 1)"> </text><text class="cls-12" transform="translate(278.78 552.68) scale(1.03 1)">5</text></g><g class="cls-7"><text class="cls-14" transform="translate(208.81 492.23) scale(1.03 1)">W</text><text class="cls-12" transform="translate(228.08 492.23) scale(1.03 1)">EEK</text><text class="cls-13" transform="translate(271.57 492.23) scale(1.03 1)"> </text><text class="cls-12" transform="translate(278.78 492.23) scale(1.03 1)">6</text></g><g class="cls-7"><text class="cls-14" transform="translate(208.81 431.78) scale(1.03 1)">W</text><text class="cls-12" transform="translate(228.08 431.78) scale(1.03 1)">EEK</text><text class="cls-13" transform="translate(271.57 431.78) scale(1.03 1)"> </text><text class="cls-12" transform="translate(278.78 431.78) scale(1.03 1)">7</text></g><g class="cls-7"><text class="cls-14" transform="translate(208.81 371.33) scale(1.03 1)">W</text><text class="cls-12" transform="translate(228.08 371.33) scale(1.03 1)">EEK</text><text class="cls-13" transform="translate(271.57 371.33) scale(1.03 1)"> </text><text class="cls-12" transform="translate(278.78 371.33) scale(1.03 1)">8</text></g><g class="cls-7"><text class="cls-14" transform="translate(208.81 310.88) scale(1.03 1)">W</text><text class="cls-12" transform="translate(228.08 310.88) scale(1.03 1)">EEK</text><text class="cls-13" transform="translate(271.57 310.88) scale(1.03 1)"> </text><text class="cls-12" transform="translate(278.78 310.88) scale(1.03 1)">9</text></g><g class="cls-7"><text class="cls-14" transform="translate(197.94 250.43) scale(1.03 1)">W</text><text class="cls-12" transform="translate(217.21 250.43) scale(1.03 1)">EEK</text><text class="cls-13" transform="translate(260.7 250.43) scale(1.03 1)"> </text><text class="cls-12" transform="translate(267.92 250.43) scale(1.03 1)">10</text></g><g class="cls-7"><text class="cls-14" transform="translate(197.94 189.98) scale(1.03 1)">W</text><text class="cls-12" transform="translate(217.21 189.98) scale(1.03 1)">EEK</text><text class="cls-13" transform="translate(260.7 189.98) scale(1.03 1)"> </text><text class="cls-15" transform="translate(267.92 189.98) scale(1.03 1)">1<tspan class="cls-16" x="10.17" y="0">1</tspan></text></g><g class="cls-7"><text class="cls-14" transform="translate(197.94 129.53) scale(1.03 1)">W</text><text class="cls-12" transform="translate(217.21 129.53) scale(1.03 1)">EEK</text><text class="cls-13" transform="translate(260.7 129.53) scale(1.03 1)"> </text><text class="cls-12" transform="translate(267.92 129.53) scale(1.03 1)">12</text></g><g class="cls-7"><text class="cls-14" transform="translate(197.94 69.08) scale(1.03 1)">W</text><text class="cls-12" transform="translate(217.21 69.08) scale(1.03 1)">EEK</text><text class="cls-13" transform="translate(260.7 69.08) scale(1.03 1)"> </text><text class="cls-12" transform="translate(267.92 69.08) scale(1.03 1)">13</text></g><g id="bOPcjd.tif"><image id="Layer_0" data-name="Layer 0" class="cls-17" width="2282" height="706" transform="translate(0.37 459.91) scale(0.04 0.03)" xlink:href="3C163CA554ADDC42.png"/></g><g id="_2nFCcY.tif" data-name="2nFCcY.tif"><image id="Layer_0-2" data-name="Layer 0" class="cls-17" width="2025" height="2517" transform="translate(93.41 449.58) scale(0.02 0.02)" xlink:href="3C163CA554ADDC46.png"/></g><g id="AoJaZl.tif"><image id="Layer_1-2" data-name="Layer 1" class="cls-17" width="212" height="272" transform="translate(139.94 447.52) scale(0.18 0.18)" xlink:href="3C163CA554ADDC41.png"/></g><g id="PGRVIX.tif"><image id="Layer_0-3" data-name="Layer 0" class="cls-17" width="231" height="236" transform="translate(6.53 770.22) scale(0.21 0.21)" xlink:href="3C163CA554ADDC43.png"/></g><g id="nBrS7C.tif"><image id="Layer_0-4" data-name="Layer 0" class="cls-17" width="210" height="207" transform="translate(25.61 33.41) scale(0.28 0.28)" xlink:href="3C163CA554ADDC40.png"/></g><g id="aTt5IT.tif"><image id="Layer_0-5" data-name="Layer 0" class="cls-17" width="2043" height="664" transform="translate(60.32 775.5) scale(0.06 0.06)" xlink:href="3C163CA554ADDC4E.png"/></g><g id="Wzp2lk.tif"><image id="Layer_0-6" data-name="Layer 0" class="cls-17" width="959" height="1049" transform="translate(88.14 27.79) scale(0.07 0.07)" xlink:href="3C163CA554ADDC45.png"/></g><g id="PGRVIX.tif-2" data-name="PGRVIX.tif"><image id="Layer_0-7" data-name="Layer 0" class="cls-17" width="231" height="231" transform="translate(6.27 148.24) scale(0.21 0.21)" xlink:href="3C163CA554ADDC47.png"/></g><g id="aTt5IT.tif-2" data-name="aTt5IT.tif"><image id="Layer_0-8" data-name="Layer 0" class="cls-17" width="2043" height="664" transform="translate(60.32 153.27) scale(0.06 0.06)" xlink:href="3C163CA554ADDC44.png"/></g><g id="PGRVIX.tif-3" data-name="PGRVIX.tif"><image id="Layer_0-9" data-name="Layer 0" class="cls-17" width="231" height="236" transform="translate(6.53 209.23) scale(0.21 0.21)" xlink:href="AF36C3E53D20D5D5.png"/></g><g id="aTt5IT.tif-3" data-name="aTt5IT.tif"><image id="Layer_0-10" data-name="Layer 0" class="cls-17" width="2043" height="681" transform="translate(60.47 214.06) scale(0.06 0.06)" xlink:href="AF36C3E53D20D5EB.png"/></g><g id="PGRVIX.tif-4" data-name="PGRVIX.tif"><image id="Layer_0-11" data-name="Layer 0" class="cls-17" width="231" height="236" transform="translate(6.53 269.23) scale(0.21 0.21)" xlink:href="AF36C3E53D20D5ED.png"/></g><g id="aTt5IT.tif-4" data-name="aTt5IT.tif"><image id="Layer_0-12" data-name="Layer 0" class="cls-17" width="2043" height="681" transform="translate(60.47 274.06) scale(0.06 0.06)" xlink:href="AF36C3E53D20D5EF.png"/></g><g id="PGRVIX.tif-5" data-name="PGRVIX.tif"><image id="Layer_0-13" data-name="Layer 0" class="cls-17" width="231" height="236" transform="translate(6.53 333.72) scale(0.21 0.21)" xlink:href="AF36C3E53D20D5EC.png"/></g><g id="aTt5IT.tif-5" data-name="aTt5IT.tif"><image id="Layer_0-14" data-name="Layer 0" class="cls-17" width="2043" height="681" transform="translate(60.47 338.56) scale(0.06 0.06)" xlink:href="AF36C3E53D20D5F4.png"/></g><g id="nBrS7C.tif-2" data-name="nBrS7C.tif"><image id="Layer_0-15" data-name="Layer 0" class="cls-17" width="210" height="207" transform="translate(25.49 89.81) scale(0.28 0.28)" xlink:href="AF36C3E53D20D5F5.png"/></g><g id="Wzp2lk.tif-2" data-name="Wzp2lk.tif"><image id="Layer_0-16" data-name="Layer 0" class="cls-17" width="959" height="1064" transform="translate(88.28 83.96) scale(0.07 0.07)" xlink:href="AF36C3E53D20D5F7.png"/></g><g id="nBrS7C.tif-3" data-name="nBrS7C.tif"><image id="Layer_0-17" data-name="Layer 0" class="cls-17" width="210" height="207" transform="translate(21.36 391.98) scale(0.28 0.28)" xlink:href="AF36C3E53D20D5F3.png"/></g><g id="Wzp2lk.tif-3" data-name="Wzp2lk.tif"><image id="Layer_0-18" data-name="Layer 0" class="cls-17" width="959" height="1064" transform="translate(84.14 386.14) scale(0.07 0.07)" xlink:href="AF36C3E53D20D5FB.png"/></g><g id="bOPcjd.tif-2" data-name="bOPcjd.tif"><image id="Layer_0-19" data-name="Layer 0" class="cls-17" width="2282" height="734" transform="translate(0.51 529.12) scale(0.04 0.03)" xlink:href="AF36C3E53D20D610.png"/></g><g id="_2nFCcY.tif-2" data-name="2nFCcY.tif"><image id="Layer_0-20" data-name="Layer 0" class="cls-17" width="2025" height="2517" transform="translate(93.41 519.24) scale(0.02 0.02)" xlink:href="AF36C3E53D20D613.png"/></g><g id="AoJaZl.tif-2" data-name="AoJaZl.tif"><image id="Layer_1-3" data-name="Layer 1" class="cls-17" width="212" height="272" transform="translate(139.94 517.17) scale(0.18 0.18)" xlink:href="AF36C3E53D20D611.png"/></g><g id="bOPcjd.tif-3" data-name="bOPcjd.tif"><image id="Layer_0-21" data-name="Layer 0" class="cls-17" width="2255" height="734" transform="translate(0 586.91) scale(0.04 0.03)" xlink:href="AF36C3E53D20D61F.png"/></g><g id="_2nFCcY.tif-3" data-name="2nFCcY.tif"><image id="Layer_0-22" data-name="Layer 0" class="cls-17" width="2079" height="2517" transform="translate(92.57 577.41) scale(0.02 0.02)" xlink:href="AF36C3E53D20D612.png"/></g><g id="AoJaZl.tif-3" data-name="AoJaZl.tif"><image id="Layer_1-4" data-name="Layer 1" class="cls-17" width="206" height="277" transform="translate(139.92 574.67) scale(0.17 0.18)" xlink:href="AF36C3E53D20D615.png"/></g><g id="bOPcjd.tif-4" data-name="bOPcjd.tif"><image id="Layer_0-23" data-name="Layer 0" class="cls-17" width="2255" height="734" transform="translate(0 642.82) scale(0.04 0.03)" xlink:href="AF36C3E53D20D616.png"/></g><g id="_2nFCcY.tif-4" data-name="2nFCcY.tif"><image id="Layer_0-24" data-name="Layer 0" class="cls-17" width="2079" height="2572" transform="translate(92.8 633.12) scale(0.02 0.02)" xlink:href="AF36C3E53D20D617.png"/></g><g id="AoJaZl.tif-4" data-name="AoJaZl.tif"><image id="Layer_1-5" data-name="Layer 1" class="cls-17" width="206" height="277" transform="translate(139.92 630.58) scale(0.17 0.18)" xlink:href="AF36C3E53D20D62C.png"/></g><g id="bOPcjd.tif-5" data-name="bOPcjd.tif"><image id="Layer_0-25" data-name="Layer 0" class="cls-17" width="2255" height="734" transform="translate(0 711.52) scale(0.04 0.03)" xlink:href="AF36C3E53D20D62D.png"/></g><g id="_2nFCcY.tif-5" data-name="2nFCcY.tif"><image id="Layer_0-26" data-name="Layer 0" class="cls-17" width="2079" height="2517" transform="translate(92.57 702.01) scale(0.02 0.02)" xlink:href="AF36C3E53D20D637.png"/></g><g id="AoJaZl.tif-5" data-name="AoJaZl.tif"><image id="Layer_1-6" data-name="Layer 1" class="cls-17" width="206" height="272" transform="translate(139.71 699.44) scale(0.18 0.18)" xlink:href="AF36C3E53D20D635.png"/></g></svg>