<?xml version="1.0" encoding="utf-8"?>
<!-- Generator: Adobe Illustrator 20.1.0, SVG Export Plug-In . SVG Version: 6.00 Build 0)  -->
<svg version="1.1" id="Layer_1" xmlns="http://www.w3.org/2000/svg" xmlns:xlink="http://www.w3.org/1999/xlink" x="0px" y="0px"
	 viewBox="0 0 1920 1080" style="enable-background:new 0 0 1920 1080;" xml:space="preserve">
<style type="text/css">
	.st0{clip-path:url(#SVGID_2_);fill:#FFFFFF;fill-opacity:0;}
	.st1{opacity:0.851;clip-path:url(#SVGID_4_);fill:#5D9BD3;enable-background:new    ;}
	
		.st2{opacity:0.502;clip-path:url(#SVGID_6_);fill:none;stroke:#FFFFFF;stroke-linejoin:round;stroke-miterlimit:10;enable-background:new    ;}
	.st3{clip-path:url(#SVGID_8_);fill:none;stroke:#414141;stroke-width:2;stroke-linejoin:round;stroke-miterlimit:10;}
	.st4{clip-path:url(#SVGID_10_);}
	.st5{fill:#FFFFFF;}
	.st6{font-family:'Helvetica-Bold';}
	.st7{font-size:23.8059px;}
	.st8{letter-spacing:1;}
	.st9{clip-path:url(#SVGID_12_);}
	.st10{clip-path:url(#SVGID_14_);}
	.st11{clip-path:url(#SVGID_16_);}
	.st12{clip-path:url(#SVGID_18_);}
	.st13{clip-path:url(#SVGID_20_);}
	.st14{clip-path:url(#SVGID_22_);}
	.st15{clip-path:url(#SVGID_24_);}
	.st16{clip-path:url(#SVGID_26_);}
	.st17{clip-path:url(#SVGID_28_);}
	.st18{clip-path:url(#SVGID_30_);}
	.st19{clip-path:url(#SVGID_32_);}
	.st20{clip-path:url(#SVGID_34_);}
	.st21{clip-path:url(#SVGID_36_);}
	.st22{clip-path:url(#SVGID_38_);}
	.st23{fill:#414141;}
	.st24{font-family:'Helvetica';}
	.st25{clip-path:url(#SVGID_40_);}
	.st26{clip-path:url(#SVGID_42_);}
	.st27{clip-path:url(#SVGID_44_);}
	.st28{clip-path:url(#SVGID_46_);}
	.st29{clip-path:url(#SVGID_48_);}
	.st30{clip-path:url(#SVGID_50_);}
	.st31{clip-path:url(#SVGID_52_);}
	.st32{clip-path:url(#SVGID_54_);}
	.st33{letter-spacing:-1;}
	.st34{clip-path:url(#SVGID_56_);}
	.st35{clip-path:url(#SVGID_58_);}
	.st36{clip-path:url(#SVGID_60_);}
	.st37{clip-path:url(#SVGID_62_);}
	.st38{clip-path:url(#SVGID_64_);}
	.st39{clip-path:url(#SVGID_66_);}
	.st40{clip-path:url(#SVGID_68_);}
	.st41{clip-path:url(#SVGID_70_);}
	.st42{clip-path:url(#SVGID_72_);}
	.st43{clip-path:url(#SVGID_74_);}
	.st44{clip-path:url(#SVGID_76_);}
	.st45{clip-path:url(#SVGID_78_);}
	.st46{clip-path:url(#SVGID_80_);}
</style>
<g id="i27lhN_1_">
	
		<image style="overflow:visible;enable-background:new    ;" width="88" height="82" id="i27lhN_2_" xlink:href="9A086A37045BC602.jpg"  transform="matrix(0.6743 0 0 0.68 138.1623 799.7698)">
	</image>
</g>
<g id="tvd1EC_1_">
	
		<image style="overflow:visible;enable-background:new    ;" width="78" height="77" id="tvd1EC_2_" xlink:href="9A086A37045BC606.jpg"  transform="matrix(0.8842 0 0 0.8854 227.4697 793.5612)">
	</image>
</g>
<g id="wM4aqE_1_">
	
		<image style="overflow:visible;enable-background:new    ;" width="115" height="81" id="wM4aqE_2_" xlink:href="9A086A37045BC601.jpg"  transform="matrix(0.6524 0 0 0.6529 130.3179 746.3092)">
	</image>
</g>
<g id="Ev9A0A_1_">
	
		<image style="overflow:visible;enable-background:new    ;" width="131" height="78" id="Ev9A0A_2_" xlink:href="9A086A37045BC603.jpg"  transform="matrix(0.5594 0 0 0.558 225.311 750.9888)">
	</image>
</g>
<g id="zgSXZc_1_">
	
		<image style="overflow:visible;enable-background:new    ;" width="119" height="78" id="zgSXZc_2_" xlink:href="9A086A37045BC600.jpg"  transform="matrix(0.6764 0 0 0.66 221.7103 692.1118)">
	</image>
</g>
<g id="TtfhjR_1_">
	
		<image style="overflow:visible;enable-background:new    ;" width="132" height="87" id="TtfhjR_2_" xlink:href="9A086A37045BC60E.jpg"  transform="matrix(0.5718 0 0 0.5729 130.0922 692.9272)">
	</image>
</g>
<g id="_x39_TP8aD_1_">
	
		<image style="overflow:visible;enable-background:new    ;" width="72" height="81" id="_x39_TP8aD_2_" xlink:href="9A086A37045BC605.jpg"  transform="matrix(0.7407 0 0 0.7537 235.2877 632.4243)">
	</image>
</g>
<g id="UR1wVE_1_">
	
		<image style="overflow:visible;enable-background:new    ;" width="91" height="76" id="UR1wVE_2_" xlink:href="9A086A37045BC607.jpg"  transform="matrix(0.6989 0 0 0.7026 136.0315 636.2506)">
	</image>
</g>
<g id="srYbfR_1_">
	
		<image style="overflow:visible;enable-background:new    ;" width="113" height="86" id="srYbfR_2_" xlink:href="9A086A37045BC604.jpg"  transform="matrix(0.5532 0 0 0.5428 230.7005 584.7079)">
	</image>
</g>
<g id="emu3HA_1_">
	
		<image style="overflow:visible;enable-background:new    ;" width="89" height="64" id="emu3HA_2_" xlink:href="433759F3A1439E95.jpg"  transform="matrix(0.7475 0 0 0.743 228.6904 529.2738)">
	</image>
</g>
<g id="_x33_y1nDC_1_">
	
		<image style="overflow:visible;enable-background:new    ;" width="133" height="68" id="_x33_y1nDC_2_" xlink:href="433759F3A1439EAB.jpg"  transform="matrix(0.7771 0 0 0.769 116.1562 526.905)">
	</image>
</g>
<g id="AvUQAL_1_">
	
		<image style="overflow:visible;enable-background:new    ;" width="130" height="78" id="AvUQAL_2_" xlink:href="433759F3A1439EAD.jpg"  transform="matrix(0.7016 0 0 0.6867 216.3526 471.37)">
	</image>
</g>
<g id="zmt8nu_1_">
	
		<image style="overflow:visible;enable-background:new    ;" width="87" height="64" id="zmt8nu_2_" xlink:href="433759F3A1439EAF.jpg"  transform="matrix(0.8658 0 0 0.872 130.1677 470.2466)">
	</image>
</g>
<g id="s33UTz_1_">
	
		<image style="overflow:visible;enable-background:new    ;" width="91" height="65" id="s33UTz_2_" xlink:href="433759F3A1439EAC.jpg"  transform="matrix(0.7131 0 0 0.7128 229.5092 420.084)">
	</image>
</g>
<g id="OEcQYL_3_">
	
		<image style="overflow:visible;enable-background:new    ;" width="131" height="71" id="OEcQYL_4_" xlink:href="433759F3A1439EB4.jpg"  transform="matrix(0.6721 0 0 0.6674 123.8067 419.5575)">
	</image>
</g>
<g id="TtfhjR_3_">
	
		<image style="overflow:visible;enable-background:new    ;" width="132" height="87" id="TtfhjR_4_" xlink:href="433759F3A1439EB5.jpg"  transform="matrix(0.5718 0 0 0.5729 134.8158 363.4272)">
	</image>
</g>
<g id="fbZwP5_1_">
	
		<image style="overflow:visible;enable-background:new    ;" width="123" height="65" id="fbZwP5_2_" xlink:href="433759F3A1439EB7.jpg"  transform="matrix(0.6425 0 0 0.6236 128.3154 313.1837)">
	</image>
</g>
<g id="u88Cmu_5_">
	
		<image style="overflow:visible;enable-background:new    ;" width="128" height="47" id="u88Cmu_6_" xlink:href="433759F3A1439EB3.jpg"  transform="matrix(0.7764 0 0 0.7629 212.2666 315.522)">
	</image>
</g>
<g id="srYbfR_3_">
	
		<image style="overflow:visible;enable-background:new    ;" width="113" height="84" id="srYbfR_4_" xlink:href="433759F3A1439EBB.jpg"  transform="matrix(0.5532 0 0 0.5558 230.7005 255.1079)">
	</image>
</g>
<g id="L49HRa_1_">
	
		<image style="overflow:visible;enable-background:new    ;" width="115" height="65" id="L49HRa_2_" xlink:href="433759F3A1439ED0.jpg"  transform="matrix(0.708 0 0 0.7183 131.8465 255.1062)">
	</image>
</g>
<g id="v0J1Mg_1_">
	
		<image style="overflow:visible;enable-background:new    ;" width="77" height="64" id="v0J1Mg_2_" xlink:href="433759F3A1439ED3.jpg"  transform="matrix(0.915 0 0 0.9038 226.7281 194.63)">
	</image>
</g>
<g id="s33UTz_3_">
	
		<image style="overflow:visible;enable-background:new    ;" width="89" height="65" id="s33UTz_4_" xlink:href="433759F3A1439ED1.jpg"  transform="matrix(0.7291 0 0 0.7128 140.1097 200.384)">
	</image>
</g>
<g id="zgSXZc_3_">
	
		<image style="overflow:visible;enable-background:new    ;" width="119" height="78" id="zgSXZc_4_" xlink:href="433759F3A1439EDF.jpg"  transform="matrix(0.6764 0 0 0.66 221.7103 142.9118)">
	</image>
</g>
<g id="_x32_lxIng_5_">
	
		<image style="overflow:visible;enable-background:new    ;" width="132" height="77" id="_x32_lxIng_6_" xlink:href="433759F3A1439ED2.jpg"  transform="matrix(0.5932 0 0 0.5855 133.4052 150.2094)">
	</image>
</g>
<g id="AvUQAL_3_">
	
		<image style="overflow:visible;enable-background:new    ;" width="130" height="78" id="AvUQAL_4_" xlink:href="433759F3A1439ED5.jpg"  transform="matrix(0.7016 0 0 0.6867 216.3526 86.97)">
	</image>
</g>
<g id="_x35_pMGsS_1_">
	
		<image style="overflow:visible;enable-background:new    ;" width="84" height="79" id="_x35_pMGsS_2_" xlink:href="433759F3A1439ED6.jpg"  transform="matrix(0.6779 0 0 0.6786 139.3608 86.9453)">
	</image>
</g>
<g>
	<g>
		<defs>
			<rect id="SVGID_1_" x="309.5" y="51.9" width="1556.4" height="936.4"/>
		</defs>
		<clipPath id="SVGID_2_">
			<use xlink:href="#SVGID_1_"  style="overflow:visible;"/>
		</clipPath>
		<rect x="309.5" y="51.9" class="st0" width="1556.4" height="936.4"/>
	</g>
</g>
<g>
	<g>
		<defs>
			<rect id="SVGID_3_" x="455.9" y="86.3" width="1316.9" height="769.7"/>
		</defs>
		<clipPath id="SVGID_4_">
			<use xlink:href="#SVGID_3_"  style="overflow:visible;"/>
		</clipPath>
		<path class="st1" d="M1215.4,129.9H457.2V98.2h758.2V129.9z M1683.7,185.5H457.2v-34.4h1226.5V185.5z M1563.9,241H457.2v-34.4
			h1106.7L1563.9,241L1563.9,241z M1489.5,293.9H457.2v-31.7h1032.3V293.9z M1508.1,349.5H457.2v-31.7h1050.9L1508.1,349.5
			L1508.1,349.5z M1441.6,405H457.2v-34.4h984.4L1441.6,405L1441.6,405z M1505.4,460.6H457.2v-34.4h1048.2L1505.4,460.6
			L1505.4,460.6z M1244.7,516.1H457.2v-34.4h787.5V516.1z M1308.5,569H457.2v-31.7h851.3V569z M1694.3,624.6H457.2v-34.4h1237.1
			V624.6z M1212.8,680.1H457.2v-34.4h755.6V680.1z M1595.9,735.7H457.2v-34.4h1138.7L1595.9,735.7L1595.9,735.7z M1420.3,788.6
			H457.2v-31.7h963.1V788.6z M1673,844.1H457.2v-31.7H1673V844.1z"/>
	</g>
	<g>
		<defs>
			<rect id="SVGID_5_" x="455.9" y="86.3" width="1316.9" height="769.7"/>
		</defs>
		<clipPath id="SVGID_6_">
			<use xlink:href="#SVGID_5_"  style="overflow:visible;"/>
		</clipPath>
		<path class="st2" d="M1215.4,129.9H457.2V98.2h758.2V129.9z M1683.7,185.5H457.2v-34.4h1226.5V185.5z M1563.9,241H457.2v-34.4
			h1106.7L1563.9,241L1563.9,241z M1489.5,293.9H457.2v-31.7h1032.3V293.9z M1508.1,349.5H457.2v-31.7h1050.9L1508.1,349.5
			L1508.1,349.5z M1441.6,405H457.2v-34.4h984.4L1441.6,405L1441.6,405z M1505.4,460.6H457.2v-34.4h1048.2L1505.4,460.6
			L1505.4,460.6z M1244.7,516.1H457.2v-34.4h787.5V516.1z M1308.5,569H457.2v-31.7h851.3V569z M1694.3,624.6H457.2v-34.4h1237.1
			V624.6z M1212.8,680.1H457.2v-34.4h755.6V680.1z M1595.9,735.7H457.2v-34.4h1138.7L1595.9,735.7L1595.9,735.7z M1420.3,788.6
			H457.2v-31.7h963.1V788.6z M1673,844.1H457.2v-31.7H1673V844.1z"/>
	</g>
</g>
<g>
	<g>
		<defs>
			<rect id="SVGID_7_" x="309.5" y="51.9" width="1556.4" height="936.4"/>
		</defs>
		<clipPath id="SVGID_8_">
			<use xlink:href="#SVGID_7_"  style="overflow:visible;"/>
		</clipPath>
		<line class="st3" x1="455.9" y1="856" x2="455.9" y2="86.3"/>
	</g>
	<g>
		<defs>
			<rect id="SVGID_9_" x="309.5" y="51.9" width="1556.4" height="936.4"/>
		</defs>
		<clipPath id="SVGID_10_">
			<use xlink:href="#SVGID_9_"  style="overflow:visible;"/>
		</clipPath>
		<g class="st4">
			<text transform="matrix(1.0058 0 0 1 1532.7881 837.2051)" class="st5 st6 st7">12</text>
			<text transform="matrix(1.0058 0 0 1 1559.4414 837.2051)" class="st5 st6 st7 st8">,</text>
			<text transform="matrix(1.0058 0 0 1 1567.3867 837.2051)" class="st5 st6 st7">961</text>
			<text transform="matrix(1.0058 0 0 1 1607.3174 837.2051)" class="st5 st6 st7 st8">,</text>
			<text transform="matrix(1.0058 0 0 1 1615.2637 837.2051)" class="st5 st6 st7">000</text>
		</g>
	</g>
	<g>
		<defs>
			<rect id="SVGID_11_" x="309.5" y="51.9" width="1556.4" height="936.4"/>
		</defs>
		<clipPath id="SVGID_12_">
			<use xlink:href="#SVGID_11_"  style="overflow:visible;"/>
		</clipPath>
		<g class="st9">
			<text transform="matrix(1.0058 0 0 1 1278.4033 782.2871)" class="st5 st6 st7">10</text>
			<text transform="matrix(1.0058 0 0 1 1305.0566 782.2871)" class="st5 st6 st7 st8">,</text>
			<text transform="matrix(1.0058 0 0 1 1313.002 782.2871)" class="st5 st6 st7">252</text>
			<text transform="matrix(1.0058 0 0 1 1352.9326 782.2871)" class="st5 st6 st7 st8">,</text>
			<text transform="matrix(1.0058 0 0 1 1360.8789 782.2871)" class="st5 st6 st7">000</text>
		</g>
	</g>
	<g>
		<defs>
			<rect id="SVGID_13_" x="309.5" y="51.9" width="1556.4" height="936.4"/>
		</defs>
		<clipPath id="SVGID_14_">
			<use xlink:href="#SVGID_13_"  style="overflow:visible;"/>
		</clipPath>
		<g class="st10">
			<text transform="matrix(1.0058 0 0 1 1455.4121 727.3672)" class="st5 st6 st7">12</text>
			<text transform="matrix(1.0058 0 0 1 1482.0654 727.3672)" class="st5 st6 st7 st8">,</text>
			<text transform="matrix(1.0058 0 0 1 1490.0117 727.3672)" class="st5 st6 st7">137</text>
			<text transform="matrix(1.0058 0 0 1 1529.9414 727.3672)" class="st5 st6 st7 st8">,</text>
			<text transform="matrix(1.0058 0 0 1 1537.8877 727.3672)" class="st5 st6 st7">000</text>
		</g>
	</g>
	<g>
		<defs>
			<rect id="SVGID_15_" x="309.5" y="51.9" width="1556.4" height="936.4"/>
		</defs>
		<clipPath id="SVGID_16_">
			<use xlink:href="#SVGID_15_"  style="overflow:visible;"/>
		</clipPath>
		<g class="st11">
			<text transform="matrix(1.0058 0 0 1 1085.9912 672.4502)" class="st5 st6 st7">8</text>
			<text transform="matrix(1.0058 0 0 1 1099.2676 672.4502)" class="st5 st6 st7 st8">,</text>
			<text transform="matrix(1.0058 0 0 1 1107.3135 672.4502)" class="st5 st6 st7">047</text>
			<text transform="matrix(1.0058 0 0 1 1147.2441 672.4502)" class="st5 st6 st7 st8">,</text>
			<text transform="matrix(1.0058 0 0 1 1155.1895 672.4502)" class="st5 st6 st7">000</text>
		</g>
	</g>
	<g>
		<defs>
			<rect id="SVGID_17_" x="309.5" y="51.9" width="1556.4" height="936.4"/>
		</defs>
		<clipPath id="SVGID_18_">
			<use xlink:href="#SVGID_17_"  style="overflow:visible;"/>
		</clipPath>
		<g class="st12">
			<text transform="matrix(1.0058 0 0 1 1552.1318 617.5303)" class="st5 st6 st7">13</text>
			<text transform="matrix(1.0058 0 0 1 1578.7852 617.5303)" class="st5 st6 st7 st8">,</text>
			<text transform="matrix(1.0058 0 0 1 1586.7305 617.5303)" class="st5 st6 st7">167</text>
			<text transform="matrix(1.0058 0 0 1 1626.6611 617.5303)" class="st5 st6 st7 st8">,</text>
			<text transform="matrix(1.0058 0 0 1 1634.6074 617.5303)" class="st5 st6 st7">000</text>
		</g>
	</g>
	<g>
		<defs>
			<rect id="SVGID_19_" x="309.5" y="51.9" width="1556.4" height="936.4"/>
		</defs>
		<clipPath id="SVGID_20_">
			<use xlink:href="#SVGID_19_"  style="overflow:visible;"/>
		</clipPath>
		<g class="st13">
			<text transform="matrix(1.0058 0 0 1 1180.833 562.6113)" class="st5 st6 st7">9</text>
			<text transform="matrix(1.0058 0 0 1 1194.1094 562.6113)" class="st5 st6 st7 st8">,</text>
			<text transform="matrix(1.0058 0 0 1 1202.1553 562.6113)" class="st5 st6 st7">057</text>
			<text transform="matrix(1.0058 0 0 1 1242.0859 562.6113)" class="st5 st6 st7 st8">,</text>
			<text transform="matrix(1.0058 0 0 1 1250.0312 562.6113)" class="st5 st6 st7">000</text>
		</g>
	</g>
	<g>
		<defs>
			<rect id="SVGID_21_" x="309.5" y="51.9" width="1556.4" height="936.4"/>
		</defs>
		<clipPath id="SVGID_22_">
			<use xlink:href="#SVGID_21_"  style="overflow:visible;"/>
		</clipPath>
		<g class="st14">
			<text transform="matrix(1.0058 0 0 1 1118.9502 507.6924)" class="st5 st6 st7">8</text>
			<text transform="matrix(1.0058 0 0 1 1132.2266 507.6924)" class="st5 st6 st7 st8">,</text>
			<text transform="matrix(1.0058 0 0 1 1140.2725 507.6924)" class="st5 st6 st7">398</text>
			<text transform="matrix(1.0058 0 0 1 1180.2031 507.6924)" class="st5 st6 st7 st8">,</text>
			<text transform="matrix(1.0058 0 0 1 1188.1484 507.6924)" class="st5 st6 st7">000</text>
		</g>
	</g>
	<g>
		<defs>
			<rect id="SVGID_23_" x="309.5" y="51.9" width="1556.4" height="936.4"/>
		</defs>
		<clipPath id="SVGID_24_">
			<use xlink:href="#SVGID_23_"  style="overflow:visible;"/>
		</clipPath>
		<g class="st15">
			<text transform="matrix(1.0058 0 0 1 1364.4189 452.7744)" class="st5 st6 st7">11</text>
			<text transform="matrix(1.0058 0 0 1 1391.0723 452.7744)" class="st5 st6 st7 st8">,</text>
			<text transform="matrix(1.0058 0 0 1 1399.0176 452.7744)" class="st5 st6 st7">168</text>
			<text transform="matrix(1.0058 0 0 1 1438.9482 452.7744)" class="st5 st6 st7 st8">,</text>
			<text transform="matrix(1.0058 0 0 1 1446.8945 452.7744)" class="st5 st6 st7">000</text>
		</g>
	</g>
	<g>
		<defs>
			<rect id="SVGID_25_" x="309.5" y="51.9" width="1556.4" height="936.4"/>
		</defs>
		<clipPath id="SVGID_26_">
			<use xlink:href="#SVGID_25_"  style="overflow:visible;"/>
		</clipPath>
		<g class="st16">
			<text transform="matrix(1.0058 0 0 1 1299.4375 397.8555)" class="st5 st6 st7">10</text>
			<text transform="matrix(1.0058 0 0 1 1326.0908 397.8555)" class="st5 st6 st7 st8">,</text>
			<text transform="matrix(1.0058 0 0 1 1334.0371 397.8555)" class="st5 st6 st7">476</text>
			<text transform="matrix(1.0058 0 0 1 1373.9668 397.8555)" class="st5 st6 st7 st8">,</text>
			<text transform="matrix(1.0058 0 0 1 1381.9131 397.8555)" class="st5 st6 st7">000</text>
		</g>
	</g>
	<g>
		<defs>
			<rect id="SVGID_27_" x="309.5" y="51.9" width="1556.4" height="936.4"/>
		</defs>
		<clipPath id="SVGID_28_">
			<use xlink:href="#SVGID_27_"  style="overflow:visible;"/>
		</clipPath>
		<g class="st17">
			<text transform="matrix(1.0058 0 0 1 1368.0801 342.9365)" class="st5 st6 st7">11</text>
			<text transform="matrix(1.0058 0 0 1 1394.7334 342.9365)" class="st5 st6 st7 st8">,</text>
			<text transform="matrix(1.0058 0 0 1 1402.6797 342.9365)" class="st5 st6 st7">207</text>
			<text transform="matrix(1.0058 0 0 1 1442.6094 342.9365)" class="st5 st6 st7 st8">,</text>
			<text transform="matrix(1.0058 0 0 1 1450.5557 342.9365)" class="st5 st6 st7">000</text>
		</g>
	</g>
	<g>
		<defs>
			<rect id="SVGID_29_" x="309.5" y="51.9" width="1556.4" height="936.4"/>
		</defs>
		<clipPath id="SVGID_30_">
			<use xlink:href="#SVGID_29_"  style="overflow:visible;"/>
		</clipPath>
		<g class="st18">
			<text transform="matrix(1.0058 0 0 1 1348.2666 288.0176)" class="st5 st6 st7">10</text>
			<text transform="matrix(1.0058 0 0 1 1374.9199 288.0176)" class="st5 st6 st7 st8">,</text>
			<text transform="matrix(1.0058 0 0 1 1382.8652 288.0176)" class="st5 st6 st7">996</text>
			<text transform="matrix(1.0058 0 0 1 1422.7959 288.0176)" class="st5 st6 st7 st8">,</text>
			<text transform="matrix(1.0058 0 0 1 1430.7422 288.0176)" class="st5 st6 st7">000</text>
		</g>
	</g>
	<g>
		<defs>
			<rect id="SVGID_31_" x="309.5" y="51.9" width="1556.4" height="936.4"/>
		</defs>
		<clipPath id="SVGID_32_">
			<use xlink:href="#SVGID_31_"  style="overflow:visible;"/>
		</clipPath>
		<g class="st19">
			<text transform="matrix(1.0058 0 0 1 1422.5449 233.0986)" class="st5 st6 st7">11</text>
			<text transform="matrix(1.0058 0 0 1 1449.1982 233.0986)" class="st5 st6 st7 st8">,</text>
			<text transform="matrix(1.0058 0 0 1 1457.1445 233.0986)" class="st5 st6 st7">787</text>
			<text transform="matrix(1.0058 0 0 1 1497.0742 233.0986)" class="st5 st6 st7 st8">,</text>
			<text transform="matrix(1.0058 0 0 1 1505.0205 233.0986)" class="st5 st6 st7">000</text>
		</g>
	</g>
	<g>
		<defs>
			<rect id="SVGID_33_" x="309.5" y="51.9" width="1556.4" height="936.4"/>
		</defs>
		<clipPath id="SVGID_34_">
			<use xlink:href="#SVGID_33_"  style="overflow:visible;"/>
		</clipPath>
		<g class="st20">
			<text transform="matrix(1.0058 0 0 1 1542.46 178.1797)" class="st5 st6 st7">13</text>
			<text transform="matrix(1.0058 0 0 1 1569.1133 178.1797)" class="st5 st6 st7 st8">,</text>
			<text transform="matrix(1.0058 0 0 1 1577.0586 178.1797)" class="st5 st6 st7">064</text>
			<text transform="matrix(1.0058 0 0 1 1616.9893 178.1797)" class="st5 st6 st7 st8">,</text>
			<text transform="matrix(1.0058 0 0 1 1624.9355 178.1797)" class="st5 st6 st7">000</text>
		</g>
	</g>
	<g>
		<defs>
			<rect id="SVGID_35_" x="309.5" y="51.9" width="1556.4" height="936.4"/>
		</defs>
		<clipPath id="SVGID_36_">
			<use xlink:href="#SVGID_35_"  style="overflow:visible;"/>
		</clipPath>
		<g class="st21">
			<text transform="matrix(1.0058 0 0 1 1090.1221 123.2617)" class="st5 st6 st7">8</text>
			<text transform="matrix(1.0058 0 0 1 1103.3984 123.2617)" class="st5 st6 st7 st8">,</text>
			<text transform="matrix(1.0058 0 0 1 1111.4443 123.2617)" class="st5 st6 st7">091</text>
			<text transform="matrix(1.0058 0 0 1 1151.375 123.2617)" class="st5 st6 st7 st8">,</text>
			<text transform="matrix(1.0058 0 0 1 1159.3203 123.2617)" class="st5 st6 st7">000</text>
		</g>
	</g>
	<g>
		<defs>
			<rect id="SVGID_37_" x="309.5" y="51.9" width="1556.4" height="936.4"/>
		</defs>
		<clipPath id="SVGID_38_">
			<use xlink:href="#SVGID_37_"  style="overflow:visible;"/>
		</clipPath>
		<g class="st22">
			<text transform="matrix(1.0058 0 0 1 450.1143 894.3584)" class="st23 st24 st7">0</text>
		</g>
	</g>
	<g>
		<defs>
			<rect id="SVGID_39_" x="309.5" y="51.9" width="1556.4" height="936.4"/>
		</defs>
		<clipPath id="SVGID_40_">
			<use xlink:href="#SVGID_39_"  style="overflow:visible;"/>
		</clipPath>
		<g class="st25">
			<text transform="matrix(1.0058 0 0 1 590.0332 894.3584)" class="st23 st24 st7">2</text>
			<text transform="matrix(1.0058 0 0 1 603.3096 894.3584)" class="st23 st24 st7 st8">,</text>
			<text transform="matrix(1.0058 0 0 1 611.3564 894.3584)" class="st23 st24 st7">000</text>
			<text transform="matrix(1.0058 0 0 1 651.2866 894.3584)" class="st23 st24 st7 st8">,</text>
			<text transform="matrix(1.0058 0 0 1 659.2324 894.3584)" class="st23 st24 st7">000</text>
		</g>
	</g>
	<g>
		<defs>
			<rect id="SVGID_41_" x="309.5" y="51.9" width="1556.4" height="936.4"/>
		</defs>
		<clipPath id="SVGID_42_">
			<use xlink:href="#SVGID_41_"  style="overflow:visible;"/>
		</clipPath>
		<g class="st26">
			<text transform="matrix(1.0058 0 0 1 777.8408 894.3584)" class="st23 st24 st7">4</text>
			<text transform="matrix(1.0058 0 0 1 791.1177 894.3584)" class="st23 st24 st7 st8">,</text>
			<text transform="matrix(1.0058 0 0 1 799.1641 894.3584)" class="st23 st24 st7">000</text>
			<text transform="matrix(1.0058 0 0 1 839.0942 894.3584)" class="st23 st24 st7 st8">,</text>
			<text transform="matrix(1.0058 0 0 1 847.04 894.3584)" class="st23 st24 st7">000</text>
		</g>
	</g>
	<g>
		<defs>
			<rect id="SVGID_43_" x="309.5" y="51.9" width="1556.4" height="936.4"/>
		</defs>
		<clipPath id="SVGID_44_">
			<use xlink:href="#SVGID_43_"  style="overflow:visible;"/>
		</clipPath>
		<g class="st27">
			<text transform="matrix(1.0058 0 0 1 965.6475 894.3584)" class="st23 st24 st7">6</text>
			<text transform="matrix(1.0058 0 0 1 978.9238 894.3584)" class="st23 st24 st7 st8">,</text>
			<text transform="matrix(1.0058 0 0 1 986.9707 894.3584)" class="st23 st24 st7">000</text>
			<text transform="matrix(1.0058 0 0 1 1026.9004 894.3584)" class="st23 st24 st7 st8">,</text>
			<text transform="matrix(1.0058 0 0 1 1034.8467 894.3584)" class="st23 st24 st7">000</text>
		</g>
	</g>
	<g>
		<defs>
			<rect id="SVGID_45_" x="309.5" y="51.9" width="1556.4" height="936.4"/>
		</defs>
		<clipPath id="SVGID_46_">
			<use xlink:href="#SVGID_45_"  style="overflow:visible;"/>
		</clipPath>
		<g class="st28">
			<text transform="matrix(1.0058 0 0 1 1153.457 894.3584)" class="st23 st24 st7">8</text>
			<text transform="matrix(1.0058 0 0 1 1166.7334 894.3584)" class="st23 st24 st7 st8">,</text>
			<text transform="matrix(1.0058 0 0 1 1174.7793 894.3584)" class="st23 st24 st7">000</text>
			<text transform="matrix(1.0058 0 0 1 1214.71 894.3584)" class="st23 st24 st7 st8">,</text>
			<text transform="matrix(1.0058 0 0 1 1222.6562 894.3584)" class="st23 st24 st7">000</text>
		</g>
	</g>
	<g>
		<defs>
			<rect id="SVGID_47_" x="309.5" y="51.9" width="1556.4" height="936.4"/>
		</defs>
		<clipPath id="SVGID_48_">
			<use xlink:href="#SVGID_47_"  style="overflow:visible;"/>
		</clipPath>
		<g class="st29">
			<text transform="matrix(1.0058 0 0 1 1333.2744 894.3584)" class="st23 st24 st7">10</text>
			<text transform="matrix(1.0058 0 0 1 1359.9277 894.3584)" class="st23 st24 st7 st8">,</text>
			<text transform="matrix(1.0058 0 0 1 1367.873 894.3584)" class="st23 st24 st7">000</text>
			<text transform="matrix(1.0058 0 0 1 1407.8037 894.3584)" class="st23 st24 st7 st8">,</text>
			<text transform="matrix(1.0058 0 0 1 1415.75 894.3584)" class="st23 st24 st7">000</text>
		</g>
	</g>
	<g>
		<defs>
			<rect id="SVGID_49_" x="309.5" y="51.9" width="1556.4" height="936.4"/>
		</defs>
		<clipPath id="SVGID_50_">
			<use xlink:href="#SVGID_49_"  style="overflow:visible;"/>
		</clipPath>
		<g class="st30">
			<text transform="matrix(1.0058 0 0 1 1521.084 894.3584)" class="st23 st24 st7">12</text>
			<text transform="matrix(1.0058 0 0 1 1547.7373 894.3584)" class="st23 st24 st7 st8">,</text>
			<text transform="matrix(1.0058 0 0 1 1555.6836 894.3584)" class="st23 st24 st7">000</text>
			<text transform="matrix(1.0058 0 0 1 1595.6133 894.3584)" class="st23 st24 st7 st8">,</text>
			<text transform="matrix(1.0058 0 0 1 1603.5596 894.3584)" class="st23 st24 st7">000</text>
		</g>
	</g>
	<g>
		<defs>
			<rect id="SVGID_51_" x="309.5" y="51.9" width="1556.4" height="936.4"/>
		</defs>
		<clipPath id="SVGID_52_">
			<use xlink:href="#SVGID_51_"  style="overflow:visible;"/>
		</clipPath>
		<g class="st31">
			<text transform="matrix(1.0058 0 0 1 1708.8896 894.3584)" class="st23 st24 st7">14</text>
			<text transform="matrix(1.0058 0 0 1 1735.543 894.3584)" class="st23 st24 st7 st8">,</text>
			<text transform="matrix(1.0058 0 0 1 1743.4883 894.3584)" class="st23 st24 st7">000</text>
			<text transform="matrix(1.0058 0 0 1 1783.4189 894.3584)" class="st23 st24 st7 st8">,</text>
			<text transform="matrix(1.0058 0 0 1 1791.3652 894.3584)" class="st23 st24 st7">000</text>
		</g>
	</g>
</g>
<g>
	<g>
		<defs>
			<rect id="SVGID_53_" x="309.5" y="800.2" width="444.5" height="54.9"/>
		</defs>
		<clipPath id="SVGID_54_">
			<use xlink:href="#SVGID_53_"  style="overflow:visible;"/>
		</clipPath>
		<g class="st32">
			<text transform="matrix(1.0058 0 0 1 326.8779 837.2051)" class="st23 st24 st7 st33">W</text>
			<text transform="matrix(1.0058 0 0 1 348.2012 837.2051)" class="st23 st24 st7">EEK</text>
			<text transform="matrix(1.0058 0 0 1 396.0771 837.2051)" class="st23 st24 st7 st8"> </text>
			<text transform="matrix(1.0058 0 0 1 404.0229 837.2051)" class="st23 st24 st7">1A</text>
		</g>
	</g>
</g>
<g>
	<g>
		<defs>
			<rect id="SVGID_55_" x="309.5" y="745.3" width="444.5" height="54.9"/>
		</defs>
		<clipPath id="SVGID_56_">
			<use xlink:href="#SVGID_55_"  style="overflow:visible;"/>
		</clipPath>
		<g class="st34">
			<text transform="matrix(1.0058 0 0 1 326.8779 782.2871)" class="st23 st24 st7 st33">W</text>
			<text transform="matrix(1.0058 0 0 1 348.2012 782.2871)" class="st23 st24 st7">EEK</text>
			<text transform="matrix(1.0058 0 0 1 396.0771 782.2871)" class="st23 st24 st7 st8"> </text>
			<text transform="matrix(1.0058 0 0 1 404.0229 782.2871)" class="st23 st24 st7">1B</text>
		</g>
	</g>
</g>
<g>
	<g>
		<defs>
			<rect id="SVGID_57_" x="309.5" y="690.4" width="396.6" height="54.9"/>
		</defs>
		<clipPath id="SVGID_58_">
			<use xlink:href="#SVGID_57_"  style="overflow:visible;"/>
		</clipPath>
		<g class="st35">
			<text transform="matrix(1.0058 0 0 1 342.8535 727.3672)" class="st23 st24 st7 st33">W</text>
			<text transform="matrix(1.0058 0 0 1 364.1768 727.3672)" class="st23 st24 st7">EEK</text>
			<text transform="matrix(1.0058 0 0 1 412.0527 727.3672)" class="st23 st24 st7 st8"> </text>
			<text transform="matrix(1.0058 0 0 1 419.9985 727.3672)" class="st23 st24 st7">2</text>
		</g>
	</g>
</g>
<g>
	<g>
		<defs>
			<rect id="SVGID_59_" x="309.5" y="635.5" width="396.6" height="54.9"/>
		</defs>
		<clipPath id="SVGID_60_">
			<use xlink:href="#SVGID_59_"  style="overflow:visible;"/>
		</clipPath>
		<g class="st36">
			<text transform="matrix(1.0058 0 0 1 342.8535 672.4502)" class="st23 st24 st7 st33">W</text>
			<text transform="matrix(1.0058 0 0 1 364.1768 672.4502)" class="st23 st24 st7">EEK</text>
			<text transform="matrix(1.0058 0 0 1 412.0527 672.4502)" class="st23 st24 st7 st8"> </text>
			<text transform="matrix(1.0058 0 0 1 419.9985 672.4502)" class="st23 st24 st7">3</text>
		</g>
	</g>
</g>
<g>
	<g>
		<defs>
			<rect id="SVGID_61_" x="309.5" y="580.6" width="396.6" height="54.9"/>
		</defs>
		<clipPath id="SVGID_62_">
			<use xlink:href="#SVGID_61_"  style="overflow:visible;"/>
		</clipPath>
		<g class="st37">
			<text transform="matrix(1.0058 0 0 1 342.8535 617.5312)" class="st23 st24 st7 st33">W</text>
			<text transform="matrix(1.0058 0 0 1 364.1768 617.5312)" class="st23 st24 st7">EEK</text>
			<text transform="matrix(1.0058 0 0 1 412.0527 617.5312)" class="st23 st24 st7 st8"> </text>
			<text transform="matrix(1.0058 0 0 1 419.9985 617.5312)" class="st23 st24 st7">4</text>
		</g>
	</g>
</g>
<g>
	<g>
		<defs>
			<rect id="SVGID_63_" x="309.5" y="525.6" width="396.6" height="54.9"/>
		</defs>
		<clipPath id="SVGID_64_">
			<use xlink:href="#SVGID_63_"  style="overflow:visible;"/>
		</clipPath>
		<g class="st38">
			<text transform="matrix(1.0058 0 0 1 342.8535 562.6113)" class="st23 st24 st7 st33">W</text>
			<text transform="matrix(1.0058 0 0 1 364.1768 562.6113)" class="st23 st24 st7">EEK</text>
			<text transform="matrix(1.0058 0 0 1 412.0527 562.6113)" class="st23 st24 st7 st8"> </text>
			<text transform="matrix(1.0058 0 0 1 419.9985 562.6113)" class="st23 st24 st7">5</text>
		</g>
	</g>
</g>
<g>
	<g>
		<defs>
			<rect id="SVGID_65_" x="309.5" y="470.7" width="396.6" height="54.9"/>
		</defs>
		<clipPath id="SVGID_66_">
			<use xlink:href="#SVGID_65_"  style="overflow:visible;"/>
		</clipPath>
		<g class="st39">
			<text transform="matrix(1.0058 0 0 1 342.8535 507.6924)" class="st23 st24 st7 st33">W</text>
			<text transform="matrix(1.0058 0 0 1 364.1768 507.6924)" class="st23 st24 st7">EEK</text>
			<text transform="matrix(1.0058 0 0 1 412.0527 507.6924)" class="st23 st24 st7 st8"> </text>
			<text transform="matrix(1.0058 0 0 1 419.9985 507.6924)" class="st23 st24 st7">6</text>
		</g>
	</g>
</g>
<g>
	<g>
		<defs>
			<rect id="SVGID_67_" x="309.5" y="415.8" width="396.6" height="54.9"/>
		</defs>
		<clipPath id="SVGID_68_">
			<use xlink:href="#SVGID_67_"  style="overflow:visible;"/>
		</clipPath>
		<g class="st40">
			<text transform="matrix(1.0058 0 0 1 342.8535 452.7744)" class="st23 st24 st7 st33">W</text>
			<text transform="matrix(1.0058 0 0 1 364.1768 452.7744)" class="st23 st24 st7">EEK</text>
			<text transform="matrix(1.0058 0 0 1 412.0527 452.7744)" class="st23 st24 st7 st8"> </text>
			<text transform="matrix(1.0058 0 0 1 419.9985 452.7744)" class="st23 st24 st7">7</text>
		</g>
	</g>
</g>
<g>
	<g>
		<defs>
			<rect id="SVGID_69_" x="309.5" y="360.9" width="396.6" height="54.9"/>
		</defs>
		<clipPath id="SVGID_70_">
			<use xlink:href="#SVGID_69_"  style="overflow:visible;"/>
		</clipPath>
		<g class="st41">
			<text transform="matrix(1.0058 0 0 1 342.8535 397.8555)" class="st23 st24 st7 st33">W</text>
			<text transform="matrix(1.0058 0 0 1 364.1768 397.8555)" class="st23 st24 st7">EEK</text>
			<text transform="matrix(1.0058 0 0 1 412.0527 397.8555)" class="st23 st24 st7 st8"> </text>
			<text transform="matrix(1.0058 0 0 1 419.9985 397.8555)" class="st23 st24 st7">8</text>
		</g>
	</g>
</g>
<g>
	<g>
		<defs>
			<rect id="SVGID_71_" x="309.5" y="306" width="396.6" height="54.9"/>
		</defs>
		<clipPath id="SVGID_72_">
			<use xlink:href="#SVGID_71_"  style="overflow:visible;"/>
		</clipPath>
		<g class="st42">
			<text transform="matrix(1.0058 0 0 1 342.8535 342.9365)" class="st23 st24 st7 st33">W</text>
			<text transform="matrix(1.0058 0 0 1 364.1768 342.9365)" class="st23 st24 st7">EEK</text>
			<text transform="matrix(1.0058 0 0 1 412.0527 342.9365)" class="st23 st24 st7 st8"> </text>
			<text transform="matrix(1.0058 0 0 1 419.9985 342.9365)" class="st23 st24 st7">9</text>
		</g>
	</g>
</g>
<g>
	<g>
		<defs>
			<rect id="SVGID_73_" x="309.5" y="251" width="436.5" height="54.9"/>
		</defs>
		<clipPath id="SVGID_74_">
			<use xlink:href="#SVGID_73_"  style="overflow:visible;"/>
		</clipPath>
		<g class="st43">
			<text transform="matrix(1.0058 0 0 1 330.8687 288.0186)" class="st23 st24 st7 st33">W</text>
			<text transform="matrix(1.0058 0 0 1 352.1919 288.0186)" class="st23 st24 st7">EEK</text>
			<text transform="matrix(1.0058 0 0 1 400.0679 288.0186)" class="st23 st24 st7 st8"> </text>
			<text transform="matrix(1.0058 0 0 1 408.0137 288.0186)" class="st23 st24 st7">10</text>
		</g>
	</g>
</g>
<g>
	<g>
		<defs>
			<rect id="SVGID_75_" x="309.5" y="196.1" width="436.5" height="54.9"/>
		</defs>
		<clipPath id="SVGID_76_">
			<use xlink:href="#SVGID_75_"  style="overflow:visible;"/>
		</clipPath>
		<g class="st44">
			<text transform="matrix(1.0058 0 0 1 330.8687 233.0986)" class="st23 st24 st7 st33">W</text>
			<text transform="matrix(1.0058 0 0 1 352.1919 233.0986)" class="st23 st24 st7">EEK</text>
			<text transform="matrix(1.0058 0 0 1 400.0679 233.0986)" class="st23 st24 st7 st8"> </text>
			<text transform="matrix(1.0058 0 0 1 408.0137 233.0986)" class="st23 st24 st7">11</text>
		</g>
	</g>
</g>
<g>
	<g>
		<defs>
			<rect id="SVGID_77_" x="309.5" y="141.2" width="436.5" height="54.9"/>
		</defs>
		<clipPath id="SVGID_78_">
			<use xlink:href="#SVGID_77_"  style="overflow:visible;"/>
		</clipPath>
		<g class="st45">
			<text transform="matrix(1.0058 0 0 1 330.8687 178.1797)" class="st23 st24 st7 st33">W</text>
			<text transform="matrix(1.0058 0 0 1 352.1919 178.1797)" class="st23 st24 st7">EEK</text>
			<text transform="matrix(1.0058 0 0 1 400.0679 178.1797)" class="st23 st24 st7 st8"> </text>
			<text transform="matrix(1.0058 0 0 1 408.0137 178.1797)" class="st23 st24 st7">12</text>
		</g>
	</g>
</g>
<g>
	<g>
		<defs>
			<rect id="SVGID_79_" x="309.5" y="86.3" width="436.5" height="54.9"/>
		</defs>
		<clipPath id="SVGID_80_">
			<use xlink:href="#SVGID_79_"  style="overflow:visible;"/>
		</clipPath>
		<g class="st46">
			<text transform="matrix(1.0058 0 0 1 330.8687 123.2617)" class="st23 st24 st7 st33">W</text>
			<text transform="matrix(1.0058 0 0 1 352.1919 123.2617)" class="st23 st24 st7">EEK</text>
			<text transform="matrix(1.0058 0 0 1 400.0679 123.2617)" class="st23 st24 st7 st8"> </text>
			<text transform="matrix(1.0058 0 0 1 408.0137 123.2617)" class="st23 st24 st7">13</text>
		</g>
	</g>
</g>
<g id="o9BXQ7.tif">
	
		<image style="overflow:visible;enable-background:new    ;" width="1027" height="324" id="Layer_0_1_" xlink:href="433759F3A1439ED0.png"  transform="matrix(0.1077 0 0 0.105 13.5005 481.14)">
	</image>
</g>
<g id="sMOqZ4.tif">
	
		<image style="overflow:visible;enable-background:new    ;" width="231" height="316" id="Layer_1_1_" xlink:href="85F78936E16EE8A5.png"  transform="matrix(0.1949 0 0 0.1949 239.4417 357.5537)">
	</image>
</g>
<g id="sMOqZ4.tif_1_">
	
		<image style="overflow:visible;enable-background:new    ;" width="231" height="316" id="Layer_1_2_" xlink:href="85F78936E16EE8A5.png"  transform="matrix(0.1949 0 0 0.1949 145.3187 577.2537)">
	</image>
</g>
</svg>
