<?xml version="1.0" encoding="utf-8"?>
<!-- Generator: Adobe Illustrator 20.1.0, SVG Export Plug-In . SVG Version: 6.00 Build 0)  -->
<svg version="1.1" id="Layer_1" xmlns="http://www.w3.org/2000/svg" xmlns:xlink="http://www.w3.org/1999/xlink" x="0px" y="0px"
	 viewBox="0 0 1920 1080" style="enable-background:new 0 0 1920 1080;" xml:space="preserve">
<style type="text/css">
	.st0{clip-path:url(#SVGID_2_);fill:#FFFFFF;fill-opacity:0;}
	.st1{opacity:0.851;clip-path:url(#SVGID_4_);fill:#5D9BD3;enable-background:new    ;}
	
		.st2{opacity:0.502;clip-path:url(#SVGID_6_);fill:none;stroke:#FFFFFF;stroke-linejoin:round;stroke-miterlimit:10;enable-background:new    ;}
	.st3{clip-path:url(#SVGID_8_);fill:none;stroke:#414141;stroke-width:2;stroke-linejoin:round;stroke-miterlimit:10;}
	.st4{clip-path:url(#SVGID_10_);}
	.st5{fill:#FFFFFF;}
	.st6{font-family:'Helvetica-Bold';}
	.st7{font-size:21.5339px;}
	.st8{clip-path:url(#SVGID_12_);}
	.st9{clip-path:url(#SVGID_14_);}
	.st10{clip-path:url(#SVGID_16_);}
	.st11{clip-path:url(#SVGID_18_);}
	.st12{clip-path:url(#SVGID_20_);}
	.st13{clip-path:url(#SVGID_22_);}
	.st14{clip-path:url(#SVGID_24_);}
	.st15{clip-path:url(#SVGID_26_);}
	.st16{clip-path:url(#SVGID_28_);}
	.st17{clip-path:url(#SVGID_30_);}
	.st18{clip-path:url(#SVGID_32_);}
	.st19{clip-path:url(#SVGID_34_);}
	.st20{clip-path:url(#SVGID_36_);}
	.st21{fill:#414141;}
	.st22{font-family:'Helvetica';}
	.st23{clip-path:url(#SVGID_38_);}
	.st24{clip-path:url(#SVGID_40_);}
	.st25{clip-path:url(#SVGID_42_);}
	.st26{clip-path:url(#SVGID_44_);}
	.st27{clip-path:url(#SVGID_46_);}
	.st28{clip-path:url(#SVGID_48_);}
	.st29{clip-path:url(#SVGID_50_);}
	.st30{clip-path:url(#SVGID_52_);}
	.st31{clip-path:url(#SVGID_54_);}
	.st32{clip-path:url(#SVGID_56_);}
	.st33{clip-path:url(#SVGID_58_);}
	.st34{clip-path:url(#SVGID_60_);}
	.st35{clip-path:url(#SVGID_62_);}
	.st36{clip-path:url(#SVGID_64_);}
	.st37{clip-path:url(#SVGID_66_);}
	.st38{clip-path:url(#SVGID_68_);}
	.st39{clip-path:url(#SVGID_70_);}
	.st40{clip-path:url(#SVGID_72_);}
</style>
<g>
	<g>
		<defs>
			<rect id="SVGID_1_" x="340.3" y="0.5" width="1497.8" height="899.6"/>
		</defs>
		<clipPath id="SVGID_2_">
			<use xlink:href="#SVGID_1_"  style="overflow:visible;"/>
		</clipPath>
		<rect x="340.3" y="0.5" class="st0" width="1497.8" height="899.6"/>
	</g>
</g>
<g>
	<g>
		<defs>
			<rect id="SVGID_3_" x="469.5" y="108.2" width="1284.9" height="734.5"/>
		</defs>
		<clipPath id="SVGID_4_">
			<use xlink:href="#SVGID_3_"  style="overflow:visible;"/>
		</clipPath>
		<path class="st1" d="M1009,154.9H470.7v-33.5H1009V154.9z M1004.2,212.3H470.7v-35.9h533.6L1004.2,212.3L1004.2,212.3z
			 M1035.3,267.3H470.7v-33.5h564.7L1035.3,267.3L1035.3,267.3z M1054.5,324.7H470.7v-33.5h583.8V324.7z M1190.9,379.8H470.7v-33.5
			h720.2V379.8z M1683.8,437.2H470.7v-33.5h1213.1V437.2z M1344,494.6H470.7v-35.9H1344V494.6z M1028.2,549.6H470.7v-33.5h557.5
			V549.6z M1312.9,607.1H470.7v-35.9h842.2V607.1z M1054.5,662.1H470.7v-33.5h583.8V662.1z M1207.6,719.5H470.7V686h736.9
			L1207.6,719.5L1207.6,719.5z M1004.2,774.6H470.7v-33.5h533.6L1004.2,774.6L1004.2,774.6z M812.8,832H470.7v-33.5h342.2V832H812.8
			z"/>
	</g>
	<g>
		<defs>
			<rect id="SVGID_5_" x="469.5" y="108.2" width="1284.9" height="734.5"/>
		</defs>
		<clipPath id="SVGID_6_">
			<use xlink:href="#SVGID_5_"  style="overflow:visible;"/>
		</clipPath>
		<path class="st2" d="M1009,154.9H470.7v-33.5H1009V154.9z M1004.2,212.3H470.7v-35.9h533.6L1004.2,212.3L1004.2,212.3z
			 M1035.3,267.3H470.7v-33.5h564.7L1035.3,267.3L1035.3,267.3z M1054.5,324.7H470.7v-33.5h583.8V324.7z M1190.9,379.8H470.7v-33.5
			h720.2V379.8z M1683.8,437.2H470.7v-33.5h1213.1V437.2z M1344,494.6H470.7v-35.9H1344V494.6z M1028.2,549.6H470.7v-33.5h557.5
			V549.6z M1312.9,607.1H470.7v-35.9h842.2V607.1z M1054.5,662.1H470.7v-33.5h583.8V662.1z M1207.6,719.5H470.7V686h736.9
			L1207.6,719.5L1207.6,719.5z M1004.2,774.6H470.7v-33.5h533.6L1004.2,774.6L1004.2,774.6z M812.8,832H470.7v-33.5h342.2V832H812.8
			z"/>
	</g>
</g>
<g>
	<g>
		<defs>
			<rect id="SVGID_7_" x="340.3" y="0.5" width="1497.8" height="897.2"/>
		</defs>
		<clipPath id="SVGID_8_">
			<use xlink:href="#SVGID_7_"  style="overflow:visible;"/>
		</clipPath>
		<line class="st3" x1="469.5" y1="842.7" x2="469.5" y2="110.6"/>
	</g>
</g>
<g>
	<g>
		<defs>
			<rect id="SVGID_9_" x="340.3" y="0.5" width="1497.8" height="897.2"/>
		</defs>
		<clipPath id="SVGID_10_">
			<use xlink:href="#SVGID_9_"  style="overflow:visible;"/>
		</clipPath>
		<g class="st4">
			<text transform="matrix(1 0 0 1 698.4082 823.3342)" class="st5 st6 st7">6</text>
			<text transform="matrix(1 0 0 1 710.4082 823.3342)" class="st5 st6 st7">,</text>
			<text transform="matrix(1 0 0 1 717.5082 823.3342)" class="st5 st6 st7">666</text>
			<text transform="matrix(1 0 0 1 753.5082 823.3342)" class="st5 st6 st7">,</text>
			<text transform="matrix(1 0 0 1 760.6082 823.3342)" class="st5 st6 st7">000</text>
		</g>
	</g>
</g>
<g>
	<g>
		<defs>
			<rect id="SVGID_11_" x="340.3" y="0.5" width="1497.8" height="897.2"/>
		</defs>
		<clipPath id="SVGID_12_">
			<use xlink:href="#SVGID_11_"  style="overflow:visible;"/>
		</clipPath>
		<g class="st8">
			<text transform="matrix(1 0 0 1 877.9668 766.9474)" class="st5 st6 st7">10</text>
			<text transform="matrix(1 0 0 1 901.9668 766.9474)" class="st5 st6 st7">,</text>
			<text transform="matrix(1 0 0 1 909.0668 766.9474)" class="st5 st6 st7">422</text>
			<text transform="matrix(1 0 0 1 944.9668 766.9474)" class="st5 st6 st7">,</text>
			<text transform="matrix(1 0 0 1 952.1668 766.9474)" class="st5 st6 st7">000</text>
		</g>
	</g>
</g>
<g>
	<g>
		<defs>
			<rect id="SVGID_13_" x="340.3" y="0.5" width="1497.8" height="897.2"/>
		</defs>
		<clipPath id="SVGID_14_">
			<use xlink:href="#SVGID_13_"  style="overflow:visible;"/>
		</clipPath>
		<g class="st9">
			<text transform="matrix(1 0 0 1 1079.9336 710.5627)" class="st5 st6 st7">14</text>
			<text transform="matrix(1 0 0 1 1103.9336 710.5627)" class="st5 st6 st7">,</text>
			<text transform="matrix(1 0 0 1 1111.0336 710.5627)" class="st5 st6 st7">358</text>
			<text transform="matrix(1 0 0 1 1146.9336 710.5627)" class="st5 st6 st7">,</text>
			<text transform="matrix(1 0 0 1 1154.1335 710.5627)" class="st5 st6 st7">000</text>
		</g>
	</g>
</g>
<g>
	<g>
		<defs>
			<rect id="SVGID_15_" x="340.3" y="0.5" width="1497.8" height="897.2"/>
		</defs>
		<clipPath id="SVGID_16_">
			<use xlink:href="#SVGID_15_"  style="overflow:visible;"/>
		</clipPath>
		<g class="st10">
			<text transform="matrix(1 0 0 1 927.6367 654.1769)" class="st5 st6 st7">11</text>
			<text transform="matrix(1 0 0 1 951.6367 654.1769)" class="st5 st6 st7">,</text>
			<text transform="matrix(1 0 0 1 958.7367 654.1769)" class="st5 st6 st7">390</text>
			<text transform="matrix(1 0 0 1 994.6367 654.1769)" class="st5 st6 st7">,</text>
			<text transform="matrix(1 0 0 1 1001.8367 654.1769)" class="st5 st6 st7">000</text>
		</g>
	</g>
</g>
<g>
	<g>
		<defs>
			<rect id="SVGID_17_" x="340.3" y="0.5" width="1497.8" height="897.2"/>
		</defs>
		<clipPath id="SVGID_18_">
			<use xlink:href="#SVGID_17_"  style="overflow:visible;"/>
		</clipPath>
		<g class="st11">
			<text transform="matrix(1 0 0 1 1186.252 597.7922)" class="st5 st6 st7">16</text>
			<text transform="matrix(1 0 0 1 1210.252 597.7922)" class="st5 st6 st7">,</text>
			<text transform="matrix(1 0 0 1 1217.3519 597.7922)" class="st5 st6 st7">430</text>
			<text transform="matrix(1 0 0 1 1253.252 597.7922)" class="st5 st6 st7">,</text>
			<text transform="matrix(1 0 0 1 1260.4519 597.7922)" class="st5 st6 st7">000</text>
		</g>
	</g>
</g>
<g>
	<g>
		<defs>
			<rect id="SVGID_19_" x="340.3" y="0.5" width="1497.8" height="897.2"/>
		</defs>
		<clipPath id="SVGID_20_">
			<use xlink:href="#SVGID_19_"  style="overflow:visible;"/>
		</clipPath>
		<g class="st12">
			<text transform="matrix(1 0 0 1 901.9805 541.4064)" class="st5 st6 st7">10</text>
			<text transform="matrix(1 0 0 1 925.9805 541.4064)" class="st5 st6 st7">,</text>
			<text transform="matrix(1 0 0 1 933.0805 541.4064)" class="st5 st6 st7">890</text>
			<text transform="matrix(1 0 0 1 968.9805 541.4064)" class="st5 st6 st7">,</text>
			<text transform="matrix(1 0 0 1 976.1805 541.4064)" class="st5 st6 st7">000</text>
		</g>
	</g>
</g>
<g>
	<g>
		<defs>
			<rect id="SVGID_21_" x="340.3" y="0.5" width="1497.8" height="897.2"/>
		</defs>
		<clipPath id="SVGID_22_">
			<use xlink:href="#SVGID_21_"  style="overflow:visible;"/>
		</clipPath>
		<g class="st13">
			<text transform="matrix(1 0 0 1 1216.9902 485.0246)" class="st5 st6 st7">17</text>
			<text transform="matrix(1 0 0 1 1240.9902 485.0246)" class="st5 st6 st7">,</text>
			<text transform="matrix(1 0 0 1 1248.0902 485.0246)" class="st5 st6 st7">029</text>
			<text transform="matrix(1 0 0 1 1283.9902 485.0246)" class="st5 st6 st7">,</text>
			<text transform="matrix(1 0 0 1 1291.1902 485.0246)" class="st5 st6 st7">000</text>
		</g>
	</g>
</g>
<g>
	<g>
		<defs>
			<rect id="SVGID_23_" x="340.3" y="0.5" width="1497.8" height="897.2"/>
		</defs>
		<clipPath id="SVGID_24_">
			<use xlink:href="#SVGID_23_"  style="overflow:visible;"/>
		</clipPath>
		<g class="st14">
			<text transform="matrix(1 0 0 1 1556.2168 428.6369)" class="st5 st6 st7">23</text>
			<text transform="matrix(1 0 0 1 1580.2168 428.6369)" class="st5 st6 st7">,</text>
			<text transform="matrix(1 0 0 1 1587.3168 428.6369)" class="st5 st6 st7">640</text>
			<text transform="matrix(1 0 0 1 1623.2168 428.6369)" class="st5 st6 st7">,</text>
			<text transform="matrix(1 0 0 1 1630.4167 428.6369)" class="st5 st6 st7">000</text>
		</g>
	</g>
</g>
<g>
	<g>
		<defs>
			<rect id="SVGID_25_" x="340.3" y="0.5" width="1497.8" height="897.2"/>
		</defs>
		<clipPath id="SVGID_26_">
			<use xlink:href="#SVGID_25_"  style="overflow:visible;"/>
		</clipPath>
		<g class="st15">
			<text transform="matrix(1 0 0 1 1064.1279 372.2521)" class="st5 st6 st7">14</text>
			<text transform="matrix(1 0 0 1 1088.1279 372.2521)" class="st5 st6 st7">,</text>
			<text transform="matrix(1 0 0 1 1095.2279 372.2521)" class="st5 st6 st7">050</text>
			<text transform="matrix(1 0 0 1 1131.1279 372.2521)" class="st5 st6 st7">,</text>
			<text transform="matrix(1 0 0 1 1138.3279 372.2521)" class="st5 st6 st7">000</text>
		</g>
	</g>
</g>
<g>
	<g>
		<defs>
			<rect id="SVGID_27_" x="340.3" y="0.5" width="1497.8" height="897.2"/>
		</defs>
		<clipPath id="SVGID_28_">
			<use xlink:href="#SVGID_27_"  style="overflow:visible;"/>
		</clipPath>
		<g class="st16">
			<text transform="matrix(1 0 0 1 928.2529 315.8683)" class="st5 st6 st7">11</text>
			<text transform="matrix(1 0 0 1 952.2529 315.8683)" class="st5 st6 st7">,</text>
			<text transform="matrix(1 0 0 1 959.3529 315.8683)" class="st5 st6 st7">402</text>
			<text transform="matrix(1 0 0 1 995.2529 315.8683)" class="st5 st6 st7">,</text>
			<text transform="matrix(1 0 0 1 1002.4529 315.8683)" class="st5 st6 st7">000</text>
		</g>
	</g>
</g>
<g>
	<g>
		<defs>
			<rect id="SVGID_29_" x="340.3" y="0.5" width="1497.8" height="897.2"/>
		</defs>
		<clipPath id="SVGID_30_">
			<use xlink:href="#SVGID_29_"  style="overflow:visible;"/>
		</clipPath>
		<g class="st17">
			<text transform="matrix(1 0 0 1 907.4189 259.4826)" class="st5 st6 st7">10</text>
			<text transform="matrix(1 0 0 1 931.4189 259.4826)" class="st5 st6 st7">,</text>
			<text transform="matrix(1 0 0 1 938.5189 259.4826)" class="st5 st6 st7">996</text>
			<text transform="matrix(1 0 0 1 974.4189 259.4826)" class="st5 st6 st7">,</text>
			<text transform="matrix(1 0 0 1 981.6189 259.4826)" class="st5 st6 st7">000</text>
		</g>
	</g>
</g>
<g>
	<g>
		<defs>
			<rect id="SVGID_31_" x="340.3" y="0.5" width="1497.8" height="897.2"/>
		</defs>
		<clipPath id="SVGID_32_">
			<use xlink:href="#SVGID_31_"  style="overflow:visible;"/>
		</clipPath>
		<g class="st18">
			<text transform="matrix(1 0 0 1 876.9902 203.0974)" class="st5 st6 st7">10</text>
			<text transform="matrix(1 0 0 1 900.9902 203.0974)" class="st5 st6 st7">,</text>
			<text transform="matrix(1 0 0 1 908.0901 203.0974)" class="st5 st6 st7">403</text>
			<text transform="matrix(1 0 0 1 943.9902 203.0974)" class="st5 st6 st7">,</text>
			<text transform="matrix(1 0 0 1 951.1902 203.0974)" class="st5 st6 st7">000</text>
		</g>
	</g>
</g>
<g>
	<g>
		<defs>
			<rect id="SVGID_33_" x="340.3" y="0.5" width="1497.8" height="897.2"/>
		</defs>
		<clipPath id="SVGID_34_">
			<use xlink:href="#SVGID_33_"  style="overflow:visible;"/>
		</clipPath>
		<g class="st19">
			<text transform="matrix(1 0 0 1 880.9922 146.7106)" class="st5 st6 st7">10</text>
			<text transform="matrix(1 0 0 1 904.9922 146.7106)" class="st5 st6 st7">,</text>
			<text transform="matrix(1 0 0 1 912.0922 146.7106)" class="st5 st6 st7">481</text>
			<text transform="matrix(1 0 0 1 947.9922 146.7106)" class="st5 st6 st7">,</text>
			<text transform="matrix(1 0 0 1 955.1922 146.7106)" class="st5 st6 st7">000</text>
		</g>
	</g>
</g>
<g>
	<g>
		<defs>
			<rect id="SVGID_35_" x="340.3" y="0.5" width="1497.8" height="897.2"/>
		</defs>
		<clipPath id="SVGID_36_">
			<use xlink:href="#SVGID_35_"  style="overflow:visible;"/>
		</clipPath>
		<g class="st20">
			<text transform="matrix(1 0 0 1 463.1133 878.3849)" class="st21 st22 st7">0</text>
		</g>
	</g>
</g>
<g>
	<g>
		<defs>
			<rect id="SVGID_37_" x="340.3" y="0.5" width="1497.8" height="897.2"/>
		</defs>
		<clipPath id="SVGID_38_">
			<use xlink:href="#SVGID_37_"  style="overflow:visible;"/>
		</clipPath>
		<g class="st23">
			<text transform="matrix(1 0 0 1 676.6084 878.3849)" class="st21 st22 st7">5</text>
			<text transform="matrix(1 0 0 1 688.6084 878.3849)" class="st21 st22 st7">,</text>
			<text transform="matrix(1 0 0 1 695.7084 878.3849)" class="st21 st22 st7">000</text>
			<text transform="matrix(1 0 0 1 731.7084 878.3849)" class="st21 st22 st7">,</text>
			<text transform="matrix(1 0 0 1 738.8084 878.3849)" class="st21 st22 st7">000</text>
		</g>
	</g>
</g>
<g>
	<g>
		<defs>
			<rect id="SVGID_39_" x="340.3" y="0.5" width="1497.8" height="897.2"/>
		</defs>
		<clipPath id="SVGID_40_">
			<use xlink:href="#SVGID_39_"  style="overflow:visible;"/>
		</clipPath>
		<g class="st24">
			<text transform="matrix(1 0 0 1 928.3789 878.3849)" class="st21 st22 st7">10</text>
			<text transform="matrix(1 0 0 1 952.3789 878.3849)" class="st21 st22 st7">,</text>
			<text transform="matrix(1 0 0 1 959.4789 878.3849)" class="st21 st22 st7">000</text>
			<text transform="matrix(1 0 0 1 995.3789 878.3849)" class="st21 st22 st7">,</text>
			<text transform="matrix(1 0 0 1 1002.5789 878.3849)" class="st21 st22 st7">000</text>
		</g>
	</g>
</g>
<g>
	<g>
		<defs>
			<rect id="SVGID_41_" x="340.3" y="0.5" width="1497.8" height="897.2"/>
		</defs>
		<clipPath id="SVGID_42_">
			<use xlink:href="#SVGID_41_"  style="overflow:visible;"/>
		</clipPath>
		<g class="st25">
			<text transform="matrix(1 0 0 1 1184.9434 878.3849)" class="st21 st22 st7">15</text>
			<text transform="matrix(1 0 0 1 1208.9434 878.3849)" class="st21 st22 st7">,</text>
			<text transform="matrix(1 0 0 1 1216.0433 878.3849)" class="st21 st22 st7">000</text>
			<text transform="matrix(1 0 0 1 1251.9434 878.3849)" class="st21 st22 st7">,</text>
			<text transform="matrix(1 0 0 1 1259.1433 878.3849)" class="st21 st22 st7">000</text>
		</g>
	</g>
</g>
<g>
	<g>
		<defs>
			<rect id="SVGID_43_" x="340.3" y="0.5" width="1497.8" height="897.2"/>
		</defs>
		<clipPath id="SVGID_44_">
			<use xlink:href="#SVGID_43_"  style="overflow:visible;"/>
		</clipPath>
		<g class="st26">
			<text transform="matrix(1 0 0 1 1441.5059 878.3849)" class="st21 st22 st7">20</text>
			<text transform="matrix(1 0 0 1 1465.5059 878.3849)" class="st21 st22 st7">,</text>
			<text transform="matrix(1 0 0 1 1472.6058 878.3849)" class="st21 st22 st7">000</text>
			<text transform="matrix(1 0 0 1 1508.5059 878.3849)" class="st21 st22 st7">,</text>
			<text transform="matrix(1 0 0 1 1515.7058 878.3849)" class="st21 st22 st7">000</text>
		</g>
	</g>
</g>
<g>
	<g>
		<defs>
			<rect id="SVGID_45_" x="340.3" y="0.5" width="1497.8" height="897.2"/>
		</defs>
		<clipPath id="SVGID_46_">
			<use xlink:href="#SVGID_45_"  style="overflow:visible;"/>
		</clipPath>
		<g class="st27">
			<text transform="matrix(1 0 0 1 1698.0693 878.3849)" class="st21 st22 st7">25</text>
			<text transform="matrix(1 0 0 1 1722.0693 878.3849)" class="st21 st22 st7">,</text>
			<text transform="matrix(1 0 0 1 1729.1693 878.3849)" class="st21 st22 st7">000</text>
			<text transform="matrix(1 0 0 1 1765.0693 878.3849)" class="st21 st22 st7">,</text>
			<text transform="matrix(1 0 0 1 1772.2693 878.3849)" class="st21 st22 st7">000</text>
		</g>
	</g>
</g>
<g>
	<g>
		<defs>
			<rect id="SVGID_47_" x="340.3" y="0.5" width="1497.8" height="897.2"/>
		</defs>
		<clipPath id="SVGID_48_">
			<use xlink:href="#SVGID_47_"  style="overflow:visible;"/>
		</clipPath>
		<g class="st28">
			<text transform="matrix(1 0 0 1 367.2461 823.3342)" class="st21 st22 st7">W</text>
			<text transform="matrix(1 0 0 1 386.4461 823.3342)" class="st21 st22 st7">EEK</text>
			<text transform="matrix(1 0 0 1 429.5461 823.3342)" class="st21 st22 st7"> </text>
			<text transform="matrix(1 0 0 1 436.6461 823.3342)" class="st21 st22 st7">1</text>
		</g>
	</g>
</g>
<g>
	<g>
		<defs>
			<rect id="SVGID_49_" x="340.3" y="0.5" width="1497.8" height="897.2"/>
		</defs>
		<clipPath id="SVGID_50_">
			<use xlink:href="#SVGID_49_"  style="overflow:visible;"/>
		</clipPath>
		<g class="st29">
			<text transform="matrix(1 0 0 1 367.2461 766.9474)" class="st21 st22 st7">W</text>
			<text transform="matrix(1 0 0 1 386.4461 766.9474)" class="st21 st22 st7">EEK</text>
			<text transform="matrix(1 0 0 1 429.5461 766.9474)" class="st21 st22 st7"> </text>
			<text transform="matrix(1 0 0 1 436.6461 766.9474)" class="st21 st22 st7">2</text>
		</g>
	</g>
</g>
<g>
	<g>
		<defs>
			<rect id="SVGID_51_" x="340.3" y="0.5" width="1497.8" height="897.2"/>
		</defs>
		<clipPath id="SVGID_52_">
			<use xlink:href="#SVGID_51_"  style="overflow:visible;"/>
		</clipPath>
		<g class="st30">
			<text transform="matrix(1 0 0 1 367.2461 710.5627)" class="st21 st22 st7">W</text>
			<text transform="matrix(1 0 0 1 386.4461 710.5627)" class="st21 st22 st7">EEK</text>
			<text transform="matrix(1 0 0 1 429.5461 710.5627)" class="st21 st22 st7"> </text>
			<text transform="matrix(1 0 0 1 436.6461 710.5627)" class="st21 st22 st7">3</text>
		</g>
	</g>
</g>
<g>
	<g>
		<defs>
			<rect id="SVGID_53_" x="340.3" y="0.5" width="1497.8" height="897.2"/>
		</defs>
		<clipPath id="SVGID_54_">
			<use xlink:href="#SVGID_53_"  style="overflow:visible;"/>
		</clipPath>
		<g class="st31">
			<text transform="matrix(1 0 0 1 367.2461 654.1769)" class="st21 st22 st7">W</text>
			<text transform="matrix(1 0 0 1 386.4461 654.1769)" class="st21 st22 st7">EEK</text>
			<text transform="matrix(1 0 0 1 429.5461 654.1769)" class="st21 st22 st7"> </text>
			<text transform="matrix(1 0 0 1 436.6461 654.1769)" class="st21 st22 st7">4</text>
		</g>
	</g>
</g>
<g>
	<g>
		<defs>
			<rect id="SVGID_55_" x="340.3" y="0.5" width="1497.8" height="897.2"/>
		</defs>
		<clipPath id="SVGID_56_">
			<use xlink:href="#SVGID_55_"  style="overflow:visible;"/>
		</clipPath>
		<g class="st32">
			<text transform="matrix(1 0 0 1 367.2461 597.7922)" class="st21 st22 st7">W</text>
			<text transform="matrix(1 0 0 1 386.4461 597.7922)" class="st21 st22 st7">EEK</text>
			<text transform="matrix(1 0 0 1 429.5461 597.7922)" class="st21 st22 st7"> </text>
			<text transform="matrix(1 0 0 1 436.6461 597.7922)" class="st21 st22 st7">5</text>
		</g>
	</g>
</g>
<g>
	<g>
		<defs>
			<rect id="SVGID_57_" x="340.3" y="0.5" width="1497.8" height="897.2"/>
		</defs>
		<clipPath id="SVGID_58_">
			<use xlink:href="#SVGID_57_"  style="overflow:visible;"/>
		</clipPath>
		<g class="st33">
			<text transform="matrix(1 0 0 1 367.2461 541.4064)" class="st21 st22 st7">W</text>
			<text transform="matrix(1 0 0 1 386.4461 541.4064)" class="st21 st22 st7">EEK</text>
			<text transform="matrix(1 0 0 1 429.5461 541.4064)" class="st21 st22 st7"> </text>
			<text transform="matrix(1 0 0 1 436.6461 541.4064)" class="st21 st22 st7">6</text>
		</g>
	</g>
</g>
<g>
	<g>
		<defs>
			<rect id="SVGID_59_" x="340.3" y="0.5" width="1497.8" height="897.2"/>
		</defs>
		<clipPath id="SVGID_60_">
			<use xlink:href="#SVGID_59_"  style="overflow:visible;"/>
		</clipPath>
		<g class="st34">
			<text transform="matrix(1 0 0 1 367.2461 485.0246)" class="st21 st22 st7">W</text>
			<text transform="matrix(1 0 0 1 386.4461 485.0246)" class="st21 st22 st7">EEK</text>
			<text transform="matrix(1 0 0 1 429.5461 485.0246)" class="st21 st22 st7"> </text>
			<text transform="matrix(1 0 0 1 436.6461 485.0246)" class="st21 st22 st7">7</text>
		</g>
	</g>
</g>
<g>
	<g>
		<defs>
			<rect id="SVGID_61_" x="340.3" y="0.5" width="1497.8" height="897.2"/>
		</defs>
		<clipPath id="SVGID_62_">
			<use xlink:href="#SVGID_61_"  style="overflow:visible;"/>
		</clipPath>
		<g class="st35">
			<text transform="matrix(1 0 0 1 367.2461 428.6369)" class="st21 st22 st7">W</text>
			<text transform="matrix(1 0 0 1 386.4461 428.6369)" class="st21 st22 st7">EEK</text>
			<text transform="matrix(1 0 0 1 429.5461 428.6369)" class="st21 st22 st7"> </text>
			<text transform="matrix(1 0 0 1 436.6461 428.6369)" class="st21 st22 st7">8</text>
		</g>
	</g>
</g>
<g>
	<g>
		<defs>
			<rect id="SVGID_63_" x="340.3" y="0.5" width="1497.8" height="897.2"/>
		</defs>
		<clipPath id="SVGID_64_">
			<use xlink:href="#SVGID_63_"  style="overflow:visible;"/>
		</clipPath>
		<g class="st36">
			<text transform="matrix(1 0 0 1 367.2461 372.2521)" class="st21 st22 st7">W</text>
			<text transform="matrix(1 0 0 1 386.4461 372.2521)" class="st21 st22 st7">EEK</text>
			<text transform="matrix(1 0 0 1 429.5461 372.2521)" class="st21 st22 st7"> </text>
			<text transform="matrix(1 0 0 1 436.6461 372.2521)" class="st21 st22 st7">9</text>
		</g>
	</g>
</g>
<g>
	<g>
		<defs>
			<rect id="SVGID_65_" x="340.3" y="0.5" width="1497.8" height="897.2"/>
		</defs>
		<clipPath id="SVGID_66_">
			<use xlink:href="#SVGID_65_"  style="overflow:visible;"/>
		</clipPath>
		<g class="st37">
			<text transform="matrix(1 0 0 1 356.4683 315.8683)" class="st21 st22 st7">W</text>
			<text transform="matrix(1 0 0 1 375.6683 315.8683)" class="st21 st22 st7">EEK</text>
			<text transform="matrix(1 0 0 1 418.7683 315.8683)" class="st21 st22 st7"> </text>
			<text transform="matrix(1 0 0 1 425.8683 315.8683)" class="st21 st22 st7">10</text>
		</g>
	</g>
</g>
<g>
	<g>
		<defs>
			<rect id="SVGID_67_" x="340.3" y="0.5" width="1497.8" height="897.2"/>
		</defs>
		<clipPath id="SVGID_68_">
			<use xlink:href="#SVGID_67_"  style="overflow:visible;"/>
		</clipPath>
		<g class="st38">
			<text transform="matrix(1 0 0 1 356.4683 259.4826)" class="st21 st22 st7">W</text>
			<text transform="matrix(1 0 0 1 375.6683 259.4826)" class="st21 st22 st7">EEK</text>
			<text transform="matrix(1 0 0 1 418.7683 259.4826)" class="st21 st22 st7"> </text>
			<text transform="matrix(1 0 0 1 425.8683 259.4826)" class="st21 st22 st7">11</text>
		</g>
	</g>
</g>
<g>
	<g>
		<defs>
			<rect id="SVGID_69_" x="340.3" y="0.5" width="1497.8" height="897.2"/>
		</defs>
		<clipPath id="SVGID_70_">
			<use xlink:href="#SVGID_69_"  style="overflow:visible;"/>
		</clipPath>
		<g class="st39">
			<text transform="matrix(1 0 0 1 356.4683 203.0974)" class="st21 st22 st7">W</text>
			<text transform="matrix(1 0 0 1 375.6683 203.0974)" class="st21 st22 st7">EEK</text>
			<text transform="matrix(1 0 0 1 418.7683 203.0974)" class="st21 st22 st7"> </text>
			<text transform="matrix(1 0 0 1 425.8683 203.0974)" class="st21 st22 st7">12</text>
		</g>
	</g>
</g>
<g>
	<g>
		<defs>
			<rect id="SVGID_71_" x="340.3" y="0.5" width="1497.8" height="897.2"/>
		</defs>
		<clipPath id="SVGID_72_">
			<use xlink:href="#SVGID_71_"  style="overflow:visible;"/>
		</clipPath>
		<g class="st40">
			<text transform="matrix(1 0 0 1 356.4683 146.7106)" class="st21 st22 st7">W</text>
			<text transform="matrix(1 0 0 1 375.6683 146.7106)" class="st21 st22 st7">EEK</text>
			<text transform="matrix(1 0 0 1 418.7683 146.7106)" class="st21 st22 st7"> </text>
			<text transform="matrix(1 0 0 1 425.8683 146.7106)" class="st21 st22 st7">13</text>
		</g>
	</g>
</g>
<g id="PGRVIX.tif_1_">
	
		<image style="overflow:visible;enable-background:new    ;" width="230" height="225" id="Layer_0_16_" xlink:href="BC18D4089B1F506A.png"  transform="matrix(0.2115 0 0 0.2172 71.741 785.968)">
	</image>
</g>
<g id="bOPcjd.tif_7_">
	
		<image style="overflow:visible;enable-background:new    ;" width="2243" height="730" id="Layer_0_14_" xlink:href="BC18D4089B1F506E.png"  transform="matrix(3.680813e-02 0 0 3.518115e-02 88.1134 743.5981)">
	</image>
</g>
<g id="wKwky3.tif">
	
		<image style="overflow:visible;enable-background:new    ;" width="219" height="128" id="Layer_0_1_" xlink:href="BC18D4089B1F5069.png"  transform="matrix(0.4021 0 0 0.3981 126.8801 784.9218)">
	</image>
</g>
<g id="wQhMA0.tif">
	
		<image style="overflow:visible;enable-background:new    ;" width="443" height="530" id="Layer_1_2_" xlink:href="BC18D4089B1F506B.png"  transform="matrix(8.963247e-02 0 0 9.076419e-02 221.4296 786.3505)">
	</image>
</g>
<g id="c3phE0.tif">
	
		<image style="overflow:visible;enable-background:new    ;" width="645" height="369" id="Layer_0_2_" xlink:href="BC18D4089B1F5068.png"  transform="matrix(0.1184 0 0 0.1164 180.7673 734.9652)">
	</image>
</g>
<g id="Coui19.tif">
	
		<image style="overflow:visible;enable-background:new    ;" width="250" height="187" id="Layer_0_3_" xlink:href="BC18D4089B1F5076.png"  transform="matrix(0.2663 0 0 0.266 185.652 671.5737)">
	</image>
</g>
<g id="VIq4KM.tif">
	
		<image style="overflow:visible;enable-background:new    ;" width="404" height="133" id="Layer_0_5_" xlink:href="BC18D4089B1F5079.png"  transform="matrix(0.2006 0 0 0.1904 153.2656 627.3832)">
	</image>
</g>
<g id="ZpwBCZ.tif">
	
		<image style="overflow:visible;enable-background:new    ;" width="171" height="215" id="Layer_1_1_" xlink:href="BC18D4089B1F507A.png"  transform="matrix(0.2242 0 0 0.2242 240.2472 615.9433)">
	</image>
</g>
<g id="w36oHx.tif">
	
		<image style="overflow:visible;enable-background:new    ;" width="294" height="377" id="Layer_1_4_" xlink:href="BC18D4089B1F5078.png"  transform="matrix(0.1426 0 0 0.1418 166.1884 559.6122)">
	</image>
</g>
<g id="_x30_mV7Dq.tif">
	
		<image style="overflow:visible;enable-background:new    ;" width="1552" height="1704" id="Layer_1_5_" xlink:href="2F96A53E6B869FAD.png"  transform="matrix(3.207272e-02 0 0 3.220043e-02 218.5205 558.9225)">
	</image>
</g>
<g id="GGTsFL.tif">
	
		<image style="overflow:visible;enable-background:new    ;" width="1010" height="1010" id="Layer_0_12_" xlink:href="2F96A53E6B869FA3.png"  transform="matrix(5.547352e-02 0 0 5.547352e-02 179.3357 392.393)">
	</image>
</g>
<g id="D9bVEV.tif">
	
		<image style="overflow:visible;enable-background:new    ;" width="740" height="1031" id="Layer_0_13_" xlink:href="2F96A53E6B869FA5.png"  transform="matrix(4.334433e-02 0 0 4.413433e-02 239.3041 397.6558)">
	</image>
</g>
<g id="D58d0B.tif">
	
		<image style="overflow:visible;enable-background:new    ;" width="2004" height="874" id="Layer_0_25_" xlink:href="2F96A53E6B869FA7.png"  transform="matrix(3.878547e-02 0 0 3.843156e-02 92.1558 403.6125)">
	</image>
</g>
<g id="CoFqoU.tif_4_">
	
		<image style="overflow:visible;enable-background:new    ;" width="1422" height="664" id="Layer_0_26_" xlink:href="2F96A53E6B869FA4.png"  transform="matrix(5.216350e-02 0 0 5.212148e-02 52.0252 454.9957)">
	</image>
</g>
<g id="i9YXY4.tif_4_">
	
		<image style="overflow:visible;enable-background:new    ;" width="1967" height="454" id="Layer_0_24_" xlink:href="2F96A53E6B869FBC.png"  transform="matrix(8.562496e-02 0 0 8.365946e-02 130.7312 453.3093)">
	</image>
</g>
<g id="bOPcjd.tif_1_">
	
		<image style="overflow:visible;enable-background:new    ;" width="2243" height="730" id="Layer_0_4_" xlink:href="2F96A53E6B869FBD.png"  transform="matrix(3.680813e-02 0 0 3.518115e-02 89.1134 683.6008)">
	</image>
</g>
<g id="bOPcjd.tif_2_">
	
		<image style="overflow:visible;enable-background:new    ;" width="2243" height="730" id="Layer_0_6_" xlink:href="2F96A53E6B869FBF.png"  transform="matrix(3.680813e-02 0 0 3.518115e-02 64.7633 627.2045)">
	</image>
</g>
<g id="bOPcjd.tif_3_">
	
		<image style="overflow:visible;enable-background:new    ;" width="2243" height="730" id="Layer_0_7_" xlink:href="2F96A53E6B869FBB.png"  transform="matrix(3.680813e-02 0 0 3.518115e-02 73.0508 570.8083)">
	</image>
</g>
<g id="VIq4KM.tif_1_">
	
		<image style="overflow:visible;enable-background:new    ;" width="404" height="133" id="Layer_0_9_" xlink:href="2F96A53E6B869FA6.png"  transform="matrix(0.2006 0 0 0.1904 152.2656 517.5438)">
	</image>
</g>
<g id="ZpwBCZ.tif_1_">
	
		<image style="overflow:visible;enable-background:new    ;" width="171" height="215" id="Layer_1_3_" xlink:href="2F96A53E6B869FD8.png"  transform="matrix(0.2242 0 0 0.2242 239.2472 506.1039)">
	</image>
</g>
<g id="bOPcjd.tif_4_">
	
		<image style="overflow:visible;enable-background:new    ;" width="2243" height="730" id="Layer_0_8_" xlink:href="2F96A53E6B869FDB.png"  transform="matrix(3.680813e-02 0 0 3.518115e-02 63.7633 517.3652)">
	</image>
</g>
<g id="Coui19.tif_1_">
	
		<image style="overflow:visible;enable-background:new    ;" width="250" height="187" id="Layer_0_11_" xlink:href="2F96A53E6B869FD9.png"  transform="matrix(0.2663 0 0 0.266 195.7453 336.0823)">
	</image>
</g>
<g id="bOPcjd.tif_5_">
	
		<image style="overflow:visible;enable-background:new    ;" width="2243" height="730" id="Layer_0_10_" xlink:href="2F96A53E6B869FD7.png"  transform="matrix(3.680813e-02 0 0 3.518115e-02 99.2067 348.1094)">
	</image>
</g>
<g id="CoFqoU.tif_1_">
	
		<image style="overflow:visible;enable-background:new    ;" width="1422" height="664" id="Layer_0_17_" xlink:href="2F96A53E6B869FC8.png"  transform="matrix(5.216350e-02 0 0 5.212148e-02 57.2022 116.7021)">
	</image>
</g>
<g id="i9YXY4.tif_1_">
	
		<image style="overflow:visible;enable-background:new    ;" width="1967" height="454" id="Layer_0_15_" xlink:href="2F96A53E6B869FCB.png"  transform="matrix(8.562496e-02 0 0 8.365946e-02 135.9081 115.0158)">
	</image>
</g>
<g id="CoFqoU.tif_2_">
	
		<image style="overflow:visible;enable-background:new    ;" width="1422" height="664" id="Layer_0_19_" xlink:href="2F96A53E6B869FC9.png"  transform="matrix(5.216350e-02 0 0 5.212148e-02 57.2022 171.0801)">
	</image>
</g>
<g id="i9YXY4.tif_2_">
	
		<image style="overflow:visible;enable-background:new    ;" width="1967" height="454" id="Layer_0_18_" xlink:href="2F96A53E6B869FCF.png"  transform="matrix(8.562496e-02 0 0 8.365946e-02 135.9081 169.3938)">
	</image>
</g>
<g id="CoFqoU.tif_3_">
	
		<image style="overflow:visible;enable-background:new    ;" width="1422" height="664" id="Layer_0_21_" xlink:href="2F96A53E6B869FCA.png"  transform="matrix(5.216350e-02 0 0 5.212148e-02 58.2022 225.4582)">
	</image>
</g>
<g id="i9YXY4.tif_3_">
	
		<image style="overflow:visible;enable-background:new    ;" width="1967" height="454" id="Layer_0_20_" xlink:href="2F96A53E6B869FF5.png"  transform="matrix(8.562496e-02 0 0 8.365946e-02 136.9082 223.7718)">
	</image>
</g>
<g id="CoFqoU.tif_5_">
	
		<image style="overflow:visible;enable-background:new    ;" width="1422" height="664" id="Layer_0_23_" xlink:href="2F96A53E6B869FEF.png"  transform="matrix(5.216350e-02 0 0 5.212148e-02 58.2022 283.4032)">
	</image>
</g>
<g id="i9YXY4.tif_5_">
	
		<image style="overflow:visible;enable-background:new    ;" width="1967" height="454" id="Layer_0_22_" xlink:href="2F96A53E6B869FED.png"  transform="matrix(8.562496e-02 0 0 8.365946e-02 136.9082 281.7168)">
	</image>
</g>
</svg>
