<?xml version="1.0" encoding="utf-8"?>
<!-- Generator: Adobe Illustrator 20.1.0, SVG Export Plug-In . SVG Version: 6.00 Build 0)  -->
<svg version="1.1" id="Layer_1" xmlns="http://www.w3.org/2000/svg" xmlns:xlink="http://www.w3.org/1999/xlink" x="0px" y="0px"
	 viewBox="0 0 2173 1080" style="enable-background:new 0 0 2173 1080;" xml:space="preserve">
<style type="text/css">
	.st0{clip-path:url(#SVGID_2_);fill:#FFFFFF;fill-opacity:0;}
	.st1{opacity:0.851;clip-path:url(#SVGID_4_);fill:#5D9BD3;enable-background:new    ;}
	
		.st2{opacity:0.502;clip-path:url(#SVGID_6_);fill:none;stroke:#FFFFFF;stroke-linejoin:round;stroke-miterlimit:10;enable-background:new    ;}
	.st3{clip-path:url(#SVGID_8_);fill:none;stroke:#414141;stroke-width:2;stroke-linejoin:round;stroke-miterlimit:10;}
	.st4{clip-path:url(#SVGID_10_);}
	.st5{fill:#FFFFFF;}
	.st6{font-family:'Helvetica-Bold';}
	.st7{font-size:19.0321px;}
	.st8{clip-path:url(#SVGID_12_);}
	.st9{clip-path:url(#SVGID_14_);}
	.st10{clip-path:url(#SVGID_16_);}
	.st11{clip-path:url(#SVGID_18_);}
	.st12{clip-path:url(#SVGID_20_);}
	.st13{clip-path:url(#SVGID_22_);}
	.st14{clip-path:url(#SVGID_24_);}
	.st15{clip-path:url(#SVGID_26_);}
	.st16{clip-path:url(#SVGID_28_);}
	.st17{clip-path:url(#SVGID_30_);}
	.st18{clip-path:url(#SVGID_32_);}
	.st19{clip-path:url(#SVGID_34_);}
	.st20{clip-path:url(#SVGID_36_);}
	.st21{fill:#414141;}
	.st22{font-family:'Helvetica';}
	.st23{clip-path:url(#SVGID_38_);}
	.st24{clip-path:url(#SVGID_40_);}
	.st25{clip-path:url(#SVGID_42_);}
	.st26{clip-path:url(#SVGID_44_);}
	.st27{clip-path:url(#SVGID_46_);}
	.st28{clip-path:url(#SVGID_48_);}
	.st29{clip-path:url(#SVGID_50_);}
	.st30{clip-path:url(#SVGID_52_);}
	.st31{clip-path:url(#SVGID_54_);}
	.st32{clip-path:url(#SVGID_56_);}
	.st33{clip-path:url(#SVGID_58_);}
	.st34{clip-path:url(#SVGID_60_);}
	.st35{clip-path:url(#SVGID_62_);}
	.st36{clip-path:url(#SVGID_64_);}
	.st37{clip-path:url(#SVGID_66_);}
	.st38{clip-path:url(#SVGID_68_);}
	.st39{clip-path:url(#SVGID_70_);}
	.st40{clip-path:url(#SVGID_72_);}
</style>
<g id="zmt8nu_1_">
	
		<image style="overflow:visible;enable-background:new    ;" width="86" height="69" id="zmt8nu_2_" xlink:href="BB0D153AAB245096.jpg"  transform="matrix(0.721 0 0 0.7085 262.3803 880.3195)">
	</image>
</g>
<g id="_x32_lxIng_1_">
	
		<image style="overflow:visible;enable-background:new    ;" width="131" height="80" id="_x32_lxIng_2_" xlink:href="BB0D153AAB24509A.jpg"  transform="matrix(0.6674 0 0 0.6696 343.0537 752.4563)">
	</image>
</g>
<g id="TtfhjR_1_">
	
		<image style="overflow:visible;enable-background:new    ;" width="130" height="92" id="TtfhjR_2_" xlink:href="BB0D153AAB24509B.jpg"  transform="matrix(0.6482 0 0 0.6437 251.2506 752.4563)">
	</image>
</g>
<g id="i27lhN_1_">
	
		<image style="overflow:visible;enable-background:new    ;" width="88" height="89" id="i27lhN_2_" xlink:href="BB0D153AAB24509C.jpg"  transform="matrix(0.6945 0 0 0.6867 356.2068 685.2503)">
	</image>
</g>
<g id="f0MQru_1_">
	
		<image style="overflow:visible;enable-background:new    ;" width="124" height="79" id="f0MQru_2_" xlink:href="BB0D153AAB24509D.jpg"  transform="matrix(0.7164 0 0 0.7131 248.966 687.6434)">
	</image>
</g>
<g id="srYbfR_1_">
	
		<image style="overflow:visible;enable-background:new    ;" width="114" height="90" id="srYbfR_2_" xlink:href="BB0D153AAB245098.jpg"  transform="matrix(0.6121 0 0 0.6163 351.8782 622.4047)">
	</image>
</g>
<g id="_x35_pMGsS_1_">
	
		<image style="overflow:visible;enable-background:new    ;" width="84" height="84" id="_x35_pMGsS_2_" xlink:href="BB0D153AAB245099.jpg"  transform="matrix(0.7567 0 0 0.7582 354.983 554.2398)">
	</image>
</g>
<g id="s33UTz_1_">
	
		<image style="overflow:visible;enable-background:new    ;" width="90" height="68" id="s33UTz_2_" xlink:href="BB0D153AAB245088.jpg"  transform="matrix(0.805 0 0 0.8095 257.159 558.5624)">
	</image>
</g>
<g id="u88Cmu_1_">
	
		<image style="overflow:visible;enable-background:new    ;" width="126" height="48" id="u88Cmu_2_" xlink:href="BB0D153AAB245089.jpg"  transform="matrix(0.7523 0 0 0.7584 339.3687 501.0385)">
	</image>
</g>
<g id="zgSXZc_1_">
	
		<image style="overflow:visible;enable-background:new    ;" width="120" height="82" id="zgSXZc_2_" xlink:href="8E4117ABC3FA52E.jpg"  transform="matrix(0.7488 0 0 0.7459 341.8377 423.9672)">
	</image>
</g>
<g id="sSd21v_3_">
	
		<image style="overflow:visible;enable-background:new    ;" width="87" height="77" id="sSd21v_4_" xlink:href="8E4117ABC3FA52A.jpg"  transform="matrix(0.7874 0 0 0.7829 259.1313 424.4056)">
	</image>
</g>
<g id="v0J1Mg_1_">
	
		<image style="overflow:visible;enable-background:new    ;" width="78" height="67" id="v0J1Mg_2_" xlink:href="8E4117ABC3FA529.jpg"  transform="matrix(1.0084 0 0 1.0257 347.44 355.6374)">
	</image>
</g>
<g id="OEcQYL_1_">
	
		<image style="overflow:visible;enable-background:new    ;" width="131" height="75" id="OEcQYL_2_" xlink:href="8E4117ABC3FA526.jpg"  transform="matrix(0.7503 0 0 0.7506 244.2355 361.8499)">
	</image>
</g>
<g id="tvd1EC_1_">
	
		<image style="overflow:visible;enable-background:new    ;" width="78" height="82" id="tvd1EC_2_" xlink:href="8E4117ABC3FA539.jpg"  transform="matrix(0.8761 0 0 0.8767 352.5974 226.6981)">
	</image>
</g>
<g id="_x33_y1nDC_1_">
	
		<image style="overflow:visible;enable-background:new    ;" width="132" height="71" id="_x33_y1nDC_2_" xlink:href="8E4117ABC3FA53E.jpg"  transform="matrix(0.7114 0 0 0.7122 246.4268 105.5918)">
	</image>
</g>
<g id="HWp2fq_1_">
	
		<image style="overflow:visible;enable-background:new    ;" width="122" height="47" id="HWp2fq_2_" xlink:href="8E4117ABC3FA53C.jpg"  transform="matrix(0.7885 0 0 0.7935 338.6662 891.9127)">
	</image>
</g>
<g id="_x32_lxIng_3_">
	
		<image style="overflow:visible;enable-background:new    ;" width="131" height="82" id="_x32_lxIng_4_" xlink:href="8E4117ABC3FA534.jpg"  transform="matrix(0.6674 0 0 0.6533 249.6695 623.3568)">
	</image>
</g>
<g id="_x32_lxIng_5_">
	
		<image style="overflow:visible;enable-background:new    ;" width="131" height="82" id="_x32_lxIng_6_" xlink:href="8E4117ABC3FA535.jpg"  transform="matrix(0.6674 0 0 0.6533 249.6695 235.8583)">
	</image>
</g>
<g id="OEcQYL_3_">
	
		<image style="overflow:visible;enable-background:new    ;" width="131" height="75" id="OEcQYL_4_" xlink:href="8E4117ABC3FA536.jpg"  transform="matrix(0.7503 0 0 0.7506 244.2355 168.7862)">
	</image>
</g>
<g id="sSd21v_1_">
	
		<image style="overflow:visible;enable-background:new    ;" width="85" height="75" id="sSd21v_2_" xlink:href="8E4117ABC3FA55F.jpg"  transform="matrix(0.8059 0 0 0.8038 259.1313 815.5167)">
	</image>
</g>
<g>
	<g>
		<defs>
			<rect id="SVGID_1_" x="469.9" y="66" width="1637.9" height="974.9"/>
		</defs>
		<clipPath id="SVGID_2_">
			<use xlink:href="#SVGID_1_"  style="overflow:visible;"/>
		</clipPath>
		<rect x="469.9" y="66" class="st0" width="1637.9" height="974.9"/>
	</g>
</g>
<g>
	<g>
		<defs>
			<rect id="SVGID_3_" x="585.2" y="93.5" width="1447.8" height="841.6"/>
		</defs>
		<clipPath id="SVGID_4_">
			<use xlink:href="#SVGID_3_"  style="overflow:visible;"/>
		</clipPath>
		<path class="st1" d="M1613.4,147.4H586.3v-40.2h1027.1L1613.4,147.4L1613.4,147.4z M1651.8,210.9H586.3v-38.1h1065.6L1651.8,210.9
			L1651.8,210.9z M1668.9,276.4H586.3v-40.2H1669L1668.9,276.4L1668.9,276.4z M1888.9,339.9H586.3v-38.1h1302.6L1888.9,339.9
			L1888.9,339.9z M1645.4,405.4H586.3v-40.2h1059.2L1645.4,405.4L1645.4,405.4z M1628.3,468.8h-1042v-38.1h1042.1L1628.3,468.8
			L1628.3,468.8z M1609.1,534.4H586.3v-40.2h1022.9L1609.1,534.4L1609.1,534.4z M1372.1,597.8H586.3v-38.1h785.8V597.8z
			 M1547.2,663.4H586.3v-40.2h960.9V663.4z M1630.5,726.8H586.3v-38.1h1044.2V726.8z M1777.8,792.4H586.3v-38.1h1191.6L1777.8,792.4
			L1777.8,792.4z M1891,857.9H586.3v-40.2H1891V857.9z M1920.9,921.4H586.3v-38.1h1334.6L1920.9,921.4L1920.9,921.4z"/>
	</g>
	<g>
		<defs>
			<rect id="SVGID_5_" x="585.2" y="93.5" width="1447.8" height="841.6"/>
		</defs>
		<clipPath id="SVGID_6_">
			<use xlink:href="#SVGID_5_"  style="overflow:visible;"/>
		</clipPath>
		<path class="st2" d="M1613.4,147.4H586.3v-40.2h1027.1L1613.4,147.4L1613.4,147.4z M1651.8,210.9H586.3v-38.1h1065.6L1651.8,210.9
			L1651.8,210.9z M1668.9,276.4H586.3v-40.2H1669L1668.9,276.4L1668.9,276.4z M1888.9,339.9H586.3v-38.1h1302.6L1888.9,339.9
			L1888.9,339.9z M1645.4,405.4H586.3v-40.2h1059.2L1645.4,405.4L1645.4,405.4z M1628.3,468.8h-1042v-38.1h1042.1L1628.3,468.8
			L1628.3,468.8z M1609.1,534.4H586.3v-40.2h1022.9L1609.1,534.4L1609.1,534.4z M1372.1,597.8H586.3v-38.1h785.8V597.8z
			 M1547.2,663.4H586.3v-40.2h960.9V663.4z M1630.5,726.8H586.3v-38.1h1044.2V726.8z M1777.8,792.4H586.3v-38.1h1191.6L1777.8,792.4
			L1777.8,792.4z M1891,857.9H586.3v-40.2H1891V857.9z M1920.9,921.4H586.3v-38.1h1334.6L1920.9,921.4L1920.9,921.4z"/>
	</g>
</g>
<g>
	<g>
		<defs>
			<rect id="SVGID_7_" x="469.9" y="66" width="1637.9" height="972.8"/>
		</defs>
		<clipPath id="SVGID_8_">
			<use xlink:href="#SVGID_7_"  style="overflow:visible;"/>
		</clipPath>
		<line class="st3" x1="585.2" y1="935.1" x2="585.2" y2="95.6"/>
	</g>
</g>
<g>
	<g>
		<defs>
			<rect id="SVGID_9_" x="469.9" y="66" width="1637.9" height="972.8"/>
		</defs>
		<clipPath id="SVGID_10_">
			<use xlink:href="#SVGID_9_"  style="overflow:visible;"/>
		</clipPath>
		<g class="st4">
			<text transform="matrix(1.0098 0 0 1 1807.0859 909.5654)" class="st5 st6 st7">23</text>
			<text transform="matrix(1.0098 0 0 1 1828.4941 909.5654)" class="st5 st6 st7">,</text>
			<text transform="matrix(1.0098 0 0 1 1834.8555 909.5654)" class="st5 st6 st7">078</text>
			<text transform="matrix(1.0098 0 0 1 1866.9678 909.5654)" class="st5 st6 st7">,</text>
			<text transform="matrix(1.0098 0 0 1 1873.3291 909.5654)" class="st5 st6 st7">000</text>
		</g>
	</g>
</g>
<g>
	<g>
		<defs>
			<rect id="SVGID_11_" x="469.9" y="66" width="1637.9" height="972.8"/>
		</defs>
		<clipPath id="SVGID_12_">
			<use xlink:href="#SVGID_11_"  style="overflow:visible;"/>
		</clipPath>
		<g class="st8">
			<text transform="matrix(1.0098 0 0 1 1777.7607 845.0059)" class="st5 st6 st7">22</text>
			<text transform="matrix(1.0098 0 0 1 1799.1689 845.0059)" class="st5 st6 st7">,</text>
			<text transform="matrix(1.0098 0 0 1 1805.5303 845.0059)" class="st5 st6 st7">571</text>
			<text transform="matrix(1.0098 0 0 1 1837.6426 845.0059)" class="st5 st6 st7">,</text>
			<text transform="matrix(1.0098 0 0 1 1844.0039 845.0059)" class="st5 st6 st7">000</text>
		</g>
	</g>
</g>
<g>
	<g>
		<defs>
			<rect id="SVGID_13_" x="469.9" y="66" width="1637.9" height="972.8"/>
		</defs>
		<clipPath id="SVGID_14_">
			<use xlink:href="#SVGID_13_"  style="overflow:visible;"/>
		</clipPath>
		<g class="st9">
			<text transform="matrix(1.0098 0 0 1 1664.7402 780.4482)" class="st5 st6 st7">20</text>
			<text transform="matrix(1.0098 0 0 1 1686.1484 780.4482)" class="st5 st6 st7">,</text>
			<text transform="matrix(1.0098 0 0 1 1692.5098 780.4482)" class="st5 st6 st7">617</text>
			<text transform="matrix(1.0098 0 0 1 1724.6221 780.4482)" class="st5 st6 st7">,</text>
			<text transform="matrix(1.0098 0 0 1 1730.9834 780.4482)" class="st5 st6 st7">000</text>
		</g>
	</g>
</g>
<g>
	<g>
		<defs>
			<rect id="SVGID_15_" x="469.9" y="66" width="1637.9" height="972.8"/>
		</defs>
		<clipPath id="SVGID_16_">
			<use xlink:href="#SVGID_15_"  style="overflow:visible;"/>
		</clipPath>
		<g class="st10">
			<text transform="matrix(1.0098 0 0 1 1516.6709 715.8896)" class="st5 st6 st7">18</text>
			<text transform="matrix(1.0098 0 0 1 1538.0791 715.8896)" class="st5 st6 st7">,</text>
			<text transform="matrix(1.0098 0 0 1 1544.4404 715.8896)" class="st5 st6 st7">057</text>
			<text transform="matrix(1.0098 0 0 1 1576.5527 715.8896)" class="st5 st6 st7">,</text>
			<text transform="matrix(1.0098 0 0 1 1582.9141 715.8896)" class="st5 st6 st7">000</text>
		</g>
	</g>
</g>
<g>
	<g>
		<defs>
			<rect id="SVGID_17_" x="469.9" y="66" width="1637.9" height="972.8"/>
		</defs>
		<clipPath id="SVGID_18_">
			<use xlink:href="#SVGID_17_"  style="overflow:visible;"/>
		</clipPath>
		<g class="st11">
			<text transform="matrix(1.0098 0 0 1 1433.6709 651.3301)" class="st5 st6 st7">16</text>
			<text transform="matrix(1.0098 0 0 1 1455.0791 651.3301)" class="st5 st6 st7">,</text>
			<text transform="matrix(1.0098 0 0 1 1461.4404 651.3301)" class="st5 st6 st7">622</text>
			<text transform="matrix(1.0098 0 0 1 1493.5527 651.3301)" class="st5 st6 st7">,</text>
			<text transform="matrix(1.0098 0 0 1 1499.9141 651.3301)" class="st5 st6 st7">000</text>
		</g>
	</g>
</g>
<g>
	<g>
		<defs>
			<rect id="SVGID_19_" x="469.9" y="66" width="1637.9" height="972.8"/>
		</defs>
		<clipPath id="SVGID_20_">
			<use xlink:href="#SVGID_19_"  style="overflow:visible;"/>
		</clipPath>
		<g class="st12">
			<text transform="matrix(1.0098 0 0 1 1258.5879 586.7715)" class="st5 st6 st7">13</text>
			<text transform="matrix(1.0098 0 0 1 1279.9961 586.7715)" class="st5 st6 st7">,</text>
			<text transform="matrix(1.0098 0 0 1 1286.3574 586.7715)" class="st5 st6 st7">595</text>
			<text transform="matrix(1.0098 0 0 1 1318.4697 586.7715)" class="st5 st6 st7">,</text>
			<text transform="matrix(1.0098 0 0 1 1324.8311 586.7715)" class="st5 st6 st7">000</text>
		</g>
	</g>
</g>
<g>
	<g>
		<defs>
			<rect id="SVGID_21_" x="469.9" y="66" width="1637.9" height="972.8"/>
		</defs>
		<clipPath id="SVGID_22_">
			<use xlink:href="#SVGID_21_"  style="overflow:visible;"/>
		</clipPath>
		<g class="st13">
			<text transform="matrix(1.0098 0 0 1 1496.4268 522.2129)" class="st5 st6 st7">17</text>
			<text transform="matrix(1.0098 0 0 1 1517.835 522.2129)" class="st5 st6 st7">,</text>
			<text transform="matrix(1.0098 0 0 1 1524.1963 522.2129)" class="st5 st6 st7">707</text>
			<text transform="matrix(1.0098 0 0 1 1556.3086 522.2129)" class="st5 st6 st7">,</text>
			<text transform="matrix(1.0098 0 0 1 1562.6699 522.2129)" class="st5 st6 st7">000</text>
		</g>
	</g>
</g>
<g>
	<g>
		<defs>
			<rect id="SVGID_23_" x="469.9" y="66" width="1637.9" height="972.8"/>
		</defs>
		<clipPath id="SVGID_24_">
			<use xlink:href="#SVGID_23_"  style="overflow:visible;"/>
		</clipPath>
		<g class="st14">
			<text transform="matrix(1.0098 0 0 1 1514.7041 457.6533)" class="st5 st6 st7">18</text>
			<text transform="matrix(1.0098 0 0 1 1536.1123 457.6533)" class="st5 st6 st7">,</text>
			<text transform="matrix(1.0098 0 0 1 1542.4736 457.6533)" class="st5 st6 st7">023</text>
			<text transform="matrix(1.0098 0 0 1 1574.5859 457.6533)" class="st5 st6 st7">,</text>
			<text transform="matrix(1.0098 0 0 1 1580.9473 457.6533)" class="st5 st6 st7">000</text>
		</g>
	</g>
</g>
<g>
	<g>
		<defs>
			<rect id="SVGID_25_" x="469.9" y="66" width="1637.9" height="972.8"/>
		</defs>
		<clipPath id="SVGID_26_">
			<use xlink:href="#SVGID_25_"  style="overflow:visible;"/>
		</clipPath>
		<g class="st15">
			<text transform="matrix(1.0098 0 0 1 1532.1719 393.0967)" class="st5 st6 st7">18</text>
			<text transform="matrix(1.0098 0 0 1 1553.5801 393.0967)" class="st5 st6 st7">,</text>
			<text transform="matrix(1.0098 0 0 1 1559.9414 393.0967)" class="st5 st6 st7">325</text>
			<text transform="matrix(1.0098 0 0 1 1592.0537 393.0967)" class="st5 st6 st7">,</text>
			<text transform="matrix(1.0098 0 0 1 1598.415 393.0967)" class="st5 st6 st7">000</text>
		</g>
	</g>
</g>
<g>
	<g>
		<defs>
			<rect id="SVGID_27_" x="469.9" y="66" width="1637.9" height="972.8"/>
		</defs>
		<clipPath id="SVGID_28_">
			<use xlink:href="#SVGID_27_"  style="overflow:visible;"/>
		</clipPath>
		<g class="st16">
			<text transform="matrix(1.0098 0 0 1 1774.4062 328.5371)" class="st5 st6 st7">22</text>
			<text transform="matrix(1.0098 0 0 1 1795.8145 328.5371)" class="st5 st6 st7">,</text>
			<text transform="matrix(1.0098 0 0 1 1802.1758 328.5371)" class="st5 st6 st7">513</text>
			<text transform="matrix(1.0098 0 0 1 1834.2881 328.5371)" class="st5 st6 st7">,</text>
			<text transform="matrix(1.0098 0 0 1 1840.6494 328.5371)" class="st5 st6 st7">000</text>
		</g>
	</g>
</g>
<g>
	<g>
		<defs>
			<rect id="SVGID_29_" x="469.9" y="66" width="1637.9" height="972.8"/>
		</defs>
		<clipPath id="SVGID_30_">
			<use xlink:href="#SVGID_29_"  style="overflow:visible;"/>
		</clipPath>
		<g class="st17">
			<text transform="matrix(1.0098 0 0 1 1555.5391 263.9785)" class="st5 st6 st7">18</text>
			<text transform="matrix(1.0098 0 0 1 1576.9473 263.9785)" class="st5 st6 st7">,</text>
			<text transform="matrix(1.0098 0 0 1 1583.3086 263.9785)" class="st5 st6 st7">729</text>
			<text transform="matrix(1.0098 0 0 1 1615.4209 263.9785)" class="st5 st6 st7">,</text>
			<text transform="matrix(1.0098 0 0 1 1621.7822 263.9785)" class="st5 st6 st7">000</text>
		</g>
	</g>
</g>
<g>
	<g>
		<defs>
			<rect id="SVGID_31_" x="469.9" y="66" width="1637.9" height="972.8"/>
		</defs>
		<clipPath id="SVGID_32_">
			<use xlink:href="#SVGID_31_"  style="overflow:visible;"/>
		</clipPath>
		<g class="st18">
			<text transform="matrix(1.0098 0 0 1 1538.5918 199.4199)" class="st5 st6 st7">18</text>
			<text transform="matrix(1.0098 0 0 1 1560 199.4199)" class="st5 st6 st7">,</text>
			<text transform="matrix(1.0098 0 0 1 1566.3613 199.4199)" class="st5 st6 st7">436</text>
			<text transform="matrix(1.0098 0 0 1 1598.4736 199.4199)" class="st5 st6 st7">,</text>
			<text transform="matrix(1.0098 0 0 1 1604.835 199.4199)" class="st5 st6 st7">000</text>
		</g>
	</g>
</g>
<g>
	<g>
		<defs>
			<rect id="SVGID_33_" x="469.9" y="66" width="1637.9" height="972.8"/>
		</defs>
		<clipPath id="SVGID_34_">
			<use xlink:href="#SVGID_33_"  style="overflow:visible;"/>
		</clipPath>
		<g class="st19">
			<text transform="matrix(1.0098 0 0 1 1499.0303 134.8613)" class="st5 st6 st7">17</text>
			<text transform="matrix(1.0098 0 0 1 1520.4385 134.8613)" class="st5 st6 st7">,</text>
			<text transform="matrix(1.0098 0 0 1 1526.7998 134.8613)" class="st5 st6 st7">752</text>
			<text transform="matrix(1.0098 0 0 1 1558.9121 134.8613)" class="st5 st6 st7">,</text>
			<text transform="matrix(1.0098 0 0 1 1565.2734 134.8613)" class="st5 st6 st7">000</text>
		</g>
	</g>
</g>
<g>
	<g>
		<defs>
			<rect id="SVGID_35_" x="469.9" y="66" width="1637.9" height="972.8"/>
		</defs>
		<clipPath id="SVGID_36_">
			<use xlink:href="#SVGID_35_"  style="overflow:visible;"/>
		</clipPath>
		<g class="st20">
			<text transform="matrix(1.0098 0 0 1 580.5684 965.583)" class="st21 st22 st7">0</text>
		</g>
	</g>
</g>
<g>
	<g>
		<defs>
			<rect id="SVGID_37_" x="469.9" y="66" width="1637.9" height="972.8"/>
		</defs>
		<clipPath id="SVGID_38_">
			<use xlink:href="#SVGID_37_"  style="overflow:visible;"/>
		</clipPath>
		<g class="st23">
			<text transform="matrix(1.0098 0 0 1 831.3301 965.583)" class="st21 st22 st7">5</text>
			<text transform="matrix(1.0098 0 0 1 842.0337 965.583)" class="st21 st22 st7">,</text>
			<text transform="matrix(1.0098 0 0 1 848.3955 965.583)" class="st21 st22 st7">000</text>
			<text transform="matrix(1.0098 0 0 1 880.5073 965.583)" class="st21 st22 st7">,</text>
			<text transform="matrix(1.0098 0 0 1 886.8691 965.583)" class="st21 st22 st7">000</text>
		</g>
	</g>
</g>
<g>
	<g>
		<defs>
			<rect id="SVGID_39_" x="469.9" y="66" width="1637.9" height="972.8"/>
		</defs>
		<clipPath id="SVGID_40_">
			<use xlink:href="#SVGID_39_"  style="overflow:visible;"/>
		</clipPath>
		<g class="st24">
			<text transform="matrix(1.0098 0 0 1 1114.1182 965.583)" class="st21 st22 st7">10</text>
			<text transform="matrix(1.0098 0 0 1 1135.5264 965.583)" class="st21 st22 st7">,</text>
			<text transform="matrix(1.0098 0 0 1 1141.8877 965.583)" class="st21 st22 st7">000</text>
			<text transform="matrix(1.0098 0 0 1 1174 965.583)" class="st21 st22 st7">,</text>
			<text transform="matrix(1.0098 0 0 1 1180.3613 965.583)" class="st21 st22 st7">000</text>
		</g>
	</g>
</g>
<g>
	<g>
		<defs>
			<rect id="SVGID_41_" x="469.9" y="66" width="1637.9" height="972.8"/>
		</defs>
		<clipPath id="SVGID_42_">
			<use xlink:href="#SVGID_41_"  style="overflow:visible;"/>
		</clipPath>
		<g class="st25">
			<text transform="matrix(1.0098 0 0 1 1403.3193 965.583)" class="st21 st22 st7">15</text>
			<text transform="matrix(1.0098 0 0 1 1424.7275 965.583)" class="st21 st22 st7">,</text>
			<text transform="matrix(1.0098 0 0 1 1431.0889 965.583)" class="st21 st22 st7">000</text>
			<text transform="matrix(1.0098 0 0 1 1463.2012 965.583)" class="st21 st22 st7">,</text>
			<text transform="matrix(1.0098 0 0 1 1469.5625 965.583)" class="st21 st22 st7">000</text>
		</g>
	</g>
</g>
<g>
	<g>
		<defs>
			<rect id="SVGID_43_" x="469.9" y="66" width="1637.9" height="972.8"/>
		</defs>
		<clipPath id="SVGID_44_">
			<use xlink:href="#SVGID_43_"  style="overflow:visible;"/>
		</clipPath>
		<g class="st26">
			<text transform="matrix(1.0098 0 0 1 1692.5195 965.583)" class="st21 st22 st7">20</text>
			<text transform="matrix(1.0098 0 0 1 1713.9277 965.583)" class="st21 st22 st7">,</text>
			<text transform="matrix(1.0098 0 0 1 1720.2891 965.583)" class="st21 st22 st7">000</text>
			<text transform="matrix(1.0098 0 0 1 1752.4014 965.583)" class="st21 st22 st7">,</text>
			<text transform="matrix(1.0098 0 0 1 1758.7627 965.583)" class="st21 st22 st7">000</text>
		</g>
	</g>
</g>
<g>
	<g>
		<defs>
			<rect id="SVGID_45_" x="469.9" y="66" width="1637.9" height="972.8"/>
		</defs>
		<clipPath id="SVGID_46_">
			<use xlink:href="#SVGID_45_"  style="overflow:visible;"/>
		</clipPath>
		<g class="st27">
			<text transform="matrix(1.0098 0 0 1 1981.7188 965.583)" class="st21 st22 st7">25</text>
			<text transform="matrix(1.0098 0 0 1 2003.127 965.583)" class="st21 st22 st7">,</text>
			<text transform="matrix(1.0098 0 0 1 2009.4883 965.583)" class="st21 st22 st7">000</text>
			<text transform="matrix(1.0098 0 0 1 2041.6006 965.583)" class="st21 st22 st7">,</text>
			<text transform="matrix(1.0098 0 0 1 2047.9619 965.583)" class="st21 st22 st7">000</text>
		</g>
	</g>
</g>
<g>
	<g>
		<defs>
			<rect id="SVGID_47_" x="469.9" y="66" width="1637.9" height="972.8"/>
		</defs>
		<clipPath id="SVGID_48_">
			<use xlink:href="#SVGID_47_"  style="overflow:visible;"/>
		</clipPath>
		<g class="st28">
			<text transform="matrix(1.0098 0 0 1 495.543 909.5654)" class="st21 st22 st7">W</text>
			<text transform="matrix(1.0098 0 0 1 512.6084 909.5654)" class="st21 st22 st7">EEK</text>
			<text transform="matrix(1.0098 0 0 1 551.082 909.5654)" class="st21 st22 st7"> </text>
			<text transform="matrix(1.0098 0 0 1 557.5444 909.5654)" class="st21 st22 st7">1</text>
		</g>
	</g>
</g>
<g>
	<g>
		<defs>
			<rect id="SVGID_49_" x="469.9" y="66" width="1637.9" height="972.8"/>
		</defs>
		<clipPath id="SVGID_50_">
			<use xlink:href="#SVGID_49_"  style="overflow:visible;"/>
		</clipPath>
		<g class="st29">
			<text transform="matrix(1.0098 0 0 1 495.543 845.0059)" class="st21 st22 st7">W</text>
			<text transform="matrix(1.0098 0 0 1 512.6084 845.0059)" class="st21 st22 st7">EEK</text>
			<text transform="matrix(1.0098 0 0 1 551.082 845.0059)" class="st21 st22 st7"> </text>
			<text transform="matrix(1.0098 0 0 1 557.5444 845.0059)" class="st21 st22 st7">2</text>
		</g>
	</g>
</g>
<g>
	<g>
		<defs>
			<rect id="SVGID_51_" x="469.9" y="66" width="1637.9" height="972.8"/>
		</defs>
		<clipPath id="SVGID_52_">
			<use xlink:href="#SVGID_51_"  style="overflow:visible;"/>
		</clipPath>
		<g class="st30">
			<text transform="matrix(1.0098 0 0 1 495.543 780.4482)" class="st21 st22 st7">W</text>
			<text transform="matrix(1.0098 0 0 1 512.6084 780.4482)" class="st21 st22 st7">EEK</text>
			<text transform="matrix(1.0098 0 0 1 551.082 780.4482)" class="st21 st22 st7"> </text>
			<text transform="matrix(1.0098 0 0 1 557.5444 780.4482)" class="st21 st22 st7">3</text>
		</g>
	</g>
</g>
<g>
	<g>
		<defs>
			<rect id="SVGID_53_" x="469.9" y="66" width="1637.9" height="972.8"/>
		</defs>
		<clipPath id="SVGID_54_">
			<use xlink:href="#SVGID_53_"  style="overflow:visible;"/>
		</clipPath>
		<g class="st31">
			<text transform="matrix(1.0098 0 0 1 495.543 715.8896)" class="st21 st22 st7">W</text>
			<text transform="matrix(1.0098 0 0 1 512.6084 715.8896)" class="st21 st22 st7">EEK</text>
			<text transform="matrix(1.0098 0 0 1 551.082 715.8896)" class="st21 st22 st7"> </text>
			<text transform="matrix(1.0098 0 0 1 557.5444 715.8896)" class="st21 st22 st7">4</text>
		</g>
	</g>
</g>
<g>
	<g>
		<defs>
			<rect id="SVGID_55_" x="469.9" y="66" width="1637.9" height="972.8"/>
		</defs>
		<clipPath id="SVGID_56_">
			<use xlink:href="#SVGID_55_"  style="overflow:visible;"/>
		</clipPath>
		<g class="st32">
			<text transform="matrix(1.0098 0 0 1 495.543 651.3301)" class="st21 st22 st7">W</text>
			<text transform="matrix(1.0098 0 0 1 512.6084 651.3301)" class="st21 st22 st7">EEK</text>
			<text transform="matrix(1.0098 0 0 1 551.082 651.3301)" class="st21 st22 st7"> </text>
			<text transform="matrix(1.0098 0 0 1 557.5444 651.3301)" class="st21 st22 st7">5</text>
		</g>
	</g>
</g>
<g>
	<g>
		<defs>
			<rect id="SVGID_57_" x="469.9" y="66" width="1637.9" height="972.8"/>
		</defs>
		<clipPath id="SVGID_58_">
			<use xlink:href="#SVGID_57_"  style="overflow:visible;"/>
		</clipPath>
		<g class="st33">
			<text transform="matrix(1.0098 0 0 1 495.543 586.7725)" class="st21 st22 st7">W</text>
			<text transform="matrix(1.0098 0 0 1 512.6084 586.7725)" class="st21 st22 st7">EEK</text>
			<text transform="matrix(1.0098 0 0 1 551.082 586.7725)" class="st21 st22 st7"> </text>
			<text transform="matrix(1.0098 0 0 1 557.5444 586.7725)" class="st21 st22 st7">6</text>
		</g>
	</g>
</g>
<g>
	<g>
		<defs>
			<rect id="SVGID_59_" x="469.9" y="66" width="1637.9" height="972.8"/>
		</defs>
		<clipPath id="SVGID_60_">
			<use xlink:href="#SVGID_59_"  style="overflow:visible;"/>
		</clipPath>
		<g class="st34">
			<text transform="matrix(1.0098 0 0 1 495.543 522.2129)" class="st21 st22 st7">W</text>
			<text transform="matrix(1.0098 0 0 1 512.6084 522.2129)" class="st21 st22 st7">EEK</text>
			<text transform="matrix(1.0098 0 0 1 551.082 522.2129)" class="st21 st22 st7"> </text>
			<text transform="matrix(1.0098 0 0 1 557.5444 522.2129)" class="st21 st22 st7">7</text>
		</g>
	</g>
</g>
<g>
	<g>
		<defs>
			<rect id="SVGID_61_" x="469.9" y="66" width="1637.9" height="972.8"/>
		</defs>
		<clipPath id="SVGID_62_">
			<use xlink:href="#SVGID_61_"  style="overflow:visible;"/>
		</clipPath>
		<g class="st35">
			<text transform="matrix(1.0098 0 0 1 495.543 457.6533)" class="st21 st22 st7">W</text>
			<text transform="matrix(1.0098 0 0 1 512.6084 457.6533)" class="st21 st22 st7">EEK</text>
			<text transform="matrix(1.0098 0 0 1 551.082 457.6533)" class="st21 st22 st7"> </text>
			<text transform="matrix(1.0098 0 0 1 557.5444 457.6533)" class="st21 st22 st7">8</text>
		</g>
	</g>
</g>
<g>
	<g>
		<defs>
			<rect id="SVGID_63_" x="469.9" y="66" width="1637.9" height="972.8"/>
		</defs>
		<clipPath id="SVGID_64_">
			<use xlink:href="#SVGID_63_"  style="overflow:visible;"/>
		</clipPath>
		<g class="st36">
			<text transform="matrix(1.0098 0 0 1 495.543 393.0967)" class="st21 st22 st7">W</text>
			<text transform="matrix(1.0098 0 0 1 512.6084 393.0967)" class="st21 st22 st7">EEK</text>
			<text transform="matrix(1.0098 0 0 1 551.082 393.0967)" class="st21 st22 st7"> </text>
			<text transform="matrix(1.0098 0 0 1 557.5444 393.0967)" class="st21 st22 st7">9</text>
		</g>
	</g>
</g>
<g>
	<g>
		<defs>
			<rect id="SVGID_65_" x="469.9" y="66" width="1637.9" height="972.8"/>
		</defs>
		<clipPath id="SVGID_66_">
			<use xlink:href="#SVGID_65_"  style="overflow:visible;"/>
		</clipPath>
		<g class="st37">
			<text transform="matrix(1.0098 0 0 1 483.7866 328.5371)" class="st21 st22 st7">W</text>
			<text transform="matrix(1.0098 0 0 1 500.8521 328.5371)" class="st21 st22 st7">EEK</text>
			<text transform="matrix(1.0098 0 0 1 539.3257 328.5371)" class="st21 st22 st7"> </text>
			<text transform="matrix(1.0098 0 0 1 545.7881 328.5371)" class="st21 st22 st7">10</text>
		</g>
	</g>
</g>
<g>
	<g>
		<defs>
			<rect id="SVGID_67_" x="469.9" y="66" width="1637.9" height="972.8"/>
		</defs>
		<clipPath id="SVGID_68_">
			<use xlink:href="#SVGID_67_"  style="overflow:visible;"/>
		</clipPath>
		<g class="st38">
			<text transform="matrix(1.0098 0 0 1 483.7866 263.9785)" class="st21 st22 st7">W</text>
			<text transform="matrix(1.0098 0 0 1 500.8521 263.9785)" class="st21 st22 st7">EEK</text>
			<text transform="matrix(1.0098 0 0 1 539.3257 263.9785)" class="st21 st22 st7"> </text>
			<text transform="matrix(1.0098 0 0 1 545.7881 263.9785)" class="st21 st22 st7">11</text>
		</g>
	</g>
</g>
<g>
	<g>
		<defs>
			<rect id="SVGID_69_" x="469.9" y="66" width="1637.9" height="972.8"/>
		</defs>
		<clipPath id="SVGID_70_">
			<use xlink:href="#SVGID_69_"  style="overflow:visible;"/>
		</clipPath>
		<g class="st39">
			<text transform="matrix(1.0098 0 0 1 483.7866 199.4199)" class="st21 st22 st7">W</text>
			<text transform="matrix(1.0098 0 0 1 500.8521 199.4199)" class="st21 st22 st7">EEK</text>
			<text transform="matrix(1.0098 0 0 1 539.3257 199.4199)" class="st21 st22 st7"> </text>
			<text transform="matrix(1.0098 0 0 1 545.7881 199.4199)" class="st21 st22 st7">12</text>
		</g>
	</g>
</g>
<g>
	<g>
		<defs>
			<rect id="SVGID_71_" x="469.9" y="66" width="1637.9" height="972.8"/>
		</defs>
		<clipPath id="SVGID_72_">
			<use xlink:href="#SVGID_71_"  style="overflow:visible;"/>
		</clipPath>
		<g class="st40">
			<text transform="matrix(1.0098 0 0 1 483.7866 134.8613)" class="st21 st22 st7">W</text>
			<text transform="matrix(1.0098 0 0 1 500.8521 134.8613)" class="st21 st22 st7">EEK</text>
			<text transform="matrix(1.0098 0 0 1 539.3257 134.8613)" class="st21 st22 st7"> </text>
			<text transform="matrix(1.0098 0 0 1 545.7881 134.8613)" class="st21 st22 st7">13</text>
		</g>
	</g>
</g>
<g id="p5OtjX.tif">
	
		<image style="overflow:visible;enable-background:new    ;" width="202" height="200" id="Layer_0_1_" xlink:href="8E4117ABC3FA55D.png"  transform="matrix(0.5792 0 0 0.5762 70.3313 456.6775)">
	</image>
</g>
<g id="sMOqZ4.tif">
	
		<image style="overflow:visible;enable-background:new    ;" width="231" height="316" id="Layer_1_1_" xlink:href="85F78936E16EE8A5.png"  transform="matrix(0.1949 0 0 0.1949 364.2537 814.8629)">
	</image>
</g>
<g id="zmt8nu_3_">
	
		<image style="overflow:visible;enable-background:new    ;" width="86" height="69" id="zmt8nu_4_" xlink:href="8E4117ABC3FA554.jpg"  transform="matrix(0.721 0 0 0.7085 262.3803 491.696)">
	</image>
</g>
<g id="HWp2fq_3_">
	
		<image style="overflow:visible;enable-background:new    ;" width="122" height="47" id="HWp2fq_4_" xlink:href="8E4117ABC3FA557.jpg"  transform="matrix(0.7885 0 0 0.7935 228.1838 308.4644)">
	</image>
</g>
<g id="f0MQru_3_">
	
		<image style="overflow:visible;enable-background:new    ;" width="124" height="79" id="f0MQru_4_" xlink:href="8E4117ABC3FA553.jpg"  transform="matrix(0.7164 0 0 0.7131 342.3502 166.1607)">
	</image>
</g>
<g id="u88Cmu_3_">
	
		<image style="overflow:visible;enable-background:new    ;" width="126" height="48" id="u88Cmu_4_" xlink:href="8E4117ABC3FA54B.jpg"  transform="matrix(0.7523 0 0 0.7584 339.3687 112.6748)">
	</image>
</g>
<g id="u88Cmu_5_">
	
		<image style="overflow:visible;enable-background:new    ;" width="126" height="48" id="u88Cmu_6_" xlink:href="8E4117ABC3FA54C.jpg"  transform="matrix(0.7523 0 0 0.7584 339.7662 308.9109)">
	</image>
</g>
</svg>
