<svg id="Layer_1" data-name="Layer 1" xmlns="http://www.w3.org/2000/svg" xmlns:xlink="http://www.w3.org/1999/xlink" viewBox="0 0 1883.26 951"><defs><style>.cls-1,.cls-6,.cls-8{fill:none;}.cls-2{clip-path:url(#clip-path);}.cls-10,.cls-11,.cls-3,.cls-9{fill:#fff;}.cls-3{fill-opacity:0;}.cls-4{clip-path:url(#clip-path-2);}.cls-5{fill:#5d9bd3;opacity:0.85;}.cls-10,.cls-11,.cls-12,.cls-13,.cls-14,.cls-16,.cls-27,.cls-28,.cls-31,.cls-32,.cls-33,.cls-34,.cls-5,.cls-6,.cls-9{isolation:isolate;}.cls-6{stroke:#fff;opacity:0.5;}.cls-6,.cls-8{stroke-linejoin:round;}.cls-7{clip-path:url(#clip-path-4);}.cls-8{stroke:#414141;stroke-width:2px;}.cls-10,.cls-11,.cls-12,.cls-13,.cls-14,.cls-16,.cls-28,.cls-32,.cls-33,.cls-34,.cls-9{font-size:29.31px;}.cls-10,.cls-11,.cls-9{font-family:Helvetica-Bold, Helvetica;font-weight:700;}.cls-10,.cls-14{letter-spacing:0.04em;}.cls-11,.cls-13{letter-spacing:0.04em;}.cls-12,.cls-13,.cls-14,.cls-16,.cls-28,.cls-32,.cls-33,.cls-34{fill:#414141;font-family:Helvetica, Helvetica;}.cls-15{clip-path:url(#clip-path-25);}.cls-16{letter-spacing:-0.04em;}.cls-17{clip-path:url(#clip-path-26);}.cls-18{clip-path:url(#clip-path-27);}.cls-19{clip-path:url(#clip-path-28);}.cls-20{clip-path:url(#clip-path-29);}.cls-21{clip-path:url(#clip-path-30);}.cls-22{clip-path:url(#clip-path-31);}.cls-23{clip-path:url(#clip-path-32);}.cls-24{clip-path:url(#clip-path-33);}.cls-25{clip-path:url(#clip-path-34);}.cls-26{clip-path:url(#clip-path-35);}.cls-28{letter-spacing:-0.07em;}.cls-29{clip-path:url(#clip-path-36);}.cls-30{clip-path:url(#clip-path-37);}.cls-31{fill:#f3f3f3;opacity:0.39;}.cls-32{letter-spacing:-0.07em;}.cls-33{letter-spacing:-0.02em;}.cls-34{letter-spacing:-0.04em;}</style><clipPath id="clip-path" transform="translate(-10.92)"><rect class="cls-1" x="360.38" width="1533.8" height="951"/></clipPath><clipPath id="clip-path-2" transform="translate(-10.92)"><rect class="cls-1" x="525.78" y="42.4" width="1261.3" height="742.6"/></clipPath><clipPath id="clip-path-4" transform="translate(-10.92)"><rect class="cls-1" x="360.38" width="1533.8" height="947.7"/></clipPath><clipPath id="clip-path-25" transform="translate(-10.92)"><rect class="cls-1" x="360.38" y="728.3" width="453.3" height="57.2"/></clipPath><clipPath id="clip-path-26" transform="translate(-10.92)"><rect class="cls-1" x="360.38" y="671.2" width="453.3" height="57.2"/></clipPath><clipPath id="clip-path-27" transform="translate(-10.92)"><rect class="cls-1" x="360.38" y="614" width="453.3" height="57.2"/></clipPath><clipPath id="clip-path-28" transform="translate(-10.92)"><rect class="cls-1" x="360.38" y="556.8" width="453.3" height="57.2"/></clipPath><clipPath id="clip-path-29" transform="translate(-10.92)"><rect class="cls-1" x="360.38" y="499.7" width="453.3" height="57.2"/></clipPath><clipPath id="clip-path-30" transform="translate(-10.92)"><rect class="cls-1" x="360.38" y="442.5" width="453.3" height="57.2"/></clipPath><clipPath id="clip-path-31" transform="translate(-10.92)"><rect class="cls-1" x="360.38" y="385.3" width="453.3" height="57.2"/></clipPath><clipPath id="clip-path-32" transform="translate(-10.92)"><rect class="cls-1" x="360.38" y="328.2" width="453.3" height="57.2"/></clipPath><clipPath id="clip-path-33" transform="translate(-10.92)"><rect class="cls-1" x="360.38" y="271" width="453.3" height="57.2"/></clipPath><clipPath id="clip-path-34" transform="translate(-10.92)"><rect class="cls-1" x="360.38" y="213.9" width="499.3" height="57.2"/></clipPath><clipPath id="clip-path-35" transform="translate(-10.92)"><rect class="cls-1" x="360.38" y="156.7" width="499.3" height="57.2"/></clipPath><clipPath id="clip-path-36" transform="translate(-10.92)"><rect class="cls-1" x="360.38" y="99.5" width="499.3" height="57.2"/></clipPath><clipPath id="clip-path-37" transform="translate(-10.92)"><rect class="cls-1" x="360.38" y="42.4" width="499.3" height="57.2"/></clipPath></defs><title>Thursday_Night_NFL</title><g class="cls-2"><rect class="cls-3" x="349.46" width="1533.8" height="951"/></g><g class="cls-4"><path class="cls-5" d="M1439.58,89.6H527.28V53.8h912.3V89.6Zm-36.8,55.4H527.28V112.4h875.6Zm-315.3,58.6H527.28V167.8h560.2Zm-321.4,55.3H527.28V226.3h238.8Zm6.1,58.7H527.28V281.7h244.9Zm-33.7,55.3H527.28V340.3h211.2Zm382.7,58.7H527.28V395.7h593.9Zm33.7,55.3H527.28V454.3h627.6Zm-122.5,58.6H527.28V509.7h505.1Zm-174.5,58.7H527.28V568.4h330.6ZM1262,659.5H527.28V623.7H1262Zm-88.8,58.7h-646V682.4h646Zm410.3,55.3H527.28V740.9h1056.2Z" transform="translate(-10.92)"/></g><g class="cls-4"><path class="cls-6" d="M1439.58,89.6H527.28V53.8h912.3V89.6Zm-36.8,55.4H527.28V112.4h875.6Zm-315.3,58.6H527.28V167.8h560.2Zm-321.4,55.3H527.28V226.3h238.8Zm6.1,58.7H527.28V281.7h244.9Zm-33.7,55.3H527.28V340.3h211.2Zm382.7,58.7H527.28V395.7h593.9Zm33.7,55.3H527.28V454.3h627.6Zm-122.5,58.6H527.28V509.7h505.1Zm-174.5,58.7H527.28V568.4h330.6ZM1262,659.5H527.28V623.7H1262Zm-88.8,58.7h-646V682.4h646Zm410.3,55.3H527.28V740.9h1056.2Z" transform="translate(-10.92)"/></g><g class="cls-7"><line class="cls-8" x1="514.86" y1="784.9" x2="514.86" y2="42.4"/></g><g class="cls-7"><text class="cls-9" transform="translate(1411.46 768.62) scale(0.94 1)">25</text><text class="cls-10" transform="translate(1442.1 768.62) scale(0.94 1)">,</text><text class="cls-9" transform="translate(1451.31 768.62) scale(0.94 1)">186</text><text class="cls-10" transform="translate(1497.28 768.62) scale(0.94 1)">,</text><text class="cls-9" transform="translate(1506.4 768.62) scale(0.94 1)">000</text></g><g class="cls-7"><text class="cls-9" transform="translate(1000.54 711.46) scale(0.94 1)">15</text><text class="cls-10" transform="translate(1031.18 711.46) scale(0.94 1)">,</text><text class="cls-9" transform="translate(1040.39 711.46) scale(0.94 1)">392</text><text class="cls-10" transform="translate(1086.36 711.46) scale(0.94 1)">,</text><text class="cls-9" transform="translate(1095.48 711.46) scale(0.94 1)">000</text></g><g class="cls-7"><text class="cls-9" transform="translate(1091 654.3) scale(0.94 1)">17</text><text class="cls-10" transform="translate(1121.64 654.3) scale(0.94 1)">,</text><text class="cls-9" transform="translate(1130.85 654.3) scale(0.94 1)">548</text><text class="cls-10" transform="translate(1176.82 654.3) scale(0.94 1)">,</text><text class="cls-9" transform="translate(1185.94 654.3) scale(0.94 1)">000</text></g><g class="cls-7"><text class="cls-9" transform="translate(699.79 597.14) scale(0.94 1)">7</text><text class="cls-11" transform="translate(715.11 597.14) scale(0.94 1)">,</text><text class="cls-9" transform="translate(724.32 597.14) scale(0.94 1)">895</text><text class="cls-11" transform="translate(770.29 597.14) scale(0.94 1)">,</text><text class="cls-9" transform="translate(779.4 597.14) scale(0.94 1)">000</text></g><g class="cls-7"><text class="cls-9" transform="translate(861.33 539.97) scale(0.94 1)">12</text><text class="cls-11" transform="translate(891.97 539.97) scale(0.94 1)">,</text><text class="cls-9" transform="translate(901.18 539.97) scale(0.94 1)">074</text><text class="cls-10" transform="translate(947.15 539.97) scale(0.94 1)">,</text><text class="cls-9" transform="translate(956.27 539.97) scale(0.94 1)">000</text></g><g class="cls-7"><text class="cls-9" transform="translate(981.95 482.81) scale(0.94 1)">14</text><text class="cls-10" transform="translate(1012.6 482.81) scale(0.94 1)">,</text><text class="cls-9" transform="translate(1021.81 482.81) scale(0.94 1)">949</text><text class="cls-10" transform="translate(1067.77 482.81) scale(0.94 1)">,</text><text class="cls-9" transform="translate(1076.89 482.81) scale(0.94 1)">000</text></g><g class="cls-7"><text class="cls-9" transform="translate(950.61 425.65) scale(0.94 1)">14</text><text class="cls-10" transform="translate(981.25 425.65) scale(0.94 1)">,</text><text class="cls-9" transform="translate(990.47 425.65) scale(0.94 1)">202</text><text class="cls-10" transform="translate(1036.43 425.65) scale(0.94 1)">,</text><text class="cls-9" transform="translate(1045.55 425.65) scale(0.94 1)">000</text></g><g class="cls-7"><text class="cls-9" transform="translate(581.17 368.48) scale(0.94 1)">5</text><text class="cls-11" transform="translate(596.5 368.48) scale(0.94 1)">,</text><text class="cls-9" transform="translate(605.71 368.48) scale(0.94 1)">068</text><text class="cls-11" transform="translate(651.67 368.48) scale(0.94 1)">,</text><text class="cls-9" transform="translate(660.79 368.48) scale(0.94 1)">000</text></g><g class="cls-7"><text class="cls-9" transform="translate(613.77 311.32) scale(0.94 1)">5</text><text class="cls-11" transform="translate(629.1 311.32) scale(0.94 1)">,</text><text class="cls-9" transform="translate(638.31 311.32) scale(0.94 1)">845</text><text class="cls-11" transform="translate(684.27 311.32) scale(0.94 1)">,</text><text class="cls-9" transform="translate(693.39 311.32) scale(0.94 1)">000</text></g><g class="cls-7"><text class="cls-9" transform="translate(607.69 254.16) scale(0.94 1)">5</text><text class="cls-11" transform="translate(623.01 254.16) scale(0.94 1)">,</text><text class="cls-9" transform="translate(632.22 254.16) scale(0.94 1)">700</text><text class="cls-11" transform="translate(678.19 254.16) scale(0.94 1)">,</text><text class="cls-9" transform="translate(687.31 254.16) scale(0.94 1)">000</text></g><g class="cls-7"><text class="cls-9" transform="translate(914.15 197) scale(0.94 1)">13</text><text class="cls-10" transform="translate(944.79 197) scale(0.94 1)">,</text><text class="cls-9" transform="translate(954.01 197) scale(0.94 1)">333</text><text class="cls-10" transform="translate(999.97 197) scale(0.94 1)">,</text><text class="cls-9" transform="translate(1009.09 197) scale(0.94 1)">000</text></g><g class="cls-7"><text class="cls-9" transform="translate(1230.88 139.83) scale(0.94 1)">20</text><text class="cls-10" transform="translate(1261.52 139.83) scale(0.94 1)">,</text><text class="cls-9" transform="translate(1270.73 139.83) scale(0.94 1)">882</text><text class="cls-10" transform="translate(1316.7 139.83) scale(0.94 1)">,</text><text class="cls-9" transform="translate(1325.82 139.83) scale(0.94 1)">000</text></g><g class="cls-7"><text class="cls-9" transform="translate(1267.84 82.67) scale(0.94 1)">21</text><text class="cls-10" transform="translate(1298.49 82.67) scale(0.94 1)">,</text><text class="cls-9" transform="translate(1307.7 82.67) scale(0.94 1)">763</text><text class="cls-10" transform="translate(1353.66 82.67) scale(0.94 1)">,</text><text class="cls-9" transform="translate(1362.78 82.67) scale(0.94 1)">000</text></g><g class="cls-7"><text class="cls-12" transform="translate(508.19 833.77) scale(0.94 1)">0</text></g><g class="cls-7"><text class="cls-12" transform="translate(662.87 833.77) scale(0.94 1)">5</text><text class="cls-13" transform="translate(678.19 833.77) scale(0.94 1)">,</text><text class="cls-12" transform="translate(687.4 833.77) scale(0.94 1)">000</text><text class="cls-13" transform="translate(733.37 833.77) scale(0.94 1)">,</text><text class="cls-12" transform="translate(742.49 833.77) scale(0.94 1)">000</text></g><g class="cls-7"><text class="cls-12" transform="translate(863.46 833.77) scale(0.94 1)">10</text><text class="cls-13" transform="translate(894.1 833.77) scale(0.94 1)">,</text><text class="cls-12" transform="translate(903.32 833.77) scale(0.94 1)">000</text><text class="cls-14" transform="translate(949.28 833.77) scale(0.94 1)">,</text><text class="cls-12" transform="translate(958.4 833.77) scale(0.94 1)">000</text></g><g class="cls-7"><text class="cls-12" transform="translate(1073.24 833.77) scale(0.94 1)">15</text><text class="cls-14" transform="translate(1103.88 833.77) scale(0.94 1)">,</text><text class="cls-12" transform="translate(1113.09 833.77) scale(0.94 1)">000</text><text class="cls-14" transform="translate(1159.06 833.77) scale(0.94 1)">,</text><text class="cls-12" transform="translate(1168.18 833.77) scale(0.94 1)">000</text></g><g class="cls-7"><text class="cls-12" transform="translate(1283.02 833.77) scale(0.94 1)">20</text><text class="cls-14" transform="translate(1313.67 833.77) scale(0.94 1)">,</text><text class="cls-12" transform="translate(1322.88 833.77) scale(0.94 1)">000</text><text class="cls-14" transform="translate(1368.84 833.77) scale(0.94 1)">,</text><text class="cls-12" transform="translate(1377.96 833.77) scale(0.94 1)">000</text></g><g class="cls-7"><text class="cls-12" transform="translate(1492.8 833.77) scale(0.94 1)">25</text><text class="cls-14" transform="translate(1523.45 833.77) scale(0.94 1)">,</text><text class="cls-12" transform="translate(1532.66 833.77) scale(0.94 1)">000</text><text class="cls-14" transform="translate(1578.62 833.77) scale(0.94 1)">,</text><text class="cls-12" transform="translate(1587.74 833.77) scale(0.94 1)">000</text></g><g class="cls-7"><text class="cls-12" transform="translate(1702.58 833.77) scale(0.94 1)">30</text><text class="cls-14" transform="translate(1733.23 833.77) scale(0.94 1)">,</text><text class="cls-12" transform="translate(1742.44 833.77) scale(0.94 1)">000</text><text class="cls-14" transform="translate(1788.4 833.77) scale(0.94 1)">,</text><text class="cls-12" transform="translate(1797.52 833.77) scale(0.94 1)">000</text></g><g class="cls-15"><text class="cls-16" transform="translate(384.77 768.62) scale(0.94 1)">W</text><text class="cls-12" transform="translate(409.3 768.62) scale(0.94 1)">EEK</text><text class="cls-12" transform="translate(473.6 768.62) scale(0.94 1)">1</text></g><g class="cls-17"><text class="cls-16" transform="translate(384.77 711.46) scale(0.94 1)">W</text><text class="cls-12" transform="translate(409.3 711.46) scale(0.94 1)">EEK</text><text class="cls-12" transform="translate(473.6 711.46) scale(0.94 1)">2</text></g><g class="cls-18"><text class="cls-16" transform="translate(384.77 654.3) scale(0.94 1)">W</text><text class="cls-12" transform="translate(409.3 654.3) scale(0.94 1)">EEK</text><text class="cls-12" transform="translate(473.6 654.3) scale(0.94 1)">3</text></g><g class="cls-19"><text class="cls-16" transform="translate(384.77 597.14) scale(0.94 1)">W</text><text class="cls-12" transform="translate(409.3 597.14) scale(0.94 1)">EEK</text><text class="cls-12" transform="translate(473.6 597.14) scale(0.94 1)">4</text></g><g class="cls-20"><text class="cls-16" transform="translate(384.77 539.97) scale(0.94 1)">W</text><text class="cls-12" transform="translate(409.3 539.97) scale(0.94 1)">EEK</text><text class="cls-12" transform="translate(473.6 539.97) scale(0.94 1)">5</text></g><g class="cls-21"><text class="cls-16" transform="translate(384.77 482.81) scale(0.94 1)">W</text><text class="cls-12" transform="translate(409.3 482.81) scale(0.94 1)">EEK</text><text class="cls-12" transform="translate(473.6 482.81) scale(0.94 1)">6</text></g><g class="cls-22"><text class="cls-16" transform="translate(384.77 425.65) scale(0.94 1)">W</text><text class="cls-12" transform="translate(409.3 425.65) scale(0.94 1)">EEK</text><text class="cls-12" transform="translate(473.6 425.65) scale(0.94 1)">7</text></g><g class="cls-23"><text class="cls-16" transform="translate(384.77 368.48) scale(0.94 1)">W</text><text class="cls-12" transform="translate(409.3 368.48) scale(0.94 1)">EEK</text><text class="cls-12" transform="translate(473.6 368.48) scale(0.94 1)">8</text></g><g class="cls-24"><text class="cls-16" transform="translate(384.77 311.32) scale(0.94 1)">W</text><text class="cls-12" transform="translate(409.3 311.32) scale(0.94 1)">EEK</text><text class="cls-12" transform="translate(473.6 311.32) scale(0.94 1)">9</text></g><g class="cls-25"><text class="cls-16" transform="translate(370.98 254.16) scale(0.94 1)">W</text><text class="cls-12" transform="translate(395.51 254.16) scale(0.94 1)">EEK</text><text class="cls-12" transform="translate(459.81 254.16) scale(0.94 1)">10</text></g><g class="cls-26"><text class="cls-16" transform="translate(370.98 197) scale(0.94 1)">W</text><text class="cls-12" transform="translate(395.51 197) scale(0.94 1)">EEK</text><g class="cls-27"><text class="cls-28" transform="translate(459.81 197) scale(0.94 1)">1</text><text class="cls-12" transform="translate(473.1 197) scale(0.94 1)">1</text></g></g><g class="cls-29"><text class="cls-16" transform="translate(370.98 139.83) scale(0.94 1)">W</text><text class="cls-12" transform="translate(395.51 139.83) scale(0.94 1)">EEK</text><text class="cls-12" transform="translate(459.81 139.83) scale(0.94 1)">12</text></g><g class="cls-30"><text class="cls-16" transform="translate(370.98 82.67) scale(0.94 1)">W</text><text class="cls-12" transform="translate(395.51 82.67) scale(0.94 1)">EEK</text><text class="cls-12" transform="translate(459.81 82.67) scale(0.94 1)">13</text></g><g class="cls-7"><rect class="cls-31" x="998.56" y="863.1" width="235.7" height="58.6"/></g><g class="cls-7"><rect class="cls-5" x="1027.56" y="884.3" width="15.3" height="16.3"/></g><g class="cls-7"><rect class="cls-6" x="1027.56" y="884.3" width="15.3" height="16.3"/></g><g class="cls-7"><text class="cls-32" transform="translate(1049.34 904.61) scale(0.94 1)">T</text><text class="cls-12" transform="translate(1064.67 904.61) scale(0.94 1)">o</text><text class="cls-14" transform="translate(1079.99 904.61) scale(0.94 1)">t</text><text class="cls-12" transform="translate(1089.11 904.61) scale(0.94 1)">al</text><g class="cls-27"><text class="cls-33" transform="translate(1119.75 904.61) scale(0.94 1)">V</text><text class="cls-12" transform="translate(1137.64 904.61) scale(0.94 1)">ie</text></g><text class="cls-34" transform="translate(1159.61 904.61) scale(0.94 1)">w</text><text class="cls-12" transform="translate(1177.94 904.61) scale(0.94 1)">ers</text></g><g id="OEcQYL-2" data-name="OEcQYL"><image id="OEcQYL-3-2" data-name="OEcQYL" class="cls-27" width="132" height="75" transform="translate(240.32 729.7) scale(0.75 0.74)" xlink:href="1F4BE11D28AFF86E.jpg"/></g><g id="_3y1nDC-2" data-name="3y1nDC"><image id="_3y1nDC-3-2" data-name="3y1nDC" class="cls-27" width="131" height="67" transform="translate(133.71 732.42) scale(0.8 0.75)" xlink:href="1F4BE11D28AFF872.jpg"/></g><g id="AvUQAL-2" data-name="AvUQAL"><image id="AvUQAL-3" data-name="AvUQAL" class="cls-27" width="130" height="77" transform="translate(246.22 672.65) scale(0.69 0.72)" xlink:href="1F4BE11D28AFF875.jpg"/></g><g id="fbZwP5-2" data-name="fbZwP5"><image id="fbZwP5-3" data-name="fbZwP5" class="cls-27" width="123" height="65" transform="translate(143.87 683.39) scale(0.68 0.52)" xlink:href="1F4BE11D28AFF876.jpg"/></g><g id="HWp2fq-2" data-name="HWp2fq"><image id="HWp2fq-3" data-name="HWp2fq" class="cls-27" width="122" height="47" transform="translate(238.19 629.19) scale(1 0.82)" xlink:href="1F4BE11D28AFF874.jpg"/></g><g id="s33UTz-2" data-name="s33UTz"><image id="s33UTz-3" data-name="s33UTz" class="cls-27" width="91" height="66" transform="translate(150.45 628.18) scale(0.78 0.61)" xlink:href="1F4BE11D28AFF873.jpg"/></g><g id="L49HRa-2" data-name="L49HRa"><image id="L49HRa-3" data-name="L49HRa" class="cls-27" width="114" height="67" transform="translate(142.41 566.06) scale(0.76 0.6)" xlink:href="1F4BE11D28AFF87D.jpg"/></g><g id="zmt8nu-2" data-name="zmt8nu"><image id="zmt8nu-3" data-name="zmt8nu" class="cls-27" width="86" height="64" transform="translate(145.43 503.88) scale(0.94 0.78)" xlink:href="1F4BE11D28AFF87E.jpg"/></g><g id="Ev9A0A-2" data-name="Ev9A0A"><image id="Ev9A0A-3" data-name="Ev9A0A" class="cls-27" width="130" height="78" transform="translate(260.68 505.21) scale(0.56 0.58)" xlink:href="1F4BE11D28AFF87C.jpg"/></g><g id="oQstM9-2" data-name="oQstM9"><image id="oQstM9-3" data-name="oQstM9" class="cls-27" width="130" height="59" transform="translate(247.65 462.24) scale(0.79 0.68)" xlink:href="85F78936E16EE831.jpg"/></g><g id="OEcQYL-4" data-name="OEcQYL"><image id="OEcQYL-5" data-name="OEcQYL" class="cls-27" width="131" height="71" transform="translate(141.28 459.73) scale(0.68 0.64)" xlink:href="85F78936E16EE837.jpg"/></g><g id="TtfhjR-2" data-name="TtfhjR"><image id="TtfhjR-3" data-name="TtfhjR" class="cls-27" width="131" height="92" transform="translate(147.2 385.57) scale(0.59 0.62)" xlink:href="85F78936E16EE830.jpg"/></g><g id="_2lxIng-2" data-name="2lxIng"><image id="_2lxIng-3" data-name="2lxIng" class="cls-27" width="132" height="77" transform="translate(258.88 393.79) scale(0.61 0.54)" xlink:href="85F78936E16EE833.jpg"/></g><g id="OFHGHd-2" data-name="OFHGHd"><image id="OFHGHd-3" data-name="OFHGHd" class="cls-27" width="115" height="90" transform="translate(251.69 325.08) scale(0.69 0.72)" xlink:href="85F78936E16EE82F.jpg"/></g><g id="UR1wVE-2" data-name="UR1wVE"><image id="UR1wVE-3" data-name="UR1wVE" class="cls-27" width="91" height="76" transform="translate(152.4 275.29) scale(0.74 0.66)" xlink:href="85F78936E16EE84F.jpg"/></g><g id="emu3HA-2" data-name="emu3HA"><image id="emu3HA-3" data-name="emu3HA" class="cls-27" width="91" height="64" transform="translate(252.24 280.29) scale(0.82 0.62)" xlink:href="85F78936E16EE851.jpg"/></g><g id="iHzznd-2" data-name="iHzznd"><image id="iHzznd-3" data-name="iHzznd" class="cls-27" width="130" height="67" transform="translate(135.9 214.92) scale(0.77 0.84)" xlink:href="85F78936E16EE853.jpg"/></g><g id="t1Eap0-2" data-name="t1Eap0"><image id="t1Eap0-3" data-name="t1Eap0" class="cls-27" width="106" height="84" transform="translate(258.57 216.36) scale(0.62 0.64)" xlink:href="85F78936E16EE850.jpg"/></g><g id="_9TP8aD-2" data-name="9TP8aD"><image id="_9TP8aD-3" data-name="9TP8aD" class="cls-27" width="72" height="81" transform="translate(263.23 156.48) scale(0.78 0.73)" xlink:href="85F78936E16EE857.jpg"/></g><g id="_3y1nDC-4" data-name="3y1nDC"><image id="_3y1nDC-5" data-name="3y1nDC" class="cls-27" width="131" height="67" transform="translate(138.71 156.57) scale(0.8 0.75)" xlink:href="85F78936E16EE874.jpg"/></g><g id="i27lhN-2" data-name="i27lhN"><image id="i27lhN-3" data-name="i27lhN" class="cls-27" width="90" height="82" transform="translate(258.18 101.79) scale(0.7 0.66)" xlink:href="85F78936E16EE877.jpg"/></g><g id="_5pMGsS-2" data-name="5pMGsS"><image id="_5pMGsS-3" data-name="5pMGsS" class="cls-27" width="84" height="79" transform="translate(155.72 103.5) scale(0.72 0.64)" xlink:href="85F78936E16EE875.jpg"/></g><g id="sSd21v-2" data-name="sSd21v"><image id="sSd21v-3" data-name="sSd21v" class="cls-27" width="85" height="75" transform="translate(150.9 42.28) scale(0.82 0.78)" xlink:href="85F78936E16EE87B.jpg"/></g><g id="fV1H2n.tif-2-2" data-name="fV1H2n.tif"><image id="Layer_0" data-name="Layer 0" class="cls-27" width="393" height="156" transform="translate(4.72 334.6) scale(0.29)" xlink:href="85F78936E16EE87C.png"/></g><g id="fV1H2n.tif-3-2" data-name="fV1H2n.tif"><image id="Layer_0-2" data-name="Layer 0" class="cls-27" width="393" height="156" transform="translate(4.72 220.28) scale(0.29)" xlink:href="85F78936E16EE87F.png"/></g><g id="fV1H2n.tif-4-2" data-name="fV1H2n.tif"><image id="Layer_0-3" data-name="Layer 0" class="cls-27" width="393" height="156" transform="translate(4.72 277.44) scale(0.29)" xlink:href="85F78936E16EE87D.png"/></g><g id="fV1H2n.tif-5" data-name="fV1H2n.tif"><image id="Layer_0-4" data-name="Layer 0" class="cls-27" width="393" height="156" transform="translate(4.72 563.26) scale(0.29)" xlink:href="85F78936E16EE87B.png"/></g><g id="gkMbpQ.tif-2" data-name="gkMbpQ.tif"><image id="Layer_0-5" data-name="Layer 0" class="cls-27" width="1074" height="809" transform="translate(148.2 328.94) scale(0.07)" xlink:href="85F78936E16EE874.png"/></g><g id="nBrS7C.tif-2-2" data-name="nBrS7C.tif"><image id="Layer_0-6" data-name="Layer 0" class="cls-27" width="202" height="202" transform="translate(33.01 728.43) scale(0.29)" xlink:href="85F78936E16EE877.png"/></g><g id="nBrS7C.tif-3-2" data-name="nBrS7C.tif"><image id="Layer_0-7" data-name="Layer 0" class="cls-27" width="202" height="202" transform="translate(33.01 157.39) scale(0.29)" xlink:href="85F78936E16EE89B.png"/></g><g id="bOPcjd.tif-2-2" data-name="bOPcjd.tif"><image id="Layer_0-8" data-name="Layer 0" class="cls-27" width="2245" height="718" transform="translate(0.14 623.38) scale(0.06)" xlink:href="85F78936E16EE899.png"/></g><g id="bOPcjd.tif-3-2" data-name="bOPcjd.tif"><image id="Layer_0-9" data-name="Layer 0" class="cls-27" width="2245" height="718" transform="translate(0.14 394.73) scale(0.06)" xlink:href="85F78936E16EE8A7.png"/></g><g id="bOPcjd.tif-4-2" data-name="bOPcjd.tif"><image id="Layer_0-10" data-name="Layer 0" class="cls-27" width="2245" height="718" transform="translate(0.14 680.54) scale(0.06)" xlink:href="85F78936E16EE8A9.png"/></g><g id="bOPcjd.tif-5-2" data-name="bOPcjd.tif"><image id="Layer_0-11" data-name="Layer 0" class="cls-27" width="2245" height="700" transform="translate(0 452.34) scale(0.06)" xlink:href="85F78936E16EE8AB.png"/></g><g id="bOPcjd.tif-6" data-name="bOPcjd.tif"><image id="Layer_0-12" data-name="Layer 0" class="cls-27" width="2245" height="718" transform="translate(0.14 499.8) scale(0.06)" xlink:href="85F78936E16EE8AE.png"/></g><g id="nBrS7C.tif-4-2" data-name="nBrS7C.tif"><image id="Layer_0-13" data-name="Layer 0" class="cls-27" width="202" height="202" transform="translate(33.01 42.47) scale(0.29)" xlink:href="85F78936E16EE8AF.png"/></g><g id="nBrS7C.tif-5" data-name="nBrS7C.tif"><image id="Layer_0-14" data-name="Layer 0" class="cls-27" width="202" height="202" transform="translate(33.01 99.63) scale(0.29)" xlink:href="85F78936E16EE8AA.png"/></g><g id="sMOqZ4.tif-2" data-name="sMOqZ4.tif"><image id="Layer_1-2" data-name="Layer 1" class="cls-27" width="231" height="316" transform="translate(268.79 40.77) scale(0.19)" xlink:href="85F78936E16EE8A5.png"/></g><g id="CIMuGG.tif"><image id="Layer_1-3" data-name="Layer 1" class="cls-27" width="483" height="345" transform="translate(255.82 556.4) scale(0.17)" xlink:href="85F78936E16EE8A6.png"/></g></svg>