<?xml version="1.0" encoding="utf-8"?>
<!-- Generator: Adobe Illustrator 20.1.0, SVG Export Plug-In . SVG Version: 6.00 Build 0)  -->
<svg version="1.1" id="Layer_1" xmlns="http://www.w3.org/2000/svg" xmlns:xlink="http://www.w3.org/1999/xlink" x="0px" y="0px"
	 viewBox="0 0 1920 1080" style="enable-background:new 0 0 1920 1080;" xml:space="preserve">
<style type="text/css">
	.st0{clip-path:url(#SVGID_2_);fill:#FFFFFF;fill-opacity:0;}
	.st1{opacity:0.851;clip-path:url(#SVGID_4_);fill:#5D9BD3;enable-background:new    ;}
	
		.st2{opacity:0.502;clip-path:url(#SVGID_6_);fill:none;stroke:#FFFFFF;stroke-linejoin:round;stroke-miterlimit:10;enable-background:new    ;}
	.st3{clip-path:url(#SVGID_8_);fill:none;stroke:#414141;stroke-width:2;stroke-linejoin:round;stroke-miterlimit:10;}
	.st4{clip-path:url(#SVGID_10_);}
	.st5{fill:#FFFFFF;}
	.st6{font-family:'Helvetica-Bold';}
	.st7{font-size:25.0505px;}
	.st8{clip-path:url(#SVGID_12_);}
	.st9{clip-path:url(#SVGID_14_);}
	.st10{clip-path:url(#SVGID_16_);}
	.st11{clip-path:url(#SVGID_18_);}
	.st12{clip-path:url(#SVGID_20_);}
	.st13{clip-path:url(#SVGID_22_);}
	.st14{clip-path:url(#SVGID_24_);}
	.st15{clip-path:url(#SVGID_26_);}
	.st16{clip-path:url(#SVGID_28_);}
	.st17{clip-path:url(#SVGID_30_);}
	.st18{clip-path:url(#SVGID_32_);}
	.st19{clip-path:url(#SVGID_34_);}
	.st20{clip-path:url(#SVGID_36_);}
	.st21{fill:#414141;}
	.st22{font-family:'Helvetica';}
	.st23{clip-path:url(#SVGID_38_);}
	.st24{clip-path:url(#SVGID_40_);}
	.st25{clip-path:url(#SVGID_42_);}
	.st26{clip-path:url(#SVGID_44_);}
	.st27{clip-path:url(#SVGID_46_);}
	.st28{clip-path:url(#SVGID_48_);}
	.st29{clip-path:url(#SVGID_50_);}
	.st30{clip-path:url(#SVGID_52_);}
	.st31{clip-path:url(#SVGID_54_);}
	.st32{clip-path:url(#SVGID_56_);}
	.st33{clip-path:url(#SVGID_58_);}
	.st34{clip-path:url(#SVGID_60_);}
	.st35{clip-path:url(#SVGID_62_);}
	.st36{clip-path:url(#SVGID_64_);}
	.st37{clip-path:url(#SVGID_66_);}
	.st38{clip-path:url(#SVGID_68_);}
	.st39{clip-path:url(#SVGID_70_);}
	.st40{clip-path:url(#SVGID_72_);}
	.st41{clip-path:url(#SVGID_74_);}
	.st42{clip-path:url(#SVGID_76_);}
	.st43{clip-path:url(#SVGID_78_);}
</style>
<g>
	<g>
		<defs>
			<rect id="SVGID_1_" x="232.7" y="-29.7" width="1619.9" height="885.1"/>
		</defs>
		<clipPath id="SVGID_2_">
			<use xlink:href="#SVGID_1_"  style="overflow:visible;"/>
		</clipPath>
		<rect x="232.7" y="-29.7" class="st0" width="1619.9" height="885.1"/>
	</g>
</g>
<g>
	<g>
		<defs>
			<rect id="SVGID_3_" x="383" y="98.4" width="1372.2" height="693.1"/>
		</defs>
		<clipPath id="SVGID_4_">
			<use xlink:href="#SVGID_3_"  style="overflow:visible;"/>
		</clipPath>
		<path class="st1" d="M1628.6,141.5H384.4v-33.4h1244.2V141.5z M963.4,194.4h-579V161h578.9L963.4,194.4L963.4,194.4z
			 M1611.9,247.3H384.4v-30.6h1227.5V247.3z M1623,300.2H384.4v-30.6H1623V300.2z M1598,353H384.4v-30.6H1598V353z M1609.1,405.9
			H384.4v-30.6h1224.7V405.9z M1083.1,461.6H384.4v-33.4H1083L1083.1,461.6L1083.1,461.6z M1052.5,514.5h-668v-33.4h668V514.5z
			 M1074.7,567.4H384.4V534h690.3V567.4z M1102.6,620.3H384.4v-33.4h718.1L1102.6,620.3L1102.6,620.3z M1133.2,673.1H384.4v-33.4
			h748.7L1133.2,673.1L1133.2,673.1z M685,726H384.4v-33.4H685V726z M930,778.9H384.4v-30.6H930V778.9z"/>
	</g>
	<g>
		<defs>
			<rect id="SVGID_5_" x="383" y="98.4" width="1372.2" height="693.1"/>
		</defs>
		<clipPath id="SVGID_6_">
			<use xlink:href="#SVGID_5_"  style="overflow:visible;"/>
		</clipPath>
		<path class="st2" d="M1628.6,141.5H384.4v-33.4h1244.2V141.5z M963.4,194.4h-579V161h578.9L963.4,194.4L963.4,194.4z
			 M1611.9,247.3H384.4v-30.6h1227.5V247.3z M1623,300.2H384.4v-30.6H1623V300.2z M1598,353H384.4v-30.6H1598V353z M1609.1,405.9
			H384.4v-30.6h1224.7V405.9z M1083.1,461.6H384.4v-33.4H1083L1083.1,461.6L1083.1,461.6z M1052.5,514.5h-668v-33.4h668V514.5z
			 M1074.7,567.4H384.4V534h690.3V567.4z M1102.6,620.3H384.4v-33.4h718.1L1102.6,620.3L1102.6,620.3z M1133.2,673.1H384.4v-33.4
			h748.7L1133.2,673.1L1133.2,673.1z M685,726H384.4v-33.4H685V726z M930,778.9H384.4v-30.6H930V778.9z"/>
	</g>
</g>
<g>
	<g>
		<defs>
			<rect id="SVGID_7_" x="232.7" y="-29.7" width="1619.9" height="885.1"/>
		</defs>
		<clipPath id="SVGID_8_">
			<use xlink:href="#SVGID_7_"  style="overflow:visible;"/>
		</clipPath>
		<line class="st3" x1="383" y1="788.7" x2="383" y2="98.4"/>
	</g>
	<g>
		<defs>
			<rect id="SVGID_9_" x="232.7" y="-29.7" width="1619.9" height="885.1"/>
		</defs>
		<clipPath id="SVGID_10_">
			<use xlink:href="#SVGID_9_"  style="overflow:visible;"/>
		</clipPath>
		<g class="st4">
			<text transform="matrix(1 0 0 1 796.2539 773.1215)" class="st5 st6 st7">6</text>
			<text transform="matrix(1 0 0 1 810.1539 773.1215)" class="st5 st6 st7">,</text>
			<text transform="matrix(1 0 0 1 818.5539 773.1215)" class="st5 st6 st7">383</text>
			<text transform="matrix(1 0 0 1 860.3539 773.1215)" class="st5 st6 st7">,</text>
			<text transform="matrix(1 0 0 1 868.6539 773.1215)" class="st5 st6 st7">000</text>
		</g>
	</g>
	<g>
		<defs>
			<rect id="SVGID_11_" x="232.7" y="-29.7" width="1619.9" height="885.1"/>
		</defs>
		<clipPath id="SVGID_12_">
			<use xlink:href="#SVGID_11_"  style="overflow:visible;"/>
		</clipPath>
		<g class="st8">
			<text transform="matrix(1 0 0 1 550.5391 719.9692)" class="st5 st6 st7">3</text>
			<text transform="matrix(1 0 0 1 564.4391 719.9692)" class="st5 st6 st7">,</text>
			<text transform="matrix(1 0 0 1 572.8391 719.9692)" class="st5 st6 st7">513</text>
			<text transform="matrix(1 0 0 1 614.6391 719.9692)" class="st5 st6 st7">,</text>
			<text transform="matrix(1 0 0 1 622.9391 719.9692)" class="st5 st6 st7">000</text>
		</g>
	</g>
	<g>
		<defs>
			<rect id="SVGID_13_" x="232.7" y="-29.7" width="1619.9" height="885.1"/>
		</defs>
		<clipPath id="SVGID_14_">
			<use xlink:href="#SVGID_13_"  style="overflow:visible;"/>
		</clipPath>
		<g class="st9">
			<text transform="matrix(1 0 0 1 998.9023 666.8149)" class="st5 st6 st7">8</text>
			<text transform="matrix(1 0 0 1 1012.8023 666.8149)" class="st5 st6 st7">,</text>
			<text transform="matrix(1 0 0 1 1021.2023 666.8149)" class="st5 st6 st7">750</text>
			<text transform="matrix(1 0 0 1 1063.0023 666.8149)" class="st5 st6 st7">,</text>
			<text transform="matrix(1 0 0 1 1071.3022 666.8149)" class="st5 st6 st7">000</text>
		</g>
	</g>
	<g>
		<defs>
			<rect id="SVGID_15_" x="232.7" y="-29.7" width="1619.9" height="885.1"/>
		</defs>
		<clipPath id="SVGID_16_">
			<use xlink:href="#SVGID_15_"  style="overflow:visible;"/>
		</clipPath>
		<g class="st10">
			<text transform="matrix(1 0 0 1 969.5381 613.6616)" class="st5 st6 st7">8</text>
			<text transform="matrix(1 0 0 1 983.4381 613.6616)" class="st5 st6 st7">,</text>
			<text transform="matrix(1 0 0 1 991.8381 613.6616)" class="st5 st6 st7">407</text>
			<text transform="matrix(1 0 0 1 1033.6381 613.6616)" class="st5 st6 st7">,</text>
			<text transform="matrix(1 0 0 1 1041.9381 613.6616)" class="st5 st6 st7">000</text>
		</g>
	</g>
	<g>
		<defs>
			<rect id="SVGID_17_" x="232.7" y="-29.7" width="1619.9" height="885.1"/>
		</defs>
		<clipPath id="SVGID_18_">
			<use xlink:href="#SVGID_17_"  style="overflow:visible;"/>
		</clipPath>
		<g class="st11">
			<text transform="matrix(1 0 0 1 941.541 560.5073)" class="st5 st6 st7">8</text>
			<text transform="matrix(1 0 0 1 955.441 560.5073)" class="st5 st6 st7">,</text>
			<text transform="matrix(1 0 0 1 963.841 560.5073)" class="st5 st6 st7">080</text>
			<text transform="matrix(1 0 0 1 1005.641 560.5073)" class="st5 st6 st7">,</text>
			<text transform="matrix(1 0 0 1 1013.941 560.5073)" class="st5 st6 st7">000</text>
		</g>
	</g>
	<g>
		<defs>
			<rect id="SVGID_19_" x="232.7" y="-29.7" width="1619.9" height="885.1"/>
		</defs>
		<clipPath id="SVGID_20_">
			<use xlink:href="#SVGID_19_"  style="overflow:visible;"/>
		</clipPath>
		<g class="st12">
			<text transform="matrix(1 0 0 1 917.5693 507.3539)" class="st5 st6 st7">7</text>
			<text transform="matrix(1 0 0 1 931.4693 507.3539)" class="st5 st6 st7">,</text>
			<text transform="matrix(1 0 0 1 939.8693 507.3539)" class="st5 st6 st7">800</text>
			<text transform="matrix(1 0 0 1 981.6693 507.3539)" class="st5 st6 st7">,</text>
			<text transform="matrix(1 0 0 1 989.9693 507.3539)" class="st5 st6 st7">000</text>
		</g>
	</g>
	<g>
		<defs>
			<rect id="SVGID_21_" x="232.7" y="-29.7" width="1619.9" height="885.1"/>
		</defs>
		<clipPath id="SVGID_22_">
			<use xlink:href="#SVGID_21_"  style="overflow:visible;"/>
		</clipPath>
		<g class="st13">
			<text transform="matrix(1 0 0 1 949.248 454.2006)" class="st5 st6 st7">8</text>
			<text transform="matrix(1 0 0 1 963.148 454.2006)" class="st5 st6 st7">,</text>
			<text transform="matrix(1 0 0 1 971.548 454.2006)" class="st5 st6 st7">170</text>
			<text transform="matrix(1 0 0 1 1013.348 454.2006)" class="st5 st6 st7">,</text>
			<text transform="matrix(1 0 0 1 1021.648 454.2006)" class="st5 st6 st7">000</text>
		</g>
	</g>
	<g>
		<defs>
			<rect id="SVGID_23_" x="232.7" y="-29.7" width="1619.9" height="885.1"/>
		</defs>
		<clipPath id="SVGID_24_">
			<use xlink:href="#SVGID_23_"  style="overflow:visible;"/>
		</clipPath>
		<g class="st14">
			<text transform="matrix(1 0 0 1 1462.3818 401.0463)" class="st5 st6 st7">14</text>
			<text transform="matrix(1 0 0 1 1490.2819 401.0463)" class="st5 st6 st7">,</text>
			<text transform="matrix(1 0 0 1 1498.5818 401.0463)" class="st5 st6 st7">310</text>
			<text transform="matrix(1 0 0 1 1540.3818 401.0463)" class="st5 st6 st7">,</text>
			<text transform="matrix(1 0 0 1 1548.6819 401.0463)" class="st5 st6 st7">000</text>
		</g>
	</g>
	<g>
		<defs>
			<rect id="SVGID_25_" x="232.7" y="-29.7" width="1619.9" height="885.1"/>
		</defs>
		<clipPath id="SVGID_26_">
			<use xlink:href="#SVGID_25_"  style="overflow:visible;"/>
		</clipPath>
		<g class="st15">
			<text transform="matrix(1 0 0 1 1451.251 347.894)" class="st5 st6 st7">14</text>
			<text transform="matrix(1 0 0 1 1479.151 347.894)" class="st5 st6 st7">,</text>
			<text transform="matrix(1 0 0 1 1487.4509 347.894)" class="st5 st6 st7">180</text>
			<text transform="matrix(1 0 0 1 1529.251 347.894)" class="st5 st6 st7">,</text>
			<text transform="matrix(1 0 0 1 1537.551 347.894)" class="st5 st6 st7">000</text>
		</g>
	</g>
	<g>
		<defs>
			<rect id="SVGID_27_" x="232.7" y="-29.7" width="1619.9" height="885.1"/>
		</defs>
		<clipPath id="SVGID_28_">
			<use xlink:href="#SVGID_27_"  style="overflow:visible;"/>
		</clipPath>
		<g class="st16">
			<text transform="matrix(1 0 0 1 1476.0811 294.7397)" class="st5 st6 st7">14</text>
			<text transform="matrix(1 0 0 1 1503.9811 294.7397)" class="st5 st6 st7">,</text>
			<text transform="matrix(1 0 0 1 1512.281 294.7397)" class="st5 st6 st7">470</text>
			<text transform="matrix(1 0 0 1 1554.0811 294.7397)" class="st5 st6 st7">,</text>
			<text transform="matrix(1 0 0 1 1562.3811 294.7397)" class="st5 st6 st7">000</text>
		</g>
	</g>
	<g>
		<defs>
			<rect id="SVGID_29_" x="232.7" y="-29.7" width="1619.9" height="885.1"/>
		</defs>
		<clipPath id="SVGID_30_">
			<use xlink:href="#SVGID_29_"  style="overflow:visible;"/>
		</clipPath>
		<g class="st17">
			<text transform="matrix(1 0 0 1 1464.9502 241.5883)" class="st5 st6 st7">14</text>
			<text transform="matrix(1 0 0 1 1492.8502 241.5883)" class="st5 st6 st7">,</text>
			<text transform="matrix(1 0 0 1 1501.1501 241.5883)" class="st5 st6 st7">340</text>
			<text transform="matrix(1 0 0 1 1542.9502 241.5883)" class="st5 st6 st7">,</text>
			<text transform="matrix(1 0 0 1 1551.2502 241.5883)" class="st5 st6 st7">000</text>
		</g>
	</g>
	<g>
		<defs>
			<rect id="SVGID_31_" x="232.7" y="-29.7" width="1619.9" height="885.1"/>
		</defs>
		<clipPath id="SVGID_32_">
			<use xlink:href="#SVGID_31_"  style="overflow:visible;"/>
		</clipPath>
		<g class="st18">
			<text transform="matrix(1 0 0 1 828.5312 188.433)" class="st5 st6 st7">6</text>
			<text transform="matrix(1 0 0 1 842.4312 188.433)" class="st5 st6 st7">,</text>
			<text transform="matrix(1 0 0 1 850.8312 188.433)" class="st5 st6 st7">760</text>
			<text transform="matrix(1 0 0 1 892.6312 188.433)" class="st5 st6 st7">,</text>
			<text transform="matrix(1 0 0 1 900.9312 188.433)" class="st5 st6 st7">000</text>
		</g>
	</g>
	<g>
		<defs>
			<rect id="SVGID_33_" x="232.7" y="-29.7" width="1619.9" height="885.1"/>
		</defs>
		<clipPath id="SVGID_34_">
			<use xlink:href="#SVGID_33_"  style="overflow:visible;"/>
		</clipPath>
		<g class="st19">
			<text transform="matrix(1 0 0 1 1482.0732 135.2787)" class="st5 st6 st7">14</text>
			<text transform="matrix(1 0 0 1 1509.9733 135.2787)" class="st5 st6 st7">,</text>
			<text transform="matrix(1 0 0 1 1518.2732 135.2787)" class="st5 st6 st7">540</text>
			<text transform="matrix(1 0 0 1 1560.0732 135.2787)" class="st5 st6 st7">,</text>
			<text transform="matrix(1 0 0 1 1568.3733 135.2787)" class="st5 st6 st7">000</text>
		</g>
	</g>
	<g>
		<defs>
			<rect id="SVGID_35_" x="232.7" y="-29.7" width="1619.9" height="885.1"/>
		</defs>
		<clipPath id="SVGID_36_">
			<use xlink:href="#SVGID_35_"  style="overflow:visible;"/>
		</clipPath>
		<g class="st20">
			<text transform="matrix(1 0 0 1 375.6328 830.9438)" class="st21 st22 st7">0</text>
		</g>
	</g>
	<g>
		<defs>
			<rect id="SVGID_37_" x="232.7" y="-29.7" width="1619.9" height="885.1"/>
		</defs>
		<clipPath id="SVGID_38_">
			<use xlink:href="#SVGID_37_"  style="overflow:visible;"/>
		</clipPath>
		<g class="st23">
			<text transform="matrix(1 0 0 1 496.7617 830.9438)" class="st21 st22 st7">2</text>
			<text transform="matrix(1 0 0 1 510.6617 830.9438)" class="st21 st22 st7">,</text>
			<text transform="matrix(1 0 0 1 519.0617 830.9438)" class="st21 st22 st7">000</text>
			<text transform="matrix(1 0 0 1 560.8617 830.9438)" class="st21 st22 st7">,</text>
			<text transform="matrix(1 0 0 1 569.1617 830.9438)" class="st21 st22 st7">000</text>
		</g>
	</g>
	<g>
		<defs>
			<rect id="SVGID_39_" x="232.7" y="-29.7" width="1619.9" height="885.1"/>
		</defs>
		<clipPath id="SVGID_40_">
			<use xlink:href="#SVGID_39_"  style="overflow:visible;"/>
		</clipPath>
		<g class="st24">
			<text transform="matrix(1 0 0 1 667.9912 830.9438)" class="st21 st22 st7">4</text>
			<text transform="matrix(1 0 0 1 681.8912 830.9438)" class="st21 st22 st7">,</text>
			<text transform="matrix(1 0 0 1 690.2912 830.9438)" class="st21 st22 st7">000</text>
			<text transform="matrix(1 0 0 1 732.0912 830.9438)" class="st21 st22 st7">,</text>
			<text transform="matrix(1 0 0 1 740.3912 830.9438)" class="st21 st22 st7">000</text>
		</g>
	</g>
	<g>
		<defs>
			<rect id="SVGID_41_" x="232.7" y="-29.7" width="1619.9" height="885.1"/>
		</defs>
		<clipPath id="SVGID_42_">
			<use xlink:href="#SVGID_41_"  style="overflow:visible;"/>
		</clipPath>
		<g class="st25">
			<text transform="matrix(1 0 0 1 839.2207 830.9438)" class="st21 st22 st7">6</text>
			<text transform="matrix(1 0 0 1 853.1207 830.9438)" class="st21 st22 st7">,</text>
			<text transform="matrix(1 0 0 1 861.5207 830.9438)" class="st21 st22 st7">000</text>
			<text transform="matrix(1 0 0 1 903.3207 830.9438)" class="st21 st22 st7">,</text>
			<text transform="matrix(1 0 0 1 911.6207 830.9438)" class="st21 st22 st7">000</text>
		</g>
	</g>
	<g>
		<defs>
			<rect id="SVGID_43_" x="232.7" y="-29.7" width="1619.9" height="885.1"/>
		</defs>
		<clipPath id="SVGID_44_">
			<use xlink:href="#SVGID_43_"  style="overflow:visible;"/>
		</clipPath>
		<g class="st26">
			<text transform="matrix(1 0 0 1 1010.4492 830.9438)" class="st21 st22 st7">8</text>
			<text transform="matrix(1 0 0 1 1024.3492 830.9438)" class="st21 st22 st7">,</text>
			<text transform="matrix(1 0 0 1 1032.7493 830.9438)" class="st21 st22 st7">000</text>
			<text transform="matrix(1 0 0 1 1074.5492 830.9438)" class="st21 st22 st7">,</text>
			<text transform="matrix(1 0 0 1 1082.8492 830.9438)" class="st21 st22 st7">000</text>
		</g>
	</g>
	<g>
		<defs>
			<rect id="SVGID_45_" x="232.7" y="-29.7" width="1619.9" height="885.1"/>
		</defs>
		<clipPath id="SVGID_46_">
			<use xlink:href="#SVGID_45_"  style="overflow:visible;"/>
		</clipPath>
		<g class="st27">
			<text transform="matrix(1 0 0 1 1176.1055 830.9438)" class="st21 st22 st7">10</text>
			<text transform="matrix(1 0 0 1 1204.0055 830.9438)" class="st21 st22 st7">,</text>
			<text transform="matrix(1 0 0 1 1212.3054 830.9438)" class="st21 st22 st7">000</text>
			<text transform="matrix(1 0 0 1 1254.1055 830.9438)" class="st21 st22 st7">,</text>
			<text transform="matrix(1 0 0 1 1262.4055 830.9438)" class="st21 st22 st7">000</text>
		</g>
	</g>
	<g>
		<defs>
			<rect id="SVGID_47_" x="232.7" y="-29.7" width="1619.9" height="885.1"/>
		</defs>
		<clipPath id="SVGID_48_">
			<use xlink:href="#SVGID_47_"  style="overflow:visible;"/>
		</clipPath>
		<g class="st28">
			<text transform="matrix(1 0 0 1 1347.334 830.9438)" class="st21 st22 st7">12</text>
			<text transform="matrix(1 0 0 1 1375.234 830.9438)" class="st21 st22 st7">,</text>
			<text transform="matrix(1 0 0 1 1383.5339 830.9438)" class="st21 st22 st7">000</text>
			<text transform="matrix(1 0 0 1 1425.334 830.9438)" class="st21 st22 st7">,</text>
			<text transform="matrix(1 0 0 1 1433.634 830.9438)" class="st21 st22 st7">000</text>
		</g>
	</g>
	<g>
		<defs>
			<rect id="SVGID_49_" x="232.7" y="-29.7" width="1619.9" height="885.1"/>
		</defs>
		<clipPath id="SVGID_50_">
			<use xlink:href="#SVGID_49_"  style="overflow:visible;"/>
		</clipPath>
		<g class="st29">
			<text transform="matrix(1 0 0 1 1518.5625 830.9438)" class="st21 st22 st7">14</text>
			<text transform="matrix(1 0 0 1 1546.4625 830.9438)" class="st21 st22 st7">,</text>
			<text transform="matrix(1 0 0 1 1554.7625 830.9438)" class="st21 st22 st7">000</text>
			<text transform="matrix(1 0 0 1 1596.5625 830.9438)" class="st21 st22 st7">,</text>
			<text transform="matrix(1 0 0 1 1604.8625 830.9438)" class="st21 st22 st7">000</text>
		</g>
	</g>
	<g>
		<defs>
			<rect id="SVGID_51_" x="232.7" y="-29.7" width="1619.9" height="885.1"/>
		</defs>
		<clipPath id="SVGID_52_">
			<use xlink:href="#SVGID_51_"  style="overflow:visible;"/>
		</clipPath>
		<g class="st30">
			<text transform="matrix(1 0 0 1 1689.793 830.9438)" class="st21 st22 st7">16</text>
			<text transform="matrix(1 0 0 1 1717.693 830.9438)" class="st21 st22 st7">,</text>
			<text transform="matrix(1 0 0 1 1725.9929 830.9438)" class="st21 st22 st7">000</text>
			<text transform="matrix(1 0 0 1 1767.793 830.9438)" class="st21 st22 st7">,</text>
			<text transform="matrix(1 0 0 1 1776.093 830.9438)" class="st21 st22 st7">000</text>
		</g>
	</g>
</g>
<g>
	<g>
		<defs>
			<rect id="SVGID_53_" x="232.7" y="736.5" width="412.1" height="53.2"/>
		</defs>
		<clipPath id="SVGID_54_">
			<use xlink:href="#SVGID_53_"  style="overflow:visible;"/>
		</clipPath>
		<g class="st31">
			<text transform="matrix(1 0 0 1 264.1118 773.1215)" class="st21 st22 st7">W</text>
			<text transform="matrix(1 0 0 1 286.4118 773.1215)" class="st21 st22 st7">EEK</text>
			<text transform="matrix(1 0 0 1 336.5118 773.1215)" class="st21 st22 st7"> </text>
			<text transform="matrix(1 0 0 1 344.9118 773.1215)" class="st21 st22 st7">1</text>
		</g>
	</g>
</g>
<g>
	<g>
		<defs>
			<rect id="SVGID_55_" x="232.7" y="683.4" width="412.1" height="53.2"/>
		</defs>
		<clipPath id="SVGID_56_">
			<use xlink:href="#SVGID_55_"  style="overflow:visible;"/>
		</clipPath>
		<g class="st32">
			<text transform="matrix(1 0 0 1 264.1118 719.9692)" class="st21 st22 st7">W</text>
			<text transform="matrix(1 0 0 1 286.4118 719.9692)" class="st21 st22 st7">EEK</text>
			<text transform="matrix(1 0 0 1 336.5118 719.9692)" class="st21 st22 st7"> </text>
			<text transform="matrix(1 0 0 1 344.9118 719.9692)" class="st21 st22 st7">2</text>
		</g>
	</g>
</g>
<g>
	<g>
		<defs>
			<rect id="SVGID_57_" x="232.7" y="630.2" width="412.1" height="53.2"/>
		</defs>
		<clipPath id="SVGID_58_">
			<use xlink:href="#SVGID_57_"  style="overflow:visible;"/>
		</clipPath>
		<g class="st33">
			<text transform="matrix(1 0 0 1 264.1118 666.8149)" class="st21 st22 st7">W</text>
			<text transform="matrix(1 0 0 1 286.4118 666.8149)" class="st21 st22 st7">EEK</text>
			<text transform="matrix(1 0 0 1 336.5118 666.8149)" class="st21 st22 st7"> </text>
			<text transform="matrix(1 0 0 1 344.9118 666.8149)" class="st21 st22 st7">3</text>
		</g>
	</g>
</g>
<g>
	<g>
		<defs>
			<rect id="SVGID_59_" x="232.7" y="577.1" width="412.1" height="53.2"/>
		</defs>
		<clipPath id="SVGID_60_">
			<use xlink:href="#SVGID_59_"  style="overflow:visible;"/>
		</clipPath>
		<g class="st34">
			<text transform="matrix(1 0 0 1 264.1118 613.6616)" class="st21 st22 st7">W</text>
			<text transform="matrix(1 0 0 1 286.4118 613.6616)" class="st21 st22 st7">EEK</text>
			<text transform="matrix(1 0 0 1 336.5118 613.6616)" class="st21 st22 st7"> </text>
			<text transform="matrix(1 0 0 1 344.9118 613.6616)" class="st21 st22 st7">4</text>
		</g>
	</g>
</g>
<g>
	<g>
		<defs>
			<rect id="SVGID_61_" x="232.7" y="523.9" width="412.1" height="53.2"/>
		</defs>
		<clipPath id="SVGID_62_">
			<use xlink:href="#SVGID_61_"  style="overflow:visible;"/>
		</clipPath>
		<g class="st35">
			<text transform="matrix(1 0 0 1 264.1118 560.5073)" class="st21 st22 st7">W</text>
			<text transform="matrix(1 0 0 1 286.4118 560.5073)" class="st21 st22 st7">EEK</text>
			<text transform="matrix(1 0 0 1 336.5118 560.5073)" class="st21 st22 st7"> </text>
			<text transform="matrix(1 0 0 1 344.9118 560.5073)" class="st21 st22 st7">5</text>
		</g>
	</g>
</g>
<g>
	<g>
		<defs>
			<rect id="SVGID_63_" x="232.7" y="470.8" width="412.1" height="53.2"/>
		</defs>
		<clipPath id="SVGID_64_">
			<use xlink:href="#SVGID_63_"  style="overflow:visible;"/>
		</clipPath>
		<g class="st36">
			<text transform="matrix(1 0 0 1 264.1118 507.3539)" class="st21 st22 st7">W</text>
			<text transform="matrix(1 0 0 1 286.4118 507.3539)" class="st21 st22 st7">EEK</text>
			<text transform="matrix(1 0 0 1 336.5118 507.3539)" class="st21 st22 st7"> </text>
			<text transform="matrix(1 0 0 1 344.9118 507.3539)" class="st21 st22 st7">6</text>
		</g>
	</g>
</g>
<g>
	<g>
		<defs>
			<rect id="SVGID_65_" x="232.7" y="417.6" width="412.1" height="53.2"/>
		</defs>
		<clipPath id="SVGID_66_">
			<use xlink:href="#SVGID_65_"  style="overflow:visible;"/>
		</clipPath>
		<g class="st37">
			<text transform="matrix(1 0 0 1 264.1118 454.2006)" class="st21 st22 st7">W</text>
			<text transform="matrix(1 0 0 1 286.4118 454.2006)" class="st21 st22 st7">EEK</text>
			<text transform="matrix(1 0 0 1 336.5118 454.2006)" class="st21 st22 st7"> </text>
			<text transform="matrix(1 0 0 1 344.9118 454.2006)" class="st21 st22 st7">7</text>
		</g>
	</g>
</g>
<g>
	<g>
		<defs>
			<rect id="SVGID_67_" x="232.7" y="364.5" width="412.1" height="53.2"/>
		</defs>
		<clipPath id="SVGID_68_">
			<use xlink:href="#SVGID_67_"  style="overflow:visible;"/>
		</clipPath>
		<g class="st38">
			<text transform="matrix(1 0 0 1 264.1118 401.0463)" class="st21 st22 st7">W</text>
			<text transform="matrix(1 0 0 1 286.4118 401.0463)" class="st21 st22 st7">EEK</text>
			<text transform="matrix(1 0 0 1 336.5118 401.0463)" class="st21 st22 st7"> </text>
			<text transform="matrix(1 0 0 1 344.9118 401.0463)" class="st21 st22 st7">8</text>
		</g>
	</g>
</g>
<g>
	<g>
		<defs>
			<rect id="SVGID_69_" x="232.7" y="311.3" width="412.1" height="53.2"/>
		</defs>
		<clipPath id="SVGID_70_">
			<use xlink:href="#SVGID_69_"  style="overflow:visible;"/>
		</clipPath>
		<g class="st39">
			<text transform="matrix(1 0 0 1 264.1118 347.894)" class="st21 st22 st7">W</text>
			<text transform="matrix(1 0 0 1 286.4118 347.894)" class="st21 st22 st7">EEK</text>
			<text transform="matrix(1 0 0 1 336.5118 347.894)" class="st21 st22 st7"> </text>
			<text transform="matrix(1 0 0 1 344.9118 347.894)" class="st21 st22 st7">9</text>
		</g>
	</g>
</g>
<g>
	<g>
		<defs>
			<rect id="SVGID_71_" x="232.7" y="258.2" width="453.9" height="53.2"/>
		</defs>
		<clipPath id="SVGID_72_">
			<use xlink:href="#SVGID_71_"  style="overflow:visible;"/>
		</clipPath>
		<g class="st40">
			<text transform="matrix(1 0 0 1 251.5723 294.7397)" class="st21 st22 st7">W</text>
			<text transform="matrix(1 0 0 1 273.8723 294.7397)" class="st21 st22 st7">EEK</text>
			<text transform="matrix(1 0 0 1 323.9723 294.7397)" class="st21 st22 st7"> </text>
			<text transform="matrix(1 0 0 1 332.3723 294.7397)" class="st21 st22 st7">10</text>
		</g>
	</g>
</g>
<g>
	<g>
		<defs>
			<rect id="SVGID_73_" x="232.7" y="205" width="453.9" height="53.2"/>
		</defs>
		<clipPath id="SVGID_74_">
			<use xlink:href="#SVGID_73_"  style="overflow:visible;"/>
		</clipPath>
		<g class="st41">
			<text transform="matrix(1 0 0 1 251.5723 241.5883)" class="st21 st22 st7">W</text>
			<text transform="matrix(1 0 0 1 273.8723 241.5883)" class="st21 st22 st7">EEK</text>
			<text transform="matrix(1 0 0 1 323.9723 241.5883)" class="st21 st22 st7"> </text>
			<text transform="matrix(1 0 0 1 332.3723 241.5883)" class="st21 st22 st7">11</text>
		</g>
	</g>
</g>
<g>
	<g>
		<defs>
			<rect id="SVGID_75_" x="232.7" y="151.8" width="453.9" height="53.2"/>
		</defs>
		<clipPath id="SVGID_76_">
			<use xlink:href="#SVGID_75_"  style="overflow:visible;"/>
		</clipPath>
		<g class="st42">
			<text transform="matrix(1 0 0 1 251.5723 188.433)" class="st21 st22 st7">W</text>
			<text transform="matrix(1 0 0 1 273.8723 188.433)" class="st21 st22 st7">EEK</text>
			<text transform="matrix(1 0 0 1 323.9723 188.433)" class="st21 st22 st7"> </text>
			<text transform="matrix(1 0 0 1 332.3723 188.433)" class="st21 st22 st7">12</text>
		</g>
	</g>
</g>
<g>
	<g>
		<defs>
			<rect id="SVGID_77_" x="232.7" y="98.7" width="453.9" height="53.2"/>
		</defs>
		<clipPath id="SVGID_78_">
			<use xlink:href="#SVGID_77_"  style="overflow:visible;"/>
		</clipPath>
		<g class="st43">
			<text transform="matrix(1 0 0 1 251.5723 135.2787)" class="st21 st22 st7">W</text>
			<text transform="matrix(1 0 0 1 273.8723 135.2787)" class="st21 st22 st7">EEK</text>
			<text transform="matrix(1 0 0 1 323.9723 135.2787)" class="st21 st22 st7"> </text>
			<text transform="matrix(1 0 0 1 332.3723 135.2787)" class="st21 st22 st7">13</text>
		</g>
	</g>
</g>
<g id="bOPcjd.tif_5_">
	
		<image style="overflow:visible;enable-background:new    ;" width="2270" height="730" id="Layer_0_10_" xlink:href="443F05B3CBE49966.png"  transform="matrix(3.637032e-02 0 0 3.518115e-02 55.5633 114.3892)">
	</image>
</g>
<g id="_x32_nFCcY.tif_5_">
	
		<image style="overflow:visible;enable-background:new    ;" width="2033" height="2461" id="Layer_0_9_" xlink:href="443F05B3CBE4996A.png"  transform="matrix(1.779761e-02 0 0 1.835519e-02 141.5728 104.6443)">
	</image>
</g>
<g id="AoJaZl.tif_5_">
	
		<image style="overflow:visible;enable-background:new    ;" width="196" height="258" id="Layer_1_5_" xlink:href="443F05B3CBE4996D.png"  transform="matrix(0.1898 0 0 0.1908 181.2042 100.6874)">
	</image>
</g>
<g id="PGRVIX.tif_1_">
	
		<image style="overflow:visible;enable-background:new    ;" width="230" height="230" id="Layer_0_16_" xlink:href="443F05B3CBE4996E.png"  transform="matrix(0.2115 0 0 0.2125 49.1159 687.4047)">
	</image>
</g>
<g id="aLWset.tif_1_">
	
		<image style="overflow:visible;enable-background:new    ;" width="484" height="112" id="Layer_0_15_" xlink:href="443F05B3CBE4996C.png"  transform="matrix(0.2476 0 0 0.2341 107.276 698.7304)">
	</image>
</g>
<g id="D58d0B.tif">
	
		<image style="overflow:visible;enable-background:new    ;" width="2030" height="874" id="Layer_0_25_" xlink:href="443F05B3CBE4996B.png"  transform="matrix(3.828871e-02 0 0 3.843156e-02 44.1377 163.5857)">
	</image>
</g>
<g id="kIj4Ot.tif">
	
		<image style="overflow:visible;enable-background:new    ;" width="482" height="108" id="Layer_0_26_" xlink:href="443F05B3CBE49965.png"  transform="matrix(0.2308 0 0 0.2257 125.5134 169.4084)">
	</image>
</g>
<g id="bOPcjd.tif_6_">
	
		<image style="overflow:visible;enable-background:new    ;" width="2270" height="730" id="Layer_0_14_" xlink:href="443F05B3CBE49967.png"  transform="matrix(3.637032e-02 0 0 3.518115e-02 54.4279 752.1892)">
	</image>
</g>
<g id="_x32_nFCcY.tif_6_">
	
		<image style="overflow:visible;enable-background:new    ;" width="2033" height="2461" id="Layer_0_13_" xlink:href="443F05B3CBE49964.png"  transform="matrix(1.779761e-02 0 0 1.835519e-02 140.4374 742.4443)">
	</image>
</g>
<g id="AoJaZl.tif_6_">
	
		<image style="overflow:visible;enable-background:new    ;" width="196" height="258" id="Layer_1_6_" xlink:href="DD1BD2FC780A2C19.png"  transform="matrix(0.1898 0 0 0.1908 180.0688 738.4874)">
	</image>
</g>
<g id="PGRVIX.tif_2_">
	
		<image style="overflow:visible;enable-background:new    ;" width="230" height="230" id="Layer_0_2_" xlink:href="DD1BD2FC780A2C1F.png"  transform="matrix(0.2115 0 0 0.2125 47.9806 632.365)">
	</image>
</g>
<g id="aLWset.tif_2_">
	
		<image style="overflow:visible;enable-background:new    ;" width="484" height="112" id="Layer_0_1_" xlink:href="DD1BD2FC780A2C18.png"  transform="matrix(0.2476 0 0 0.2341 106.1406 643.6908)">
	</image>
</g>
<g id="PGRVIX.tif_3_">
	
		<image style="overflow:visible;enable-background:new    ;" width="230" height="230" id="Layer_0_4_" xlink:href="DD1BD2FC780A2C1B.png"  transform="matrix(0.2115 0 0 0.2125 47.9806 579.265)">
	</image>
</g>
<g id="aLWset.tif_3_">
	
		<image style="overflow:visible;enable-background:new    ;" width="484" height="112" id="Layer_0_3_" xlink:href="DD1BD2FC780A2C07.png"  transform="matrix(0.2476 0 0 0.2341 106.1406 590.5908)">
	</image>
</g>
<g id="PGRVIX.tif_4_">
	
		<image style="overflow:visible;enable-background:new    ;" width="230" height="230" id="Layer_0_6_" xlink:href="DD1BD2FC780A2C17.png"  transform="matrix(0.2115 0 0 0.2125 47.9806 524)">
	</image>
</g>
<g id="aLWset.tif_4_">
	
		<image style="overflow:visible;enable-background:new    ;" width="484" height="112" id="Layer_0_5_" xlink:href="DD1BD2FC780A2C09.png"  transform="matrix(0.2476 0 0 0.2341 106.1406 535.3258)">
	</image>
</g>
<g id="PGRVIX.tif_5_">
	
		<image style="overflow:visible;enable-background:new    ;" width="230" height="230" id="Layer_0_8_" xlink:href="DD1BD2FC780A2C0B.png"  transform="matrix(0.2115 0 0 0.2125 47.9806 472.965)">
	</image>
</g>
<g id="aLWset.tif_5_">
	
		<image style="overflow:visible;enable-background:new    ;" width="484" height="112" id="Layer_0_7_" xlink:href="DD1BD2FC780A2C08.png"  transform="matrix(0.2476 0 0 0.2341 106.1406 484.2907)">
	</image>
</g>
<g id="PGRVIX.tif_6_">
	
		<image style="overflow:visible;enable-background:new    ;" width="230" height="230" id="Layer_0_12_" xlink:href="DD1BD2FC780A2C0F.png"  transform="matrix(0.2115 0 0 0.2125 47.9806 420.515)">
	</image>
</g>
<g id="aLWset.tif_6_">
	
		<image style="overflow:visible;enable-background:new    ;" width="484" height="112" id="Layer_0_11_" xlink:href="DD1BD2FC780A2C2C.png"  transform="matrix(0.2476 0 0 0.2341 106.1406 431.8408)">
	</image>
</g>
<g id="bOPcjd.tif_1_">
	
		<image style="overflow:visible;enable-background:new    ;" width="2270" height="730" id="Layer_0_18_" xlink:href="DD1BD2FC780A2C2F.png"  transform="matrix(3.637032e-02 0 0 3.518115e-02 55.5633 380.1892)">
	</image>
</g>
<g id="_x32_nFCcY.tif_1_">
	
		<image style="overflow:visible;enable-background:new    ;" width="2033" height="2461" id="Layer_0_17_" xlink:href="DD1BD2FC780A2C2D.png"  transform="matrix(1.779761e-02 0 0 1.835519e-02 141.5728 370.4443)">
	</image>
</g>
<g id="AoJaZl.tif_1_">
	
		<image style="overflow:visible;enable-background:new    ;" width="196" height="258" id="Layer_1_1_" xlink:href="DD1BD2FC780A2C23.png"  transform="matrix(0.1898 0 0 0.1908 181.2042 366.4874)">
	</image>
</g>
<g id="bOPcjd.tif_2_">
	
		<image style="overflow:visible;enable-background:new    ;" width="2270" height="730" id="Layer_0_20_" xlink:href="DD1BD2FC780A2C24.png"  transform="matrix(3.637032e-02 0 0 3.518115e-02 59.0122 326.9892)">
	</image>
</g>
<g id="_x32_nFCcY.tif_2_">
	
		<image style="overflow:visible;enable-background:new    ;" width="2033" height="2461" id="Layer_0_19_" xlink:href="DD1BD2FC780A2C27.png"  transform="matrix(1.779761e-02 0 0 1.835519e-02 145.0217 317.2443)">
	</image>
</g>
<g id="AoJaZl.tif_2_">
	
		<image style="overflow:visible;enable-background:new    ;" width="196" height="258" id="Layer_1_2_" xlink:href="DD1BD2FC780A2C25.png"  transform="matrix(0.1898 0 0 0.1908 184.6531 313.2874)">
	</image>
</g>
<g id="bOPcjd.tif_3_">
	
		<image style="overflow:visible;enable-background:new    ;" width="2270" height="730" id="Layer_0_22_" xlink:href="DD1BD2FC780A2C22.png"  transform="matrix(3.637032e-02 0 0 3.518115e-02 59.0122 274.4791)">
	</image>
</g>
<g id="_x32_nFCcY.tif_3_">
	
		<image style="overflow:visible;enable-background:new    ;" width="2033" height="2461" id="Layer_0_21_" xlink:href="DD1BD2FC780A2C5C.png"  transform="matrix(1.779761e-02 0 0 1.835519e-02 145.0217 264.7341)">
	</image>
</g>
<g id="AoJaZl.tif_3_">
	
		<image style="overflow:visible;enable-background:new    ;" width="196" height="258" id="Layer_1_3_" xlink:href="DD1BD2FC780A2C5F.png"  transform="matrix(0.1898 0 0 0.1908 184.6531 260.7773)">
	</image>
</g>
<g id="bOPcjd.tif_4_">
	
		<image style="overflow:visible;enable-background:new    ;" width="2270" height="730" id="Layer_0_24_" xlink:href="DD1BD2FC780A2C43.png"  transform="matrix(3.637032e-02 0 0 3.518115e-02 59.0122 220.6892)">
	</image>
</g>
<g id="_x32_nFCcY.tif_4_">
	
		<image style="overflow:visible;enable-background:new    ;" width="2033" height="2461" id="Layer_0_23_" xlink:href="DD1BD2FC780A2C41.png"  transform="matrix(1.779761e-02 0 0 1.835519e-02 145.0217 210.9443)">
	</image>
</g>
<g id="AoJaZl.tif_4_">
	
		<image style="overflow:visible;enable-background:new    ;" width="196" height="258" id="Layer_1_4_" xlink:href="DD1BD2FC780A2C7F.png"  transform="matrix(0.1898 0 0 0.1908 184.6531 206.9874)">
	</image>
</g>
</svg>
